<svg width="750" height="400" viewBox="0 0 750 400" fill="none" xmlns="http://www.w3.org/2000/svg">
<rect width="750" height="400" fill="#FFFFFE"/>
<rect y="0.461426" width="138.932" height="399.539" fill="black"/>
<rect y="0.461426" width="138.932" height="201.457" fill="#6DD16B"/>
<path d="M635.793 129.889H750V153.524H635.793V129.889Z" fill="black"/>
<rect x="619.309" y="117.509" width="114.207" height="23.6347" fill="#6DD16B"/>
<line x1="166.335" y1="0.461426" x2="166.335" y2="213.174" stroke="#6DD16B" stroke-width="3"/>
<line x1="156.916" y1="0.461426" x2="156.916" y2="213.174" stroke="#6DD16B" stroke-width="3"/>
<line x1="147.497" y1="0.461426" x2="147.497" y2="201.919" stroke="#6DD16B" stroke-width="3"/>
<line x1="166.335" y1="201.919" x2="166.335" y2="400" stroke="black" stroke-width="3"/>
<line x1="156.916" y1="201.919" x2="156.916" y2="400" stroke="black" stroke-width="3"/>
<line x1="147.497" y1="201.919" x2="147.497" y2="400" stroke="black" stroke-width="3"/>
<path d="M318.234 108.479H320.109C320.012 109.377 319.755 110.181 319.338 110.891C318.921 111.6 318.332 112.163 317.57 112.58C316.809 112.99 315.858 113.195 314.719 113.195C313.885 113.195 313.127 113.039 312.443 112.727C311.766 112.414 311.184 111.971 310.695 111.398C310.207 110.819 309.829 110.126 309.562 109.318C309.302 108.505 309.172 107.6 309.172 106.604V105.188C309.172 104.191 309.302 103.29 309.562 102.482C309.829 101.669 310.21 100.972 310.705 100.393C311.206 99.8132 311.809 99.3672 312.512 99.0547C313.215 98.7422 314.006 98.5859 314.885 98.5859C315.959 98.5859 316.867 98.7878 317.609 99.1914C318.352 99.5951 318.928 100.155 319.338 100.871C319.755 101.581 320.012 102.404 320.109 103.342H318.234C318.143 102.678 317.974 102.108 317.727 101.633C317.479 101.151 317.128 100.78 316.672 100.52C316.216 100.259 315.62 100.129 314.885 100.129C314.253 100.129 313.697 100.249 313.215 100.49C312.74 100.731 312.339 101.073 312.014 101.516C311.695 101.958 311.454 102.489 311.291 103.107C311.128 103.726 311.047 104.413 311.047 105.168V106.604C311.047 107.3 311.118 107.954 311.262 108.566C311.411 109.178 311.636 109.715 311.936 110.178C312.235 110.64 312.616 111.005 313.078 111.271C313.54 111.532 314.087 111.662 314.719 111.662C315.52 111.662 316.158 111.535 316.633 111.281C317.108 111.027 317.466 110.663 317.707 110.188C317.954 109.712 318.13 109.143 318.234 108.479ZM331.711 111.467V113H324.182V111.467H331.711ZM324.562 98.7812V113H322.678V98.7812H324.562ZM330.715 104.895V106.428H324.182V104.895H330.715ZM331.613 98.7812V100.324H324.182V98.7812H331.613ZM339.289 107.424H335.49V105.891H339.289C340.025 105.891 340.62 105.773 341.076 105.539C341.532 105.305 341.864 104.979 342.072 104.562C342.287 104.146 342.395 103.671 342.395 103.137C342.395 102.648 342.287 102.189 342.072 101.76C341.864 101.33 341.532 100.985 341.076 100.725C340.62 100.458 340.025 100.324 339.289 100.324H335.93V113H334.045V98.7812H339.289C340.363 98.7812 341.271 98.9668 342.014 99.3379C342.756 99.709 343.319 100.223 343.703 100.881C344.087 101.532 344.279 102.277 344.279 103.117C344.279 104.029 344.087 104.807 343.703 105.451C343.319 106.096 342.756 106.587 342.014 106.926C341.271 107.258 340.363 107.424 339.289 107.424ZM351.916 98.7812V113H350.061V98.7812H351.916ZM356.486 98.7812V100.324H345.5V98.7812H356.486ZM360.559 109.738L367.561 98.7812H369.445V113H367.561V102.033L360.559 113H358.684V98.7812H360.559V109.738ZM377.805 100.197H380.158C380.979 100.197 381.737 100.337 382.434 100.617C383.137 100.891 383.749 101.281 384.27 101.789C384.797 102.297 385.207 102.902 385.5 103.605C385.793 104.302 385.939 105.074 385.939 105.92C385.939 106.766 385.793 107.541 385.5 108.244C385.207 108.947 384.797 109.556 384.27 110.07C383.749 110.578 383.137 110.972 382.434 111.252C381.737 111.525 380.979 111.662 380.158 111.662H377.805C376.984 111.662 376.226 111.525 375.529 111.252C374.833 110.972 374.221 110.578 373.693 110.07C373.173 109.562 372.766 108.96 372.473 108.264C372.186 107.561 372.043 106.786 372.043 105.939C372.043 105.093 372.186 104.322 372.473 103.625C372.766 102.922 373.173 102.316 373.693 101.809C374.221 101.294 374.833 100.897 375.529 100.617C376.226 100.337 376.984 100.197 377.805 100.197ZM377.805 101.682C376.952 101.682 376.229 101.861 375.637 102.219C375.044 102.57 374.595 103.065 374.289 103.703C373.983 104.341 373.83 105.087 373.83 105.939C373.83 106.584 373.915 107.167 374.084 107.688C374.26 108.208 374.517 108.654 374.855 109.025C375.194 109.396 375.611 109.683 376.105 109.885C376.6 110.087 377.167 110.188 377.805 110.188H380.178C381.024 110.188 381.74 110.012 382.326 109.66C382.919 109.302 383.368 108.804 383.674 108.166C383.986 107.521 384.143 106.773 384.143 105.92C384.143 105.282 384.055 104.702 383.879 104.182C383.703 103.661 383.446 103.215 383.107 102.844C382.775 102.473 382.362 102.186 381.867 101.984C381.379 101.783 380.816 101.682 380.178 101.682H377.805ZM379.895 98.1953V113.586H378.088V98.1953H379.895ZM390.344 98.7812V113H388.459V98.7812H390.344ZM395.744 98.7812V113H393.859V98.7812H395.744ZM404.504 98.7812L398.332 106.604H394.992L394.699 105.041H397.209L402.17 98.7812H404.504ZM402.609 113L397.268 106.359L398.322 104.709L404.914 113H402.609ZM411.887 100.041L407.18 113H405.256L410.676 98.7812H411.916L411.887 100.041ZM415.832 113L411.115 100.041L411.086 98.7812H412.326L417.766 113H415.832ZM415.588 107.736V109.279H407.6V107.736H415.588ZM423.654 98.7812V113H421.799V98.7812H423.654ZM428.225 98.7812V100.324H417.238V98.7812H428.225Z" fill="black"/>
<path d="M252.375 196.345H249.853L249.839 195.285H252.129C252.507 195.285 252.838 195.221 253.12 195.094C253.403 194.966 253.621 194.784 253.776 194.547C253.936 194.305 254.016 194.018 254.016 193.686C254.016 193.321 253.945 193.025 253.804 192.797C253.667 192.564 253.455 192.396 253.168 192.291C252.885 192.182 252.525 192.127 252.088 192.127H250.146V201H248.827V191.047H252.088C252.598 191.047 253.054 191.099 253.455 191.204C253.856 191.304 254.196 191.464 254.474 191.683C254.756 191.897 254.97 192.17 255.116 192.503C255.262 192.836 255.335 193.234 255.335 193.699C255.335 194.109 255.23 194.481 255.021 194.813C254.811 195.142 254.519 195.41 254.146 195.62C253.776 195.83 253.343 195.964 252.847 196.023L252.375 196.345ZM252.313 201H249.333L250.078 199.927H252.313C252.733 199.927 253.088 199.854 253.38 199.708C253.676 199.562 253.902 199.357 254.057 199.093C254.212 198.824 254.289 198.507 254.289 198.143C254.289 197.773 254.223 197.454 254.091 197.186C253.959 196.917 253.751 196.709 253.469 196.563C253.186 196.418 252.822 196.345 252.375 196.345H250.495L250.509 195.285H253.079L253.359 195.668C253.838 195.709 254.243 195.846 254.576 196.078C254.909 196.306 255.162 196.598 255.335 196.953C255.513 197.309 255.602 197.701 255.602 198.129C255.602 198.749 255.465 199.273 255.191 199.701C254.923 200.125 254.542 200.449 254.05 200.672C253.558 200.891 252.979 201 252.313 201ZM258.726 198.997L262.137 193.604H263.408V201H262.137V195.606L258.726 201H257.468V193.604H258.726V198.997ZM266.771 193.604H268.036L267.927 196.372C267.899 197.074 267.82 197.68 267.688 198.19C267.555 198.701 267.387 199.136 267.182 199.496C266.977 199.852 266.746 200.15 266.491 200.392C266.241 200.633 265.981 200.836 265.712 201H265.083L265.117 199.968L265.377 199.961C265.527 199.783 265.673 199.601 265.814 199.414C265.956 199.223 266.086 198.997 266.204 198.737C266.323 198.473 266.421 198.152 266.498 197.773C266.58 197.391 266.632 196.924 266.655 196.372L266.771 193.604ZM267.086 193.604H271.536V201H270.271V194.772H267.086V193.604ZM264.796 199.961H272.486V203.181H271.222V201H266.061V203.181H264.789L264.796 199.961ZM278.249 199.735V195.928C278.249 195.636 278.19 195.383 278.071 195.169C277.957 194.95 277.784 194.782 277.552 194.663C277.319 194.545 277.032 194.485 276.69 194.485C276.371 194.485 276.091 194.54 275.85 194.649C275.613 194.759 275.426 194.902 275.289 195.08C275.157 195.258 275.091 195.449 275.091 195.654H273.826C273.826 195.39 273.895 195.128 274.031 194.868C274.168 194.608 274.364 194.374 274.619 194.164C274.879 193.95 275.189 193.781 275.549 193.658C275.913 193.531 276.319 193.467 276.766 193.467C277.303 193.467 277.777 193.558 278.188 193.74C278.602 193.923 278.926 194.198 279.158 194.567C279.395 194.932 279.514 195.39 279.514 195.941V199.387C279.514 199.633 279.534 199.895 279.575 200.173C279.621 200.451 279.687 200.69 279.773 200.891V201H278.454C278.39 200.854 278.34 200.66 278.304 200.419C278.267 200.173 278.249 199.945 278.249 199.735ZM278.468 196.516L278.481 197.404H277.203C276.843 197.404 276.522 197.434 276.239 197.493C275.957 197.548 275.72 197.632 275.528 197.746C275.337 197.86 275.191 198.004 275.091 198.177C274.991 198.345 274.94 198.544 274.94 198.771C274.94 199.004 274.993 199.216 275.098 199.407C275.202 199.599 275.36 199.751 275.569 199.865C275.784 199.975 276.046 200.029 276.355 200.029C276.743 200.029 277.085 199.947 277.381 199.783C277.677 199.619 277.912 199.419 278.085 199.182C278.263 198.945 278.358 198.715 278.372 198.491L278.912 199.1C278.88 199.291 278.794 199.503 278.652 199.735C278.511 199.968 278.322 200.191 278.085 200.405C277.853 200.615 277.575 200.79 277.251 200.932C276.932 201.068 276.572 201.137 276.171 201.137C275.67 201.137 275.23 201.039 274.852 200.843C274.478 200.647 274.186 200.385 273.977 200.057C273.771 199.724 273.669 199.353 273.669 198.942C273.669 198.546 273.746 198.197 273.901 197.896C274.056 197.591 274.28 197.338 274.571 197.138C274.863 196.933 275.214 196.778 275.624 196.673C276.034 196.568 276.492 196.516 276.998 196.516H278.468ZM286.521 196.81V197.835H282.61V196.81H286.521ZM282.877 193.604V201H281.612V193.604H282.877ZM287.546 193.604V201H286.274V193.604H287.546ZM290.95 198.997L294.361 193.604H295.633V201H294.361V195.606L290.95 201H289.692V193.604H290.95V198.997ZM299.03 198.997L302.441 193.604H303.713V201H302.441V195.606L299.03 201H297.772V193.604H299.03V198.997ZM301.751 190.924H302.776C302.776 191.279 302.694 191.596 302.53 191.874C302.366 192.147 302.132 192.362 301.826 192.517C301.521 192.672 301.159 192.749 300.739 192.749C300.106 192.749 299.604 192.58 299.235 192.243C298.871 191.901 298.688 191.462 298.688 190.924H299.714C299.714 191.193 299.791 191.43 299.946 191.635C300.101 191.84 300.366 191.942 300.739 191.942C301.104 191.942 301.364 191.84 301.519 191.635C301.674 191.43 301.751 191.193 301.751 190.924ZM314.548 201V202.039H308.279V201H314.548ZM320.864 201V202.039H314.596V201H320.864ZM327.181 201V202.039H320.912V201H327.181ZM333.497 201V202.039H327.229V201H333.497ZM339.813 201V202.039H333.545V201H339.813ZM346.13 201V202.039H339.861V201H346.13ZM352.446 201V202.039H346.178V201H352.446ZM358.763 201V202.039H352.494V201H358.763ZM365.079 201V202.039H358.811V201H365.079ZM371.396 201V202.039H365.127V201H371.396ZM377.712 201V202.039H371.443V201H377.712ZM384.028 201V202.039H377.76V201H384.028ZM390.345 201V202.039H384.076V201H390.345ZM396.661 201V202.039H390.393V201H396.661ZM402.978 201V202.039H396.709V201H402.978ZM409.294 201V202.039H403.025V201H409.294ZM415.61 201V202.039H409.342V201H415.61ZM421.927 201V202.039H415.658V201H421.927ZM428.243 201V202.039H421.975V201H428.243ZM434.56 201V202.039H428.291V201H434.56ZM440.876 201V202.039H434.607V201H440.876ZM447.192 201V202.039H440.924V201H447.192ZM453.509 201V202.039H447.24V201H453.509ZM459.825 201V202.039H453.557V201H459.825ZM466.142 201V202.039H459.873V201H466.142ZM472.458 201V202.039H466.189V201H472.458ZM478.774 201V202.039H472.506V201H478.774ZM485.091 201V202.039H478.822V201H485.091ZM491.407 201V202.039H485.139V201H491.407ZM497.724 201V202.039H491.455V201H497.724ZM504.04 201V202.039H497.771V201H504.04ZM510.356 201V202.039H504.088V201H510.356ZM516.673 201V202.039H510.404V201H516.673ZM522.989 201V202.039H516.721V201H522.989ZM529.306 201V202.039H523.037V201H529.306ZM535.622 201V202.039H529.354V201H535.622ZM541.938 201V202.039H535.67V201H541.938ZM548.255 201V202.039H541.986V201H548.255ZM554.571 201V202.039H548.303V201H554.571ZM560.888 201V202.039H554.619V201H560.888ZM567.204 201V202.039H560.936V201H567.204ZM573.521 201V202.039H567.252V201H573.521ZM579.837 201V202.039H573.568V201H579.837ZM586.153 201V202.039H579.885V201H586.153ZM592.47 201V202.039H586.201V201H592.47ZM598.786 201V202.039H592.518V201H598.786ZM605.103 201V202.039H598.834V201H605.103ZM611.419 201V202.039H605.15V201H611.419ZM617.735 201V202.039H611.467V201H617.735ZM624.052 201V202.039H617.783V201H624.052ZM630.368 201V202.039H624.1V201H630.368ZM210.204 228.222H209.021V227.381H210.156C210.658 227.381 211.063 227.31 211.373 227.169C211.683 227.028 211.909 226.832 212.05 226.581C212.191 226.33 212.262 226.041 212.262 225.713C212.262 225.398 212.184 225.111 212.029 224.852C211.874 224.587 211.635 224.378 211.312 224.223C210.988 224.063 210.571 223.983 210.061 223.983C209.678 223.983 209.331 224.056 209.021 224.202C208.712 224.343 208.465 224.542 208.283 224.797C208.101 225.048 208.01 225.337 208.01 225.665H206.69C206.69 225.241 206.779 224.861 206.957 224.523C207.135 224.182 207.379 223.892 207.688 223.655C207.998 223.414 208.356 223.229 208.762 223.102C209.172 222.974 209.605 222.91 210.061 222.91C210.594 222.91 211.077 222.972 211.51 223.095C211.943 223.213 212.314 223.391 212.624 223.628C212.934 223.865 213.171 224.159 213.335 224.51C213.499 224.861 213.581 225.269 213.581 225.733C213.581 226.075 213.501 226.396 213.342 226.697C213.182 226.998 212.954 227.262 212.658 227.49C212.362 227.718 212.007 227.898 211.592 228.03C211.177 228.158 210.715 228.222 210.204 228.222ZM209.021 227.641H210.204C210.765 227.641 211.264 227.698 211.701 227.812C212.139 227.925 212.508 228.092 212.809 228.311C213.109 228.529 213.337 228.8 213.492 229.124C213.652 229.443 213.731 229.81 213.731 230.225C213.731 230.689 213.64 231.102 213.458 231.462C213.28 231.822 213.027 232.127 212.699 232.378C212.371 232.629 211.981 232.818 211.53 232.945C211.084 233.073 210.594 233.137 210.061 233.137C209.632 233.137 209.208 233.082 208.789 232.973C208.374 232.859 207.998 232.686 207.661 232.453C207.324 232.216 207.053 231.915 206.848 231.551C206.647 231.186 206.547 230.749 206.547 230.238H207.866C207.866 230.571 207.957 230.876 208.14 231.154C208.326 231.432 208.584 231.656 208.912 231.824C209.24 231.988 209.623 232.07 210.061 232.07C210.562 232.07 210.986 231.993 211.332 231.838C211.683 231.678 211.95 231.462 212.132 231.188C212.319 230.91 212.412 230.598 212.412 230.252C212.412 229.947 212.362 229.682 212.262 229.459C212.166 229.231 212.022 229.044 211.831 228.898C211.644 228.753 211.41 228.646 211.127 228.577C210.849 228.504 210.525 228.468 210.156 228.468H209.021V227.641ZM219.638 231.735V227.928C219.638 227.636 219.578 227.383 219.46 227.169C219.346 226.95 219.173 226.782 218.94 226.663C218.708 226.545 218.421 226.485 218.079 226.485C217.76 226.485 217.48 226.54 217.238 226.649C217.001 226.759 216.814 226.902 216.678 227.08C216.546 227.258 216.479 227.449 216.479 227.654H215.215C215.215 227.39 215.283 227.128 215.42 226.868C215.557 226.608 215.753 226.374 216.008 226.164C216.268 225.95 216.577 225.781 216.938 225.658C217.302 225.531 217.708 225.467 218.154 225.467C218.692 225.467 219.166 225.558 219.576 225.74C219.991 225.923 220.314 226.198 220.547 226.567C220.784 226.932 220.902 227.39 220.902 227.941V231.387C220.902 231.633 220.923 231.895 220.964 232.173C221.009 232.451 221.076 232.69 221.162 232.891V233H219.843C219.779 232.854 219.729 232.66 219.692 232.419C219.656 232.173 219.638 231.945 219.638 231.735ZM219.856 228.516L219.87 229.404H218.592C218.232 229.404 217.91 229.434 217.628 229.493C217.345 229.548 217.108 229.632 216.917 229.746C216.726 229.86 216.58 230.004 216.479 230.177C216.379 230.345 216.329 230.544 216.329 230.771C216.329 231.004 216.382 231.216 216.486 231.407C216.591 231.599 216.748 231.751 216.958 231.865C217.172 231.975 217.434 232.029 217.744 232.029C218.132 232.029 218.473 231.947 218.77 231.783C219.066 231.619 219.3 231.419 219.474 231.182C219.651 230.945 219.747 230.715 219.761 230.491L220.301 231.1C220.269 231.291 220.182 231.503 220.041 231.735C219.9 231.968 219.711 232.191 219.474 232.405C219.241 232.615 218.963 232.79 218.64 232.932C218.321 233.068 217.961 233.137 217.56 233.137C217.058 233.137 216.618 233.039 216.24 232.843C215.867 232.647 215.575 232.385 215.365 232.057C215.16 231.724 215.058 231.353 215.058 230.942C215.058 230.546 215.135 230.197 215.29 229.896C215.445 229.591 215.668 229.338 215.96 229.138C216.252 228.933 216.603 228.778 217.013 228.673C217.423 228.568 217.881 228.516 218.387 228.516H219.856ZM228.442 232.234L230.5 225.604H231.854L228.887 234.142C228.818 234.324 228.727 234.52 228.613 234.729C228.504 234.944 228.363 235.146 228.189 235.338C228.016 235.529 227.807 235.684 227.561 235.803C227.319 235.926 227.03 235.987 226.692 235.987C226.592 235.987 226.465 235.974 226.31 235.946C226.155 235.919 226.045 235.896 225.981 235.878L225.975 234.853C226.011 234.857 226.068 234.862 226.146 234.866C226.228 234.875 226.285 234.88 226.316 234.88C226.604 234.88 226.847 234.841 227.048 234.764C227.248 234.691 227.417 234.565 227.554 234.388C227.695 234.215 227.816 233.975 227.916 233.67L228.442 232.234ZM226.932 225.604L228.853 231.346L229.181 232.679L228.271 233.144L225.551 225.604H226.932ZM238.573 225.604V233H237.309V225.604H238.573ZM238.143 229.001V230.04C237.887 230.136 237.628 230.222 237.363 230.3C237.104 230.373 236.828 230.432 236.536 230.478C236.249 230.519 235.937 230.539 235.6 230.539C235.016 230.539 234.51 230.439 234.082 230.238C233.654 230.033 233.323 229.726 233.091 229.315C232.858 228.901 232.742 228.379 232.742 227.75V225.59H234.007V227.75C234.007 228.16 234.068 228.493 234.191 228.748C234.314 229.003 234.494 229.192 234.731 229.315C234.968 229.434 235.258 229.493 235.6 229.493C235.928 229.493 236.235 229.473 236.522 229.432C236.814 229.386 237.092 229.327 237.356 229.254C237.625 229.181 237.887 229.097 238.143 229.001ZM244.972 231.735V227.928C244.972 227.636 244.912 227.383 244.794 227.169C244.68 226.95 244.507 226.782 244.274 226.663C244.042 226.545 243.755 226.485 243.413 226.485C243.094 226.485 242.814 226.54 242.572 226.649C242.335 226.759 242.148 226.902 242.012 227.08C241.88 227.258 241.813 227.449 241.813 227.654H240.549C240.549 227.39 240.617 227.128 240.754 226.868C240.891 226.608 241.087 226.374 241.342 226.164C241.602 225.95 241.911 225.781 242.271 225.658C242.636 225.531 243.042 225.467 243.488 225.467C244.026 225.467 244.5 225.558 244.91 225.74C245.325 225.923 245.648 226.198 245.881 226.567C246.118 226.932 246.236 227.39 246.236 227.941V231.387C246.236 231.633 246.257 231.895 246.298 232.173C246.343 232.451 246.41 232.69 246.496 232.891V233H245.177C245.113 232.854 245.063 232.66 245.026 232.419C244.99 232.173 244.972 231.945 244.972 231.735ZM245.19 228.516L245.204 229.404H243.926C243.566 229.404 243.244 229.434 242.962 229.493C242.679 229.548 242.442 229.632 242.251 229.746C242.06 229.86 241.914 230.004 241.813 230.177C241.713 230.345 241.663 230.544 241.663 230.771C241.663 231.004 241.715 231.216 241.82 231.407C241.925 231.599 242.082 231.751 242.292 231.865C242.506 231.975 242.768 232.029 243.078 232.029C243.465 232.029 243.807 231.947 244.104 231.783C244.4 231.619 244.634 231.419 244.808 231.182C244.985 230.945 245.081 230.715 245.095 230.491L245.635 231.1C245.603 231.291 245.516 231.503 245.375 231.735C245.234 231.968 245.045 232.191 244.808 232.405C244.575 232.615 244.297 232.79 243.974 232.932C243.655 233.068 243.295 233.137 242.894 233.137C242.392 233.137 241.952 233.039 241.574 232.843C241.201 232.647 240.909 232.385 240.699 232.057C240.494 231.724 240.392 231.353 240.392 230.942C240.392 230.546 240.469 230.197 240.624 229.896C240.779 229.591 241.002 229.338 241.294 229.138C241.586 228.933 241.937 228.778 242.347 228.673C242.757 228.568 243.215 228.516 243.721 228.516H245.19ZM251.186 232.098C251.486 232.098 251.764 232.036 252.02 231.913C252.275 231.79 252.484 231.621 252.648 231.407C252.812 231.188 252.906 230.94 252.929 230.662H254.132C254.109 231.1 253.961 231.507 253.688 231.886C253.419 232.259 253.065 232.562 252.628 232.795C252.19 233.023 251.71 233.137 251.186 233.137C250.63 233.137 250.144 233.039 249.729 232.843C249.319 232.647 248.978 232.378 248.704 232.036C248.435 231.694 248.232 231.302 248.096 230.86C247.964 230.414 247.897 229.942 247.897 229.445V229.158C247.897 228.661 247.964 228.192 248.096 227.75C248.232 227.303 248.435 226.909 248.704 226.567C248.978 226.226 249.319 225.957 249.729 225.761C250.144 225.565 250.63 225.467 251.186 225.467C251.764 225.467 252.27 225.585 252.703 225.822C253.136 226.055 253.476 226.374 253.722 226.779C253.972 227.18 254.109 227.636 254.132 228.146H252.929C252.906 227.841 252.819 227.565 252.669 227.319C252.523 227.073 252.323 226.877 252.067 226.731C251.817 226.581 251.523 226.506 251.186 226.506C250.798 226.506 250.472 226.583 250.208 226.738C249.948 226.889 249.741 227.094 249.586 227.354C249.436 227.609 249.326 227.894 249.258 228.208C249.194 228.518 249.162 228.835 249.162 229.158V229.445C249.162 229.769 249.194 230.088 249.258 230.402C249.322 230.717 249.429 231.002 249.579 231.257C249.734 231.512 249.941 231.717 250.201 231.872C250.465 232.022 250.794 232.098 251.186 232.098ZM258.568 225.604V233H257.297V225.604H258.568ZM261.05 225.604V226.629H254.863V225.604H261.05ZM263.333 228.146H265.555C266.152 228.146 266.655 228.251 267.065 228.461C267.476 228.666 267.785 228.951 267.995 229.315C268.209 229.675 268.316 230.086 268.316 230.546C268.316 230.888 268.257 231.209 268.139 231.51C268.02 231.806 267.842 232.066 267.605 232.289C267.373 232.512 267.084 232.688 266.737 232.815C266.396 232.938 266.001 233 265.555 233H262.41V225.604H263.675V231.961H265.555C265.919 231.961 266.211 231.895 266.43 231.763C266.648 231.631 266.806 231.46 266.901 231.25C266.997 231.04 267.045 230.822 267.045 230.594C267.045 230.37 266.997 230.152 266.901 229.938C266.806 229.723 266.648 229.546 266.43 229.404C266.211 229.258 265.919 229.186 265.555 229.186H263.333V228.146ZM275.446 232.234L277.504 225.604H278.857L275.891 234.142C275.822 234.324 275.731 234.52 275.617 234.729C275.508 234.944 275.367 235.146 275.193 235.338C275.02 235.529 274.811 235.684 274.564 235.803C274.323 235.926 274.034 235.987 273.696 235.987C273.596 235.987 273.468 235.974 273.313 235.946C273.159 235.919 273.049 235.896 272.985 235.878L272.979 234.853C273.015 234.857 273.072 234.862 273.149 234.866C273.231 234.875 273.288 234.88 273.32 234.88C273.607 234.88 273.851 234.841 274.052 234.764C274.252 234.691 274.421 234.565 274.558 234.388C274.699 234.215 274.82 233.975 274.92 233.67L275.446 232.234ZM273.936 225.604L275.856 231.346L276.185 232.679L275.275 233.144L272.555 225.604H273.936ZM285.331 233V234.039H279.062V233H285.331ZM291.647 233V234.039H285.379V233H291.647ZM297.964 233V234.039H291.695V233H297.964ZM304.28 233V234.039H298.012V233H304.28ZM310.597 233V234.039H304.328V233H310.597ZM316.913 233V234.039H310.645V233H316.913ZM323.229 233V234.039H316.961V233H323.229ZM329.546 233V234.039H323.277V233H329.546ZM335.862 233V234.039H329.594V233H335.862ZM342.179 233V234.039H335.91V233H342.179ZM348.495 233V234.039H342.227V233H348.495ZM354.812 233V234.039H348.543V233H354.812ZM361.128 233V234.039H354.859V233H361.128ZM367.444 233V234.039H361.176V233H367.444ZM373.761 233V234.039H367.492V233H373.761ZM380.077 233V234.039H373.809V233H380.077ZM386.394 233V234.039H380.125V233H386.394ZM392.71 233V234.039H386.441V233H392.71ZM399.026 233V234.039H392.758V233H399.026ZM405.343 233V234.039H399.074V233H405.343ZM411.659 233V234.039H405.391V233H411.659ZM417.976 233V234.039H411.707V233H417.976ZM425.905 229.746H423.479L423.465 228.734H425.447C425.839 228.734 426.165 228.696 426.425 228.618C426.689 228.541 426.887 228.424 427.02 228.27C427.152 228.115 427.218 227.923 427.218 227.695C427.218 227.518 427.179 227.363 427.102 227.23C427.029 227.094 426.917 226.982 426.767 226.896C426.616 226.804 426.429 226.738 426.206 226.697C425.987 226.652 425.73 226.629 425.434 226.629H423.813V233H422.549V225.604H425.434C425.903 225.604 426.325 225.645 426.698 225.727C427.076 225.809 427.398 225.934 427.662 226.103C427.931 226.267 428.136 226.476 428.277 226.731C428.419 226.987 428.489 227.287 428.489 227.634C428.489 227.857 428.444 228.069 428.353 228.27C428.261 228.47 428.127 228.648 427.949 228.803C427.771 228.958 427.553 229.085 427.293 229.186C427.033 229.281 426.735 229.343 426.397 229.37L425.905 229.746ZM425.905 233H423.021L423.649 231.975H425.905C426.256 231.975 426.548 231.931 426.78 231.845C427.013 231.754 427.186 231.626 427.3 231.462C427.418 231.293 427.478 231.093 427.478 230.86C427.478 230.628 427.418 230.43 427.3 230.266C427.186 230.097 427.013 229.969 426.78 229.883C426.548 229.792 426.256 229.746 425.905 229.746H423.984L423.998 228.734H426.397L426.855 229.117C427.261 229.149 427.605 229.249 427.888 229.418C428.17 229.587 428.384 229.801 428.53 230.061C428.676 230.316 428.749 230.594 428.749 230.895C428.749 231.241 428.683 231.546 428.551 231.811C428.423 232.075 428.236 232.296 427.99 232.474C427.744 232.647 427.446 232.779 427.095 232.87C426.744 232.957 426.347 233 425.905 233ZM431.812 230.997L435.223 225.604H436.494V233H435.223V227.606L431.812 233H430.554V225.604H431.812V230.997ZM439.898 225.604V233H438.634V225.604H439.898ZM444.752 225.604L441.245 229.842H439.475L439.283 228.734H440.732L443.214 225.604H444.752ZM443.392 233L440.671 229.65L441.484 228.734L444.998 233H443.392ZM451.041 225.604V226.649H447.466V225.604H451.041ZM452.155 225.604V233H450.891V225.604H452.155ZM447.158 225.604H448.43L448.238 229.172C448.206 229.723 448.154 230.211 448.081 230.635C448.013 231.054 447.917 231.414 447.794 231.715C447.675 232.016 447.525 232.262 447.343 232.453C447.165 232.64 446.951 232.779 446.7 232.87C446.45 232.957 446.16 233 445.832 233H445.436V231.886L445.709 231.865C445.905 231.852 446.071 231.806 446.208 231.729C446.349 231.651 446.468 231.537 446.563 231.387C446.659 231.232 446.737 231.034 446.796 230.792C446.86 230.55 446.908 230.263 446.939 229.931C446.976 229.598 447.003 229.211 447.021 228.769L447.158 225.604ZM458.554 231.735V227.928C458.554 227.636 458.494 227.383 458.376 227.169C458.262 226.95 458.089 226.782 457.856 226.663C457.624 226.545 457.337 226.485 456.995 226.485C456.676 226.485 456.396 226.54 456.154 226.649C455.917 226.759 455.73 226.902 455.594 227.08C455.462 227.258 455.396 227.449 455.396 227.654H454.131C454.131 227.39 454.199 227.128 454.336 226.868C454.473 226.608 454.669 226.374 454.924 226.164C455.184 225.95 455.493 225.781 455.854 225.658C456.218 225.531 456.624 225.467 457.07 225.467C457.608 225.467 458.082 225.558 458.492 225.74C458.907 225.923 459.23 226.198 459.463 226.567C459.7 226.932 459.818 227.39 459.818 227.941V231.387C459.818 231.633 459.839 231.895 459.88 232.173C459.925 232.451 459.992 232.69 460.078 232.891V233H458.759C458.695 232.854 458.645 232.66 458.608 232.419C458.572 232.173 458.554 231.945 458.554 231.735ZM458.772 228.516L458.786 229.404H457.508C457.148 229.404 456.826 229.434 456.544 229.493C456.261 229.548 456.024 229.632 455.833 229.746C455.642 229.86 455.496 230.004 455.396 230.177C455.295 230.345 455.245 230.544 455.245 230.771C455.245 231.004 455.298 231.216 455.402 231.407C455.507 231.599 455.664 231.751 455.874 231.865C456.088 231.975 456.35 232.029 456.66 232.029C457.048 232.029 457.389 231.947 457.686 231.783C457.982 231.619 458.216 231.419 458.39 231.182C458.567 230.945 458.663 230.715 458.677 230.491L459.217 231.1C459.185 231.291 459.098 231.503 458.957 231.735C458.816 231.968 458.627 232.191 458.39 232.405C458.157 232.615 457.879 232.79 457.556 232.932C457.237 233.068 456.877 233.137 456.476 233.137C455.974 233.137 455.535 233.039 455.156 232.843C454.783 232.647 454.491 232.385 454.281 232.057C454.076 231.724 453.974 231.353 453.974 230.942C453.974 230.546 454.051 230.197 454.206 229.896C454.361 229.591 454.584 229.338 454.876 229.138C455.168 228.933 455.519 228.778 455.929 228.673C456.339 228.568 456.797 228.516 457.303 228.516H458.772ZM463.141 225.604H464.405L464.296 228.372C464.269 229.074 464.189 229.68 464.057 230.19C463.924 230.701 463.756 231.136 463.551 231.496C463.346 231.852 463.116 232.15 462.86 232.392C462.61 232.633 462.35 232.836 462.081 233H461.452L461.486 231.968L461.746 231.961C461.896 231.783 462.042 231.601 462.184 231.414C462.325 231.223 462.455 230.997 462.573 230.737C462.692 230.473 462.79 230.152 462.867 229.773C462.949 229.391 463.002 228.924 463.024 228.372L463.141 225.604ZM463.455 225.604H467.905V233H466.641V226.772H463.455V225.604ZM461.165 231.961H468.855V235.181H467.591V233H462.43V235.181H461.158L461.165 231.961ZM474.618 231.735V227.928C474.618 227.636 474.559 227.383 474.44 227.169C474.326 226.95 474.153 226.782 473.921 226.663C473.688 226.545 473.401 226.485 473.06 226.485C472.741 226.485 472.46 226.54 472.219 226.649C471.982 226.759 471.795 226.902 471.658 227.08C471.526 227.258 471.46 227.449 471.46 227.654H470.195C470.195 227.39 470.264 227.128 470.4 226.868C470.537 226.608 470.733 226.374 470.988 226.164C471.248 225.95 471.558 225.781 471.918 225.658C472.283 225.531 472.688 225.467 473.135 225.467C473.673 225.467 474.146 225.558 474.557 225.74C474.971 225.923 475.295 226.198 475.527 226.567C475.764 226.932 475.883 227.39 475.883 227.941V231.387C475.883 231.633 475.903 231.895 475.944 232.173C475.99 232.451 476.056 232.69 476.143 232.891V233H474.823C474.759 232.854 474.709 232.66 474.673 232.419C474.636 232.173 474.618 231.945 474.618 231.735ZM474.837 228.516L474.851 229.404H473.572C473.212 229.404 472.891 229.434 472.608 229.493C472.326 229.548 472.089 229.632 471.897 229.746C471.706 229.86 471.56 230.004 471.46 230.177C471.36 230.345 471.31 230.544 471.31 230.771C471.31 231.004 471.362 231.216 471.467 231.407C471.572 231.599 471.729 231.751 471.938 231.865C472.153 231.975 472.415 232.029 472.725 232.029C473.112 232.029 473.454 231.947 473.75 231.783C474.046 231.619 474.281 231.419 474.454 231.182C474.632 230.945 474.728 230.715 474.741 230.491L475.281 231.1C475.249 231.291 475.163 231.503 475.021 231.735C474.88 231.968 474.691 232.191 474.454 232.405C474.222 232.615 473.944 232.79 473.62 232.932C473.301 233.068 472.941 233.137 472.54 233.137C472.039 233.137 471.599 233.039 471.221 232.843C470.847 232.647 470.555 232.385 470.346 232.057C470.141 231.724 470.038 231.353 470.038 230.942C470.038 230.546 470.116 230.197 470.271 229.896C470.425 229.591 470.649 229.338 470.94 229.138C471.232 228.933 471.583 228.778 471.993 228.673C472.403 228.568 472.861 228.516 473.367 228.516H474.837ZM483.45 225.604V233H482.186V225.604H483.45ZM483.02 229.001V230.04C482.764 230.136 482.505 230.222 482.24 230.3C481.98 230.373 481.705 230.432 481.413 230.478C481.126 230.519 480.814 230.539 480.477 230.539C479.893 230.539 479.387 230.439 478.959 230.238C478.531 230.033 478.2 229.726 477.968 229.315C477.735 228.901 477.619 228.379 477.619 227.75V225.59H478.884V227.75C478.884 228.16 478.945 228.493 479.068 228.748C479.191 229.003 479.371 229.192 479.608 229.315C479.845 229.434 480.135 229.493 480.477 229.493C480.805 229.493 481.112 229.473 481.399 229.432C481.691 229.386 481.969 229.327 482.233 229.254C482.502 229.181 482.764 229.097 483.02 229.001ZM488.557 233.137C488.042 233.137 487.575 233.05 487.155 232.877C486.741 232.699 486.383 232.451 486.082 232.132C485.786 231.813 485.558 231.435 485.398 230.997C485.239 230.56 485.159 230.081 485.159 229.562V229.274C485.159 228.673 485.248 228.137 485.426 227.668C485.604 227.194 485.845 226.793 486.15 226.465C486.456 226.137 486.802 225.888 487.189 225.72C487.577 225.551 487.978 225.467 488.393 225.467C488.921 225.467 489.377 225.558 489.76 225.74C490.147 225.923 490.464 226.178 490.71 226.506C490.956 226.829 491.138 227.212 491.257 227.654C491.375 228.092 491.435 228.57 491.435 229.09V229.657H485.911V228.625H490.17V228.529C490.152 228.201 490.083 227.882 489.965 227.572C489.851 227.262 489.669 227.007 489.418 226.807C489.167 226.606 488.826 226.506 488.393 226.506C488.105 226.506 487.841 226.567 487.6 226.69C487.358 226.809 487.151 226.987 486.978 227.224C486.804 227.461 486.67 227.75 486.574 228.092C486.479 228.434 486.431 228.828 486.431 229.274V229.562C486.431 229.912 486.479 230.243 486.574 230.553C486.674 230.858 486.818 231.127 487.005 231.359C487.196 231.592 487.426 231.774 487.695 231.906C487.969 232.038 488.279 232.104 488.625 232.104C489.072 232.104 489.45 232.013 489.76 231.831C490.07 231.649 490.341 231.405 490.573 231.1L491.339 231.708C491.179 231.95 490.977 232.18 490.73 232.398C490.484 232.617 490.181 232.795 489.821 232.932C489.466 233.068 489.044 233.137 488.557 233.137ZM497.163 231.318L499.679 225.604H500.896L497.601 233H496.726L493.444 225.604H494.661L497.163 231.318ZM494.292 225.604V233H493.027V225.604H494.292ZM499.993 233V225.604H501.265V233H499.993ZM512.106 233V234.039H505.838V233H512.106ZM518.423 233V234.039H512.154V233H518.423ZM524.739 233V234.039H518.471V233H524.739ZM531.056 233V234.039H524.787V233H531.056ZM537.372 233V234.039H531.104V233H537.372ZM543.688 233V234.039H537.42V233H543.688ZM550.005 233V234.039H543.736V233H550.005ZM556.321 233V234.039H550.053V233H556.321ZM562.638 233V234.039H556.369V233H562.638ZM568.954 233V234.039H562.686V233H568.954ZM575.271 233V234.039H569.002V233H575.271ZM581.587 233V234.039H575.318V233H581.587ZM587.903 233V234.039H581.635V233H587.903ZM594.22 233V234.039H587.951V233H594.22ZM600.536 233V234.039H594.268V233H600.536ZM606.853 233V234.039H600.584V233H606.853ZM613.169 233V234.039H606.9V233H613.169ZM619.485 233V234.039H613.217V233H619.485ZM625.802 233V234.039H619.533V233H625.802ZM632.118 233V234.039H625.85V233H632.118ZM638.435 233V234.039H632.166V233H638.435ZM644.751 233V234.039H638.482V233H644.751ZM651.067 233V234.039H644.799V233H651.067ZM657.384 233V234.039H651.115V233H657.384ZM663.7 233V234.039H657.432V233H663.7ZM670.017 233V234.039H663.748V233H670.017ZM676.333 233V234.039H670.064V233H676.333ZM682.649 233V234.039H676.381V233H682.649ZM688.966 233V234.039H682.697V233H688.966ZM695.282 233V234.039H689.014V233H695.282ZM701.599 233V234.039H695.33V233H701.599ZM707.915 233V234.039H701.646V233H707.915ZM714.231 233V234.039H707.963V233H714.231ZM720.548 233V234.039H714.279V233H720.548ZM214.982 295.927V297H207.449V295.927H214.982ZM207.661 295.927V299.447H206.355L206.349 295.927H207.661ZM216.131 295.927L216.117 299.44H214.812V295.927H216.131ZM213.69 287.047V288.127H209.329V287.047H213.69ZM214.825 287.047V297H213.513V287.047H214.825ZM208.878 287.047H210.197L209.992 291.053C209.965 291.654 209.908 292.21 209.821 292.721C209.735 293.227 209.628 293.689 209.5 294.108C209.372 294.528 209.227 294.904 209.062 295.236C208.898 295.564 208.723 295.849 208.536 296.091C208.349 296.328 208.153 296.524 207.948 296.679C207.748 296.829 207.545 296.936 207.34 297H206.738V295.927H207.162C207.281 295.799 207.415 295.615 207.565 295.373C207.72 295.132 207.873 294.819 208.023 294.437C208.178 294.049 208.313 293.577 208.427 293.021C208.545 292.465 208.625 291.809 208.666 291.053L208.878 287.047ZM221.853 295.735V291.928C221.853 291.636 221.793 291.383 221.675 291.169C221.561 290.95 221.388 290.782 221.155 290.663C220.923 290.545 220.636 290.485 220.294 290.485C219.975 290.485 219.695 290.54 219.453 290.649C219.216 290.759 219.029 290.902 218.893 291.08C218.76 291.258 218.694 291.449 218.694 291.654H217.43C217.43 291.39 217.498 291.128 217.635 290.868C217.771 290.608 217.967 290.374 218.223 290.164C218.482 289.95 218.792 289.781 219.152 289.658C219.517 289.531 219.923 289.467 220.369 289.467C220.907 289.467 221.381 289.558 221.791 289.74C222.206 289.923 222.529 290.198 222.762 290.567C222.999 290.932 223.117 291.39 223.117 291.941V295.387C223.117 295.633 223.138 295.895 223.179 296.173C223.224 296.451 223.29 296.69 223.377 296.891V297H222.058C221.994 296.854 221.944 296.66 221.907 296.419C221.871 296.173 221.853 295.945 221.853 295.735ZM222.071 292.516L222.085 293.404H220.807C220.447 293.404 220.125 293.434 219.843 293.493C219.56 293.548 219.323 293.632 219.132 293.746C218.94 293.86 218.795 294.004 218.694 294.177C218.594 294.345 218.544 294.544 218.544 294.771C218.544 295.004 218.596 295.216 218.701 295.407C218.806 295.599 218.963 295.751 219.173 295.865C219.387 295.975 219.649 296.029 219.959 296.029C220.346 296.029 220.688 295.947 220.984 295.783C221.281 295.619 221.515 295.419 221.688 295.182C221.866 294.945 221.962 294.715 221.976 294.491L222.516 295.1C222.484 295.291 222.397 295.503 222.256 295.735C222.115 295.968 221.925 296.191 221.688 296.405C221.456 296.615 221.178 296.79 220.854 296.932C220.535 297.068 220.175 297.137 219.774 297.137C219.273 297.137 218.833 297.039 218.455 296.843C218.081 296.647 217.79 296.385 217.58 296.057C217.375 295.724 217.272 295.353 217.272 294.942C217.272 294.546 217.35 294.197 217.505 293.896C217.66 293.591 217.883 293.338 218.175 293.138C218.466 292.933 218.817 292.778 219.228 292.673C219.638 292.568 220.096 292.516 220.602 292.516H222.071ZM228.012 289.604V297H226.74V289.604H228.012ZM230.493 289.604V290.629H224.307V289.604H230.493ZM235.989 295.735V291.928C235.989 291.636 235.93 291.383 235.812 291.169C235.698 290.95 235.524 290.782 235.292 290.663C235.06 290.545 234.772 290.485 234.431 290.485C234.112 290.485 233.831 290.54 233.59 290.649C233.353 290.759 233.166 290.902 233.029 291.08C232.897 291.258 232.831 291.449 232.831 291.654H231.566C231.566 291.39 231.635 291.128 231.771 290.868C231.908 290.608 232.104 290.374 232.359 290.164C232.619 289.95 232.929 289.781 233.289 289.658C233.654 289.531 234.059 289.467 234.506 289.467C235.044 289.467 235.518 289.558 235.928 289.74C236.342 289.923 236.666 290.198 236.898 290.567C237.135 290.932 237.254 291.39 237.254 291.941V295.387C237.254 295.633 237.274 295.895 237.315 296.173C237.361 296.451 237.427 296.69 237.514 296.891V297H236.194C236.131 296.854 236.08 296.66 236.044 296.419C236.007 296.173 235.989 295.945 235.989 295.735ZM236.208 292.516L236.222 293.404H234.943C234.583 293.404 234.262 293.434 233.979 293.493C233.697 293.548 233.46 293.632 233.269 293.746C233.077 293.86 232.931 294.004 232.831 294.177C232.731 294.345 232.681 294.544 232.681 294.771C232.681 295.004 232.733 295.216 232.838 295.407C232.943 295.599 233.1 295.751 233.31 295.865C233.524 295.975 233.786 296.029 234.096 296.029C234.483 296.029 234.825 295.947 235.121 295.783C235.417 295.619 235.652 295.419 235.825 295.182C236.003 294.945 236.099 294.715 236.112 294.491L236.652 295.1C236.62 295.291 236.534 295.503 236.393 295.735C236.251 295.968 236.062 296.191 235.825 296.405C235.593 296.615 235.315 296.79 234.991 296.932C234.672 297.068 234.312 297.137 233.911 297.137C233.41 297.137 232.97 297.039 232.592 296.843C232.218 296.647 231.926 296.385 231.717 296.057C231.512 295.724 231.409 295.353 231.409 294.942C231.409 294.546 231.487 294.197 231.642 293.896C231.797 293.591 232.02 293.338 232.312 293.138C232.603 292.933 232.954 292.778 233.364 292.673C233.774 292.568 234.232 292.516 234.738 292.516H236.208ZM251.521 297V298.039H245.252V297H251.521ZM257.837 297V298.039H251.568V297H257.837ZM264.153 297V298.039H257.885V297H264.153ZM270.47 297V298.039H264.201V297H270.47ZM276.786 297V298.039H270.518V297H276.786ZM283.103 297V298.039H276.834V297H283.103ZM289.419 297V298.039H283.15V297H289.419ZM295.735 297V298.039H289.467V297H295.735ZM302.052 297V298.039H295.783V297H302.052ZM308.368 297V298.039H302.1V297H308.368ZM328.288 287.047V297H326.969V287.047H328.288ZM334.42 287.047L330.1 292.522H327.762L327.557 291.429H329.313L332.786 287.047H334.42ZM333.094 297L329.354 292.352L330.093 291.196L334.707 297H333.094ZM337.086 289.604V297H335.814V289.604H337.086ZM335.719 287.642C335.719 287.437 335.78 287.263 335.903 287.122C336.031 286.981 336.218 286.91 336.464 286.91C336.705 286.91 336.89 286.981 337.018 287.122C337.15 287.263 337.216 287.437 337.216 287.642C337.216 287.838 337.15 288.006 337.018 288.147C336.89 288.284 336.705 288.353 336.464 288.353C336.218 288.353 336.031 288.284 335.903 288.147C335.78 288.006 335.719 287.838 335.719 287.642ZM344.059 289.604V290.649H340.483V289.604H344.059ZM345.173 289.604V297H343.908V289.604H345.173ZM340.176 289.604H341.447L341.256 293.172C341.224 293.723 341.172 294.211 341.099 294.635C341.03 295.054 340.935 295.414 340.812 295.715C340.693 296.016 340.543 296.262 340.36 296.453C340.183 296.64 339.968 296.779 339.718 296.87C339.467 296.957 339.178 297 338.85 297H338.453V295.886L338.727 295.865C338.923 295.852 339.089 295.806 339.226 295.729C339.367 295.651 339.485 295.537 339.581 295.387C339.677 295.232 339.754 295.034 339.813 294.792C339.877 294.55 339.925 294.263 339.957 293.931C339.993 293.598 340.021 293.211 340.039 292.769L340.176 289.604ZM348.249 292.146H350.471C351.068 292.146 351.571 292.251 351.981 292.461C352.392 292.666 352.701 292.951 352.911 293.315C353.125 293.675 353.232 294.086 353.232 294.546C353.232 294.888 353.173 295.209 353.055 295.51C352.936 295.806 352.758 296.066 352.521 296.289C352.289 296.512 352 296.688 351.653 296.815C351.312 296.938 350.917 297 350.471 297H347.326V289.604H348.591V295.961H350.471C350.835 295.961 351.127 295.895 351.346 295.763C351.564 295.631 351.722 295.46 351.817 295.25C351.913 295.04 351.961 294.822 351.961 294.594C351.961 294.37 351.913 294.152 351.817 293.938C351.722 293.723 351.564 293.546 351.346 293.404C351.127 293.258 350.835 293.186 350.471 293.186H348.249V292.146ZM356.186 289.604V297H354.921V289.604H356.186ZM361.039 289.604L357.532 293.842H355.762L355.57 292.734H357.02L359.501 289.604H361.039ZM359.679 297L356.958 293.65L357.771 292.734L361.285 297H359.679ZM363.76 289.604V297H362.488V289.604H363.76ZM362.393 287.642C362.393 287.437 362.454 287.263 362.577 287.122C362.705 286.981 362.892 286.91 363.138 286.91C363.379 286.91 363.564 286.981 363.691 287.122C363.824 287.263 363.89 287.437 363.89 287.642C363.89 287.838 363.824 288.006 363.691 288.147C363.564 288.284 363.379 288.353 363.138 288.353C362.892 288.353 362.705 288.284 362.577 288.147C362.454 288.006 362.393 287.838 362.393 287.642ZM368.75 296.098C369.051 296.098 369.329 296.036 369.584 295.913C369.839 295.79 370.049 295.621 370.213 295.407C370.377 295.188 370.47 294.94 370.493 294.662H371.696C371.674 295.1 371.525 295.507 371.252 295.886C370.983 296.259 370.63 296.562 370.192 296.795C369.755 297.023 369.274 297.137 368.75 297.137C368.194 297.137 367.709 297.039 367.294 296.843C366.884 296.647 366.542 296.378 366.269 296.036C366 295.694 365.797 295.302 365.66 294.86C365.528 294.414 365.462 293.942 365.462 293.445V293.158C365.462 292.661 365.528 292.192 365.66 291.75C365.797 291.303 366 290.909 366.269 290.567C366.542 290.226 366.884 289.957 367.294 289.761C367.709 289.565 368.194 289.467 368.75 289.467C369.329 289.467 369.835 289.585 370.268 289.822C370.701 290.055 371.04 290.374 371.286 290.779C371.537 291.18 371.674 291.636 371.696 292.146H370.493C370.47 291.841 370.384 291.565 370.233 291.319C370.088 291.073 369.887 290.877 369.632 290.731C369.381 290.581 369.087 290.506 368.75 290.506C368.363 290.506 368.037 290.583 367.772 290.738C367.513 290.889 367.305 291.094 367.15 291.354C367 291.609 366.891 291.894 366.822 292.208C366.758 292.518 366.727 292.835 366.727 293.158V293.445C366.727 293.769 366.758 294.088 366.822 294.402C366.886 294.717 366.993 295.002 367.144 295.257C367.299 295.512 367.506 295.717 367.766 295.872C368.03 296.022 368.358 296.098 368.75 296.098ZM376.133 289.604V297H374.861V289.604H376.133ZM378.614 289.604V290.629H372.428V289.604H378.614ZM380.897 292.146H383.119C383.716 292.146 384.22 292.251 384.63 292.461C385.04 292.666 385.35 292.951 385.56 293.315C385.774 293.675 385.881 294.086 385.881 294.546C385.881 294.888 385.822 295.209 385.703 295.51C385.585 295.806 385.407 296.066 385.17 296.289C384.938 296.512 384.648 296.688 384.302 296.815C383.96 296.938 383.566 297 383.119 297H379.975V289.604H381.239V295.961H383.119C383.484 295.961 383.775 295.895 383.994 295.763C384.213 295.631 384.37 295.46 384.466 295.25C384.562 295.04 384.609 294.822 384.609 294.594C384.609 294.37 384.562 294.152 384.466 293.938C384.37 293.723 384.213 293.546 383.994 293.404C383.775 293.258 383.484 293.186 383.119 293.186H380.897V292.146ZM395.711 289.604V290.649H392.293V297H391.028V289.604H395.711ZM396.34 293.384V293.227C396.34 292.693 396.417 292.199 396.572 291.743C396.727 291.283 396.951 290.884 397.242 290.547C397.534 290.205 397.887 289.941 398.302 289.754C398.716 289.562 399.181 289.467 399.696 289.467C400.216 289.467 400.683 289.562 401.098 289.754C401.517 289.941 401.872 290.205 402.164 290.547C402.46 290.884 402.686 291.283 402.841 291.743C402.996 292.199 403.073 292.693 403.073 293.227V293.384C403.073 293.917 402.996 294.411 402.841 294.867C402.686 295.323 402.46 295.722 402.164 296.063C401.872 296.401 401.519 296.665 401.104 296.856C400.694 297.043 400.229 297.137 399.71 297.137C399.19 297.137 398.723 297.043 398.309 296.856C397.894 296.665 397.538 296.401 397.242 296.063C396.951 295.722 396.727 295.323 396.572 294.867C396.417 294.411 396.34 293.917 396.34 293.384ZM397.604 293.227V293.384C397.604 293.753 397.648 294.102 397.734 294.43C397.821 294.753 397.951 295.04 398.124 295.291C398.302 295.542 398.523 295.74 398.787 295.886C399.051 296.027 399.359 296.098 399.71 296.098C400.056 296.098 400.359 296.027 400.619 295.886C400.883 295.74 401.102 295.542 401.275 295.291C401.449 295.04 401.578 294.753 401.665 294.43C401.756 294.102 401.802 293.753 401.802 293.384V293.227C401.802 292.862 401.756 292.518 401.665 292.194C401.578 291.866 401.446 291.577 401.269 291.326C401.095 291.071 400.877 290.87 400.612 290.725C400.353 290.579 400.047 290.506 399.696 290.506C399.35 290.506 399.045 290.579 398.78 290.725C398.521 290.87 398.302 291.071 398.124 291.326C397.951 291.577 397.821 291.866 397.734 292.194C397.648 292.518 397.604 292.862 397.604 293.227ZM405.5 289.604H406.765L406.655 292.372C406.628 293.074 406.548 293.68 406.416 294.19C406.284 294.701 406.115 295.136 405.91 295.496C405.705 295.852 405.475 296.15 405.22 296.392C404.969 296.633 404.709 296.836 404.44 297H403.812L403.846 295.968L404.105 295.961C404.256 295.783 404.402 295.601 404.543 295.414C404.684 295.223 404.814 294.997 404.933 294.737C405.051 294.473 405.149 294.152 405.227 293.773C405.309 293.391 405.361 292.924 405.384 292.372L405.5 289.604ZM405.814 289.604H410.265V297H409V290.772H405.814V289.604ZM403.524 295.961H411.215V299.181H409.95V297H404.789V299.181H403.518L403.524 295.961ZM412.637 296.33C412.637 296.116 412.703 295.936 412.835 295.79C412.972 295.64 413.168 295.564 413.423 295.564C413.678 295.564 413.872 295.64 414.004 295.79C414.141 295.936 414.209 296.116 414.209 296.33C414.209 296.54 414.141 296.717 414.004 296.863C413.872 297.009 413.678 297.082 413.423 297.082C413.168 297.082 412.972 297.009 412.835 296.863C412.703 296.717 412.637 296.54 412.637 296.33ZM425.112 297V298.039H418.844V297H425.112ZM431.429 297V298.039H425.16V297H431.429ZM437.745 297V298.039H431.477V297H437.745ZM444.062 297V298.039H437.793V297H444.062ZM450.378 297V298.039H444.109V297H450.378ZM456.694 297V298.039H450.426V297H456.694ZM463.011 297V298.039H456.742V297H463.011ZM469.327 297V298.039H463.059V297H469.327ZM475.644 297V298.039H469.375V297H475.644ZM481.96 297V298.039H475.691V297H481.96ZM488.276 297V298.039H482.008V297H488.276ZM494.593 297V298.039H488.324V297H494.593ZM500.909 297V298.039H494.641V297H500.909Z" fill="black"/>
</svg>
