<svg width="750" height="401" viewBox="0 0 750 401" fill="none" xmlns="http://www.w3.org/2000/svg">
<rect x="0.134186" y="4.57764e-05" width="749.866" height="400" fill="#E1DDDD"/>
<path d="M0.134205 300.257L0.134214 0.0404608L99.9865 -7.35225e-06L0.134205 300.257Z" fill="#0A0909"/>
<path d="M0.634276 300.338L84.6347 47.7184L144.701 108.578L0.634334 319.717L0.634276 300.338Z" fill="#AFB133" stroke="#A2A44A"/>
<path d="M156.709 196.345H154.187L154.173 195.285H156.463C156.842 195.285 157.172 195.221 157.455 195.094C157.737 194.966 157.956 194.784 158.111 194.547C158.27 194.305 158.35 194.018 158.35 193.686C158.35 193.321 158.279 193.025 158.138 192.797C158.001 192.564 157.79 192.396 157.502 192.291C157.22 192.182 156.86 192.127 156.422 192.127H154.481V201H153.162V191.047H156.422C156.933 191.047 157.389 191.099 157.79 191.204C158.191 191.304 158.53 191.464 158.808 191.683C159.091 191.897 159.305 192.17 159.451 192.503C159.597 192.836 159.669 193.234 159.669 193.699C159.669 194.109 159.565 194.481 159.355 194.813C159.145 195.142 158.854 195.41 158.48 195.62C158.111 195.83 157.678 195.964 157.181 196.023L156.709 196.345ZM156.648 201H153.667L154.413 199.927H156.648C157.067 199.927 157.423 199.854 157.714 199.708C158.011 199.562 158.236 199.357 158.391 199.093C158.546 198.824 158.624 198.507 158.624 198.143C158.624 197.773 158.557 197.454 158.425 197.186C158.293 196.917 158.086 196.709 157.803 196.563C157.521 196.418 157.156 196.345 156.709 196.345H154.83L154.843 195.285H157.414L157.694 195.668C158.172 195.709 158.578 195.846 158.911 196.078C159.243 196.306 159.496 196.598 159.669 196.953C159.847 197.309 159.936 197.701 159.936 198.129C159.936 198.749 159.799 199.273 159.526 199.701C159.257 200.125 158.876 200.449 158.384 200.672C157.892 200.891 157.313 201 156.648 201ZM163.06 198.997L166.471 193.604H167.743V201H166.471V195.606L163.06 201H161.802V193.604H163.06V198.997ZM171.106 193.604H172.371L172.261 196.372C172.234 197.074 172.154 197.68 172.022 198.19C171.89 198.701 171.721 199.136 171.516 199.496C171.311 199.852 171.081 200.15 170.826 200.392C170.575 200.633 170.315 200.836 170.046 201H169.417L169.452 199.968L169.711 199.961C169.862 199.783 170.008 199.601 170.149 199.414C170.29 199.223 170.42 198.997 170.539 198.737C170.657 198.473 170.755 198.152 170.833 197.773C170.915 197.391 170.967 196.924 170.99 196.372L171.106 193.604ZM171.42 193.604H175.871V201H174.606V194.772H171.42V193.604ZM169.13 199.961H176.821V203.181H175.556V201H170.395V203.181H169.124L169.13 199.961ZM182.583 199.735V195.928C182.583 195.636 182.524 195.383 182.406 195.169C182.292 194.95 182.119 194.782 181.886 194.663C181.654 194.545 181.367 194.485 181.025 194.485C180.706 194.485 180.426 194.54 180.184 194.649C179.947 194.759 179.76 194.902 179.624 195.08C179.491 195.258 179.425 195.449 179.425 195.654H178.161C178.161 195.39 178.229 195.128 178.366 194.868C178.502 194.608 178.698 194.374 178.954 194.164C179.213 193.95 179.523 193.781 179.883 193.658C180.248 193.531 180.653 193.467 181.1 193.467C181.638 193.467 182.112 193.558 182.522 193.74C182.937 193.923 183.26 194.198 183.493 194.567C183.73 194.932 183.848 195.39 183.848 195.941V199.387C183.848 199.633 183.869 199.895 183.91 200.173C183.955 200.451 184.021 200.69 184.108 200.891V201H182.789C182.725 200.854 182.675 200.66 182.638 200.419C182.602 200.173 182.583 199.945 182.583 199.735ZM182.802 196.516L182.816 197.404H181.538C181.178 197.404 180.856 197.434 180.574 197.493C180.291 197.548 180.054 197.632 179.863 197.746C179.671 197.86 179.526 198.004 179.425 198.177C179.325 198.345 179.275 198.544 179.275 198.771C179.275 199.004 179.327 199.216 179.432 199.407C179.537 199.599 179.694 199.751 179.904 199.865C180.118 199.975 180.38 200.029 180.69 200.029C181.077 200.029 181.419 199.947 181.715 199.783C182.012 199.619 182.246 199.419 182.419 199.182C182.597 198.945 182.693 198.715 182.707 198.491L183.247 199.1C183.215 199.291 183.128 199.503 182.987 199.735C182.846 199.968 182.656 200.191 182.419 200.405C182.187 200.615 181.909 200.79 181.585 200.932C181.266 201.068 180.906 201.137 180.505 201.137C180.004 201.137 179.564 201.039 179.186 200.843C178.812 200.647 178.521 200.385 178.311 200.057C178.106 199.724 178.003 199.353 178.003 198.942C178.003 198.546 178.081 198.197 178.236 197.896C178.391 197.591 178.614 197.338 178.906 197.138C179.197 196.933 179.548 196.778 179.958 196.673C180.369 196.568 180.827 196.516 181.333 196.516H182.802ZM190.855 196.81V197.835H186.945V196.81H190.855ZM187.211 193.604V201H185.947V193.604H187.211ZM191.88 193.604V201H190.609V193.604H191.88ZM195.285 198.997L198.696 193.604H199.967V201H198.696V195.606L195.285 201H194.027V193.604H195.285V198.997ZM203.365 198.997L206.776 193.604H208.047V201H206.776V195.606L203.365 201H202.107V193.604H203.365V198.997ZM206.085 190.924H207.111C207.111 191.279 207.029 191.596 206.865 191.874C206.701 192.147 206.466 192.362 206.161 192.517C205.855 192.672 205.493 192.749 205.074 192.749C204.44 192.749 203.939 192.58 203.57 192.243C203.205 191.901 203.023 191.462 203.023 190.924H204.048C204.048 191.193 204.126 191.43 204.281 191.635C204.436 191.84 204.7 191.942 205.074 191.942C205.438 191.942 205.698 191.84 205.853 191.635C206.008 191.43 206.085 191.193 206.085 190.924ZM218.882 201V202.039H212.614V201H218.882ZM225.199 201V202.039H218.93V201H225.199ZM231.515 201V202.039H225.247V201H231.515ZM237.832 201V202.039H231.563V201H237.832ZM244.148 201V202.039H237.879V201H244.148ZM250.464 201V202.039H244.196V201H250.464ZM256.781 201V202.039H250.512V201H256.781ZM263.097 201V202.039H256.829V201H263.097ZM269.414 201V202.039H263.145V201H269.414ZM275.73 201V202.039H269.461V201H275.73ZM282.046 201V202.039H275.778V201H282.046ZM288.363 201V202.039H282.094V201H288.363ZM294.679 201V202.039H288.411V201H294.679ZM300.996 201V202.039H294.727V201H300.996ZM307.312 201V202.039H301.043V201H307.312ZM313.628 201V202.039H307.36V201H313.628ZM319.945 201V202.039H313.676V201H319.945ZM326.261 201V202.039H319.993V201H326.261ZM332.578 201V202.039H326.309V201H332.578ZM338.894 201V202.039H332.625V201H338.894ZM345.21 201V202.039H338.942V201H345.21ZM351.527 201V202.039H345.258V201H351.527ZM357.843 201V202.039H351.575V201H357.843ZM364.16 201V202.039H357.891V201H364.16ZM370.476 201V202.039H364.208V201H370.476ZM376.792 201V202.039H370.524V201H376.792ZM383.109 201V202.039H376.84V201H383.109ZM389.425 201V202.039H383.157V201H389.425ZM395.742 201V202.039H389.473V201H395.742ZM402.058 201V202.039H395.79V201H402.058ZM408.375 201V202.039H402.106V201H408.375ZM414.691 201V202.039H408.422V201H414.691ZM421.007 201V202.039H414.739V201H421.007ZM427.324 201V202.039H421.055V201H427.324ZM433.64 201V202.039H427.372V201H433.64ZM439.957 201V202.039H433.688V201H439.957ZM446.273 201V202.039H440.004V201H446.273ZM452.589 201V202.039H446.321V201H452.589ZM458.906 201V202.039H452.637V201H458.906ZM465.222 201V202.039H458.954V201H465.222ZM471.539 201V202.039H465.27V201H471.539ZM477.855 201V202.039H471.586V201H477.855ZM484.171 201V202.039H477.903V201H484.171ZM490.488 201V202.039H484.219V201H490.488ZM496.804 201V202.039H490.536V201H496.804ZM503.121 201V202.039H496.852V201H503.121ZM509.437 201V202.039H503.168V201H509.437ZM515.753 201V202.039H509.485V201H515.753ZM522.07 201V202.039H515.801V201H522.07ZM528.386 201V202.039H522.118V201H528.386ZM534.703 201V202.039H528.434V201H534.703ZM114.539 228.222H113.356V227.381H114.491C114.992 227.381 115.398 227.31 115.708 227.169C116.017 227.028 116.243 226.832 116.384 226.581C116.526 226.33 116.596 226.041 116.596 225.713C116.596 225.398 116.519 225.111 116.364 224.852C116.209 224.587 115.97 224.378 115.646 224.223C115.322 224.063 114.905 223.983 114.395 223.983C114.012 223.983 113.666 224.056 113.356 224.202C113.046 224.343 112.8 224.542 112.618 224.797C112.435 225.048 112.344 225.337 112.344 225.665H111.025C111.025 225.241 111.114 224.861 111.292 224.523C111.469 224.182 111.713 223.892 112.023 223.655C112.333 223.414 112.691 223.229 113.096 223.102C113.506 222.974 113.939 222.91 114.395 222.91C114.928 222.91 115.411 222.972 115.844 223.095C116.277 223.213 116.649 223.391 116.958 223.628C117.268 223.865 117.505 224.159 117.669 224.51C117.833 224.861 117.916 225.269 117.916 225.733C117.916 226.075 117.836 226.396 117.676 226.697C117.517 226.998 117.289 227.262 116.993 227.49C116.696 227.718 116.341 227.898 115.926 228.03C115.512 228.158 115.049 228.222 114.539 228.222ZM113.356 227.641H114.539C115.099 227.641 115.598 227.698 116.036 227.812C116.473 227.925 116.842 228.092 117.143 228.311C117.444 228.529 117.672 228.8 117.827 229.124C117.986 229.443 118.066 229.81 118.066 230.225C118.066 230.689 117.975 231.102 117.792 231.462C117.615 231.822 117.362 232.127 117.034 232.378C116.706 232.629 116.316 232.818 115.865 232.945C115.418 233.073 114.928 233.137 114.395 233.137C113.967 233.137 113.543 233.082 113.124 232.973C112.709 232.859 112.333 232.686 111.996 232.453C111.658 232.216 111.387 231.915 111.182 231.551C110.982 231.186 110.881 230.749 110.881 230.238H112.201C112.201 230.571 112.292 230.876 112.474 231.154C112.661 231.432 112.918 231.656 113.247 231.824C113.575 231.988 113.958 232.07 114.395 232.07C114.896 232.07 115.32 231.993 115.667 231.838C116.017 231.678 116.284 231.462 116.466 231.188C116.653 230.91 116.747 230.598 116.747 230.252C116.747 229.947 116.696 229.682 116.596 229.459C116.5 229.231 116.357 229.044 116.166 228.898C115.979 228.753 115.744 228.646 115.461 228.577C115.183 228.504 114.86 228.468 114.491 228.468H113.356V227.641ZM123.972 231.735V227.928C123.972 227.636 123.913 227.383 123.794 227.169C123.681 226.95 123.507 226.782 123.275 226.663C123.042 226.545 122.755 226.485 122.414 226.485C122.095 226.485 121.814 226.54 121.573 226.649C121.336 226.759 121.149 226.902 121.012 227.08C120.88 227.258 120.814 227.449 120.814 227.654H119.549C119.549 227.39 119.618 227.128 119.754 226.868C119.891 226.608 120.087 226.374 120.342 226.164C120.602 225.95 120.912 225.781 121.272 225.658C121.637 225.531 122.042 225.467 122.489 225.467C123.027 225.467 123.5 225.558 123.911 225.74C124.325 225.923 124.649 226.198 124.881 226.567C125.118 226.932 125.237 227.39 125.237 227.941V231.387C125.237 231.633 125.257 231.895 125.298 232.173C125.344 232.451 125.41 232.69 125.497 232.891V233H124.177C124.113 232.854 124.063 232.66 124.027 232.419C123.99 232.173 123.972 231.945 123.972 231.735ZM124.191 228.516L124.205 229.404H122.926C122.566 229.404 122.245 229.434 121.962 229.493C121.68 229.548 121.443 229.632 121.251 229.746C121.06 229.86 120.914 230.004 120.814 230.177C120.714 230.345 120.664 230.544 120.664 230.771C120.664 231.004 120.716 231.216 120.821 231.407C120.926 231.599 121.083 231.751 121.292 231.865C121.507 231.975 121.769 232.029 122.079 232.029C122.466 232.029 122.808 231.947 123.104 231.783C123.4 231.619 123.635 231.419 123.808 231.182C123.986 230.945 124.082 230.715 124.095 230.491L124.635 231.1C124.603 231.291 124.517 231.503 124.375 231.735C124.234 231.968 124.045 232.191 123.808 232.405C123.576 232.615 123.298 232.79 122.974 232.932C122.655 233.068 122.295 233.137 121.894 233.137C121.393 233.137 120.953 233.039 120.575 232.843C120.201 232.647 119.909 232.385 119.7 232.057C119.495 231.724 119.392 231.353 119.392 230.942C119.392 230.546 119.47 230.197 119.625 229.896C119.779 229.591 120.003 229.338 120.294 229.138C120.586 228.933 120.937 228.778 121.347 228.673C121.757 228.568 122.215 228.516 122.721 228.516H124.191ZM132.777 232.234L134.834 225.604H136.188L133.221 234.142C133.153 234.324 133.062 234.52 132.948 234.729C132.838 234.944 132.697 235.146 132.524 235.338C132.351 235.529 132.141 235.684 131.895 235.803C131.653 235.926 131.364 235.987 131.027 235.987C130.927 235.987 130.799 235.974 130.644 235.946C130.489 235.919 130.38 235.896 130.316 235.878L130.309 234.853C130.346 234.857 130.403 234.862 130.48 234.866C130.562 234.875 130.619 234.88 130.651 234.88C130.938 234.88 131.182 234.841 131.382 234.764C131.583 234.691 131.751 234.565 131.888 234.388C132.029 234.215 132.15 233.975 132.25 233.67L132.777 232.234ZM131.266 225.604L133.187 231.346L133.515 232.679L132.606 233.144L129.885 225.604H131.266ZM142.908 225.604V233H141.643V225.604H142.908ZM142.477 229.001V230.04C142.222 230.136 141.962 230.222 141.698 230.3C141.438 230.373 141.162 230.432 140.871 230.478C140.583 230.519 140.271 230.539 139.934 230.539C139.351 230.539 138.845 230.439 138.417 230.238C137.988 230.033 137.658 229.726 137.425 229.315C137.193 228.901 137.077 228.379 137.077 227.75V225.59H138.341V227.75C138.341 228.16 138.403 228.493 138.526 228.748C138.649 229.003 138.829 229.192 139.066 229.315C139.303 229.434 139.592 229.493 139.934 229.493C140.262 229.493 140.57 229.473 140.857 229.432C141.149 229.386 141.427 229.327 141.691 229.254C141.96 229.181 142.222 229.097 142.477 229.001ZM149.306 231.735V227.928C149.306 227.636 149.247 227.383 149.128 227.169C149.014 226.95 148.841 226.782 148.609 226.663C148.376 226.545 148.089 226.485 147.748 226.485C147.429 226.485 147.148 226.54 146.907 226.649C146.67 226.759 146.483 226.902 146.346 227.08C146.214 227.258 146.148 227.449 146.148 227.654H144.883C144.883 227.39 144.952 227.128 145.088 226.868C145.225 226.608 145.421 226.374 145.676 226.164C145.936 225.95 146.246 225.781 146.606 225.658C146.971 225.531 147.376 225.467 147.823 225.467C148.361 225.467 148.834 225.558 149.245 225.74C149.659 225.923 149.983 226.198 150.215 226.567C150.452 226.932 150.571 227.39 150.571 227.941V231.387C150.571 231.633 150.591 231.895 150.632 232.173C150.678 232.451 150.744 232.69 150.831 232.891V233H149.511C149.447 232.854 149.397 232.66 149.361 232.419C149.324 232.173 149.306 231.945 149.306 231.735ZM149.525 228.516L149.539 229.404H148.26C147.9 229.404 147.579 229.434 147.296 229.493C147.014 229.548 146.777 229.632 146.585 229.746C146.394 229.86 146.248 230.004 146.148 230.177C146.048 230.345 145.998 230.544 145.998 230.771C145.998 231.004 146.05 231.216 146.155 231.407C146.26 231.599 146.417 231.751 146.626 231.865C146.841 231.975 147.103 232.029 147.413 232.029C147.8 232.029 148.142 231.947 148.438 231.783C148.734 231.619 148.969 231.419 149.142 231.182C149.32 230.945 149.416 230.715 149.429 230.491L149.969 231.1C149.937 231.291 149.851 231.503 149.709 231.735C149.568 231.968 149.379 232.191 149.142 232.405C148.91 232.615 148.632 232.79 148.308 232.932C147.989 233.068 147.629 233.137 147.228 233.137C146.727 233.137 146.287 233.039 145.909 232.843C145.535 232.647 145.243 232.385 145.034 232.057C144.829 231.724 144.726 231.353 144.726 230.942C144.726 230.546 144.804 230.197 144.958 229.896C145.113 229.591 145.337 229.338 145.628 229.138C145.92 228.933 146.271 228.778 146.681 228.673C147.091 228.568 147.549 228.516 148.055 228.516H149.525ZM155.52 232.098C155.821 232.098 156.099 232.036 156.354 231.913C156.609 231.79 156.819 231.621 156.983 231.407C157.147 231.188 157.24 230.94 157.263 230.662H158.466C158.444 231.1 158.295 231.507 158.022 231.886C157.753 232.259 157.4 232.562 156.962 232.795C156.525 233.023 156.044 233.137 155.52 233.137C154.964 233.137 154.479 233.039 154.064 232.843C153.654 232.647 153.312 232.378 153.039 232.036C152.77 231.694 152.567 231.302 152.43 230.86C152.298 230.414 152.232 229.942 152.232 229.445V229.158C152.232 228.661 152.298 228.192 152.43 227.75C152.567 227.303 152.77 226.909 153.039 226.567C153.312 226.226 153.654 225.957 154.064 225.761C154.479 225.565 154.964 225.467 155.52 225.467C156.099 225.467 156.605 225.585 157.038 225.822C157.471 226.055 157.81 226.374 158.056 226.779C158.307 227.18 158.444 227.636 158.466 228.146H157.263C157.24 227.841 157.154 227.565 157.003 227.319C156.858 227.073 156.657 226.877 156.402 226.731C156.151 226.581 155.857 226.506 155.52 226.506C155.133 226.506 154.807 226.583 154.542 226.738C154.283 226.889 154.075 227.094 153.92 227.354C153.77 227.609 153.661 227.894 153.592 228.208C153.528 228.518 153.497 228.835 153.497 229.158V229.445C153.497 229.769 153.528 230.088 153.592 230.402C153.656 230.717 153.763 231.002 153.914 231.257C154.069 231.512 154.276 231.717 154.536 231.872C154.8 232.022 155.128 232.098 155.52 232.098ZM162.903 225.604V233H161.631V225.604H162.903ZM165.384 225.604V226.629H159.198V225.604H165.384ZM167.667 228.146H169.889C170.486 228.146 170.99 228.251 171.4 228.461C171.81 228.666 172.12 228.951 172.33 229.315C172.544 229.675 172.651 230.086 172.651 230.546C172.651 230.888 172.592 231.209 172.473 231.51C172.355 231.806 172.177 232.066 171.94 232.289C171.708 232.512 171.418 232.688 171.072 232.815C170.73 232.938 170.336 233 169.889 233H166.745V225.604H168.009V231.961H169.889C170.254 231.961 170.545 231.895 170.764 231.763C170.983 231.631 171.14 231.46 171.236 231.25C171.332 231.04 171.379 230.822 171.379 230.594C171.379 230.37 171.332 230.152 171.236 229.938C171.14 229.723 170.983 229.546 170.764 229.404C170.545 229.258 170.254 229.186 169.889 229.186H167.667V228.146ZM179.781 232.234L181.838 225.604H183.192L180.225 234.142C180.157 234.324 180.066 234.52 179.952 234.729C179.842 234.944 179.701 235.146 179.528 235.338C179.355 235.529 179.145 235.684 178.899 235.803C178.657 235.926 178.368 235.987 178.031 235.987C177.931 235.987 177.803 235.974 177.648 235.946C177.493 235.919 177.384 235.896 177.32 235.878L177.313 234.853C177.349 234.857 177.406 234.862 177.484 234.866C177.566 234.875 177.623 234.88 177.655 234.88C177.942 234.88 178.186 234.841 178.386 234.764C178.587 234.691 178.755 234.565 178.892 234.388C179.033 234.215 179.154 233.975 179.254 233.67L179.781 232.234ZM178.27 225.604L180.191 231.346L180.519 232.679L179.61 233.144L176.889 225.604H178.27ZM189.666 233V234.039H183.397V233H189.666ZM195.982 233V234.039H189.713V233H195.982ZM202.298 233V234.039H196.03V233H202.298ZM208.615 233V234.039H202.346V233H208.615ZM214.931 233V234.039H208.663V233H214.931ZM221.248 233V234.039H214.979V233H221.248ZM227.564 233V234.039H221.295V233H227.564ZM233.88 233V234.039H227.612V233H233.88ZM240.197 233V234.039H233.928V233H240.197ZM246.513 233V234.039H240.245V233H246.513ZM252.83 233V234.039H246.561V233H252.83ZM259.146 233V234.039H252.877V233H259.146ZM265.462 233V234.039H259.194V233H265.462ZM271.779 233V234.039H265.51V233H271.779ZM278.095 233V234.039H271.827V233H278.095ZM284.412 233V234.039H278.143V233H284.412ZM290.728 233V234.039H284.459V233H290.728ZM297.044 233V234.039H290.776V233H297.044ZM303.361 233V234.039H297.092V233H303.361ZM309.677 233V234.039H303.409V233H309.677ZM315.994 233V234.039H309.725V233H315.994ZM322.31 233V234.039H316.042V233H322.31ZM330.24 229.746H327.813L327.799 228.734H329.782C330.174 228.734 330.5 228.696 330.759 228.618C331.024 228.541 331.222 228.424 331.354 228.27C331.486 228.115 331.552 227.923 331.552 227.695C331.552 227.518 331.514 227.363 331.436 227.23C331.363 227.094 331.251 226.982 331.101 226.896C330.951 226.804 330.764 226.738 330.541 226.697C330.322 226.652 330.064 226.629 329.768 226.629H328.148V233H326.883V225.604H329.768C330.237 225.604 330.659 225.645 331.033 225.727C331.411 225.809 331.732 225.934 331.997 226.103C332.265 226.267 332.471 226.476 332.612 226.731C332.753 226.987 332.824 227.287 332.824 227.634C332.824 227.857 332.778 228.069 332.687 228.27C332.596 228.47 332.461 228.648 332.284 228.803C332.106 228.958 331.887 229.085 331.627 229.186C331.368 229.281 331.069 229.343 330.732 229.37L330.24 229.746ZM330.24 233H327.355L327.984 231.975H330.24C330.591 231.975 330.882 231.931 331.115 231.845C331.347 231.754 331.52 231.626 331.634 231.462C331.753 231.293 331.812 231.093 331.812 230.86C331.812 230.628 331.753 230.43 331.634 230.266C331.52 230.097 331.347 229.969 331.115 229.883C330.882 229.792 330.591 229.746 330.24 229.746H328.319L328.333 228.734H330.732L331.19 229.117C331.596 229.149 331.94 229.249 332.222 229.418C332.505 229.587 332.719 229.801 332.865 230.061C333.011 230.316 333.083 230.594 333.083 230.895C333.083 231.241 333.017 231.546 332.885 231.811C332.758 232.075 332.571 232.296 332.325 232.474C332.079 232.647 331.78 232.779 331.429 232.87C331.078 232.957 330.682 233 330.24 233ZM336.146 230.997L339.557 225.604H340.829V233H339.557V227.606L336.146 233H334.888V225.604H336.146V230.997ZM344.233 225.604V233H342.968V225.604H344.233ZM349.086 225.604L345.58 229.842H343.809L343.618 228.734H345.067L347.548 225.604H349.086ZM347.726 233L345.005 229.65L345.819 228.734L349.333 233H347.726ZM355.375 225.604V226.649H351.8V225.604H355.375ZM356.49 225.604V233H355.225V225.604H356.49ZM351.493 225.604H352.764L352.573 229.172C352.541 229.723 352.488 230.211 352.416 230.635C352.347 231.054 352.251 231.414 352.128 231.715C352.01 232.016 351.86 232.262 351.677 232.453C351.5 232.64 351.285 232.779 351.035 232.87C350.784 232.957 350.495 233 350.167 233H349.77V231.886L350.043 231.865C350.239 231.852 350.406 231.806 350.542 231.729C350.684 231.651 350.802 231.537 350.898 231.387C350.994 231.232 351.071 231.034 351.13 230.792C351.194 230.55 351.242 230.263 351.274 229.931C351.31 229.598 351.338 229.211 351.356 228.769L351.493 225.604ZM362.888 231.735V227.928C362.888 227.636 362.829 227.383 362.71 227.169C362.597 226.95 362.423 226.782 362.191 226.663C361.958 226.545 361.671 226.485 361.33 226.485C361.011 226.485 360.73 226.54 360.489 226.649C360.252 226.759 360.065 226.902 359.928 227.08C359.796 227.258 359.73 227.449 359.73 227.654H358.465C358.465 227.39 358.534 227.128 358.67 226.868C358.807 226.608 359.003 226.374 359.258 226.164C359.518 225.95 359.828 225.781 360.188 225.658C360.553 225.531 360.958 225.467 361.405 225.467C361.943 225.467 362.417 225.558 362.827 225.74C363.241 225.923 363.565 226.198 363.797 226.567C364.034 226.932 364.153 227.39 364.153 227.941V231.387C364.153 231.633 364.173 231.895 364.214 232.173C364.26 232.451 364.326 232.69 364.413 232.891V233H363.093C363.029 232.854 362.979 232.66 362.943 232.419C362.906 232.173 362.888 231.945 362.888 231.735ZM363.107 228.516L363.121 229.404H361.842C361.482 229.404 361.161 229.434 360.878 229.493C360.596 229.548 360.359 229.632 360.167 229.746C359.976 229.86 359.83 230.004 359.73 230.177C359.63 230.345 359.58 230.544 359.58 230.771C359.58 231.004 359.632 231.216 359.737 231.407C359.842 231.599 359.999 231.751 360.208 231.865C360.423 231.975 360.685 232.029 360.995 232.029C361.382 232.029 361.724 231.947 362.02 231.783C362.316 231.619 362.551 231.419 362.724 231.182C362.902 230.945 362.998 230.715 363.011 230.491L363.551 231.1C363.519 231.291 363.433 231.503 363.292 231.735C363.15 231.968 362.961 232.191 362.724 232.405C362.492 232.615 362.214 232.79 361.89 232.932C361.571 233.068 361.211 233.137 360.81 233.137C360.309 233.137 359.869 233.039 359.491 232.843C359.117 232.647 358.825 232.385 358.616 232.057C358.411 231.724 358.308 231.353 358.308 230.942C358.308 230.546 358.386 230.197 358.541 229.896C358.695 229.591 358.919 229.338 359.21 229.138C359.502 228.933 359.853 228.778 360.263 228.673C360.673 228.568 361.131 228.516 361.637 228.516H363.107ZM367.475 225.604H368.74L368.63 228.372C368.603 229.074 368.523 229.68 368.391 230.19C368.259 230.701 368.09 231.136 367.885 231.496C367.68 231.852 367.45 232.15 367.195 232.392C366.944 232.633 366.684 232.836 366.416 233H365.787L365.821 231.968L366.081 231.961C366.231 231.783 366.377 231.601 366.518 231.414C366.659 231.223 366.789 230.997 366.908 230.737C367.026 230.473 367.124 230.152 367.202 229.773C367.284 229.391 367.336 228.924 367.359 228.372L367.475 225.604ZM367.79 225.604H372.24V233H370.975V226.772H367.79V225.604ZM365.5 231.961H373.19V235.181H371.925V233H366.764V235.181H365.493L365.5 231.961ZM378.953 231.735V227.928C378.953 227.636 378.893 227.383 378.775 227.169C378.661 226.95 378.488 226.782 378.255 226.663C378.023 226.545 377.736 226.485 377.394 226.485C377.075 226.485 376.795 226.54 376.553 226.649C376.316 226.759 376.129 226.902 375.993 227.08C375.861 227.258 375.794 227.449 375.794 227.654H374.53C374.53 227.39 374.598 227.128 374.735 226.868C374.872 226.608 375.068 226.374 375.323 226.164C375.583 225.95 375.892 225.781 376.252 225.658C376.617 225.531 377.023 225.467 377.469 225.467C378.007 225.467 378.481 225.558 378.891 225.74C379.306 225.923 379.629 226.198 379.862 226.567C380.099 226.932 380.217 227.39 380.217 227.941V231.387C380.217 231.633 380.238 231.895 380.279 232.173C380.324 232.451 380.39 232.69 380.477 232.891V233H379.158C379.094 232.854 379.044 232.66 379.007 232.419C378.971 232.173 378.953 231.945 378.953 231.735ZM379.171 228.516L379.185 229.404H377.907C377.547 229.404 377.225 229.434 376.943 229.493C376.66 229.548 376.423 229.632 376.232 229.746C376.041 229.86 375.895 230.004 375.794 230.177C375.694 230.345 375.644 230.544 375.644 230.771C375.644 231.004 375.696 231.216 375.801 231.407C375.906 231.599 376.063 231.751 376.273 231.865C376.487 231.975 376.749 232.029 377.059 232.029C377.446 232.029 377.788 231.947 378.084 231.783C378.381 231.619 378.615 231.419 378.789 231.182C378.966 230.945 379.062 230.715 379.076 230.491L379.616 231.1C379.584 231.291 379.497 231.503 379.356 231.735C379.215 231.968 379.026 232.191 378.789 232.405C378.556 232.615 378.278 232.79 377.955 232.932C377.636 233.068 377.276 233.137 376.875 233.137C376.373 233.137 375.933 233.039 375.555 232.843C375.181 232.647 374.89 232.385 374.68 232.057C374.475 231.724 374.373 231.353 374.373 230.942C374.373 230.546 374.45 230.197 374.605 229.896C374.76 229.591 374.983 229.338 375.275 229.138C375.567 228.933 375.917 228.778 376.328 228.673C376.738 228.568 377.196 228.516 377.702 228.516H379.171ZM387.785 225.604V233H386.52V225.604H387.785ZM387.354 229.001V230.04C387.099 230.136 386.839 230.222 386.575 230.3C386.315 230.373 386.039 230.432 385.748 230.478C385.46 230.519 385.148 230.539 384.811 230.539C384.228 230.539 383.722 230.439 383.293 230.238C382.865 230.033 382.535 229.726 382.302 229.315C382.07 228.901 381.954 228.379 381.954 227.75V225.59H383.218V227.75C383.218 228.16 383.28 228.493 383.403 228.748C383.526 229.003 383.706 229.192 383.943 229.315C384.18 229.434 384.469 229.493 384.811 229.493C385.139 229.493 385.447 229.473 385.734 229.432C386.026 229.386 386.304 229.327 386.568 229.254C386.837 229.181 387.099 229.097 387.354 229.001ZM392.891 233.137C392.376 233.137 391.909 233.05 391.49 232.877C391.075 232.699 390.717 232.451 390.417 232.132C390.12 231.813 389.892 231.435 389.733 230.997C389.573 230.56 389.494 230.081 389.494 229.562V229.274C389.494 228.673 389.583 228.137 389.76 227.668C389.938 227.194 390.18 226.793 390.485 226.465C390.79 226.137 391.137 225.888 391.524 225.72C391.911 225.551 392.312 225.467 392.727 225.467C393.256 225.467 393.711 225.558 394.094 225.74C394.482 225.923 394.798 226.178 395.044 226.506C395.291 226.829 395.473 227.212 395.591 227.654C395.71 228.092 395.769 228.57 395.769 229.09V229.657H390.246V228.625H394.504V228.529C394.486 228.201 394.418 227.882 394.299 227.572C394.185 227.262 394.003 227.007 393.752 226.807C393.502 226.606 393.16 226.506 392.727 226.506C392.44 226.506 392.176 226.567 391.934 226.69C391.693 226.809 391.485 226.987 391.312 227.224C391.139 227.461 391.004 227.75 390.909 228.092C390.813 228.434 390.765 228.828 390.765 229.274V229.562C390.765 229.912 390.813 230.243 390.909 230.553C391.009 230.858 391.153 231.127 391.339 231.359C391.531 231.592 391.761 231.774 392.03 231.906C392.303 232.038 392.613 232.104 392.959 232.104C393.406 232.104 393.784 232.013 394.094 231.831C394.404 231.649 394.675 231.405 394.908 231.1L395.673 231.708C395.514 231.95 395.311 232.18 395.065 232.398C394.819 232.617 394.516 232.795 394.156 232.932C393.8 233.068 393.379 233.137 392.891 233.137ZM401.498 231.318L404.013 225.604H405.23L401.935 233H401.06L397.779 225.604H398.996L401.498 231.318ZM398.626 225.604V233H397.362V225.604H398.626ZM404.328 233V225.604H405.599V233H404.328ZM416.441 233V234.039H410.172V233H416.441ZM422.757 233V234.039H416.489V233H422.757ZM429.074 233V234.039H422.805V233H429.074ZM435.39 233V234.039H429.122V233H435.39ZM441.707 233V234.039H435.438V233H441.707ZM448.023 233V234.039H441.754V233H448.023ZM454.339 233V234.039H448.071V233H454.339ZM460.656 233V234.039H454.387V233H460.656ZM466.972 233V234.039H460.704V233H466.972ZM473.289 233V234.039H467.02V233H473.289ZM479.605 233V234.039H473.336V233H479.605ZM485.921 233V234.039H479.653V233H485.921ZM492.238 233V234.039H485.969V233H492.238ZM498.554 233V234.039H492.286V233H498.554ZM504.871 233V234.039H498.602V233H504.871ZM511.187 233V234.039H504.918V233H511.187ZM517.503 233V234.039H511.235V233H517.503ZM523.82 233V234.039H517.551V233H523.82ZM530.136 233V234.039H523.868V233H530.136ZM536.453 233V234.039H530.184V233H536.453ZM542.769 233V234.039H536.5V233H542.769ZM549.085 233V234.039H542.817V233H549.085ZM555.402 233V234.039H549.133V233H555.402ZM561.718 233V234.039H555.45V233H561.718ZM568.035 233V234.039H561.766V233H568.035ZM574.351 233V234.039H568.083V233H574.351ZM580.667 233V234.039H574.399V233H580.667ZM586.984 233V234.039H580.715V233H586.984ZM593.3 233V234.039H587.032V233H593.3ZM599.617 233V234.039H593.348V233H599.617ZM605.933 233V234.039H599.665V233H605.933ZM612.25 233V234.039H605.981V233H612.25ZM618.566 233V234.039H612.297V233H618.566ZM624.882 233V234.039H618.614V233H624.882ZM317.258 295.927V297H309.725V295.927H317.258ZM309.937 295.927V299.447H308.631L308.625 295.927H309.937ZM318.407 295.927L318.393 299.44H317.087V295.927H318.407ZM315.966 287.047V288.127H311.605V287.047H315.966ZM317.101 287.047V297H315.789V287.047H317.101ZM311.154 287.047H312.473L312.268 291.053C312.241 291.654 312.184 292.21 312.097 292.721C312.011 293.227 311.903 293.689 311.776 294.108C311.648 294.528 311.502 294.904 311.338 295.236C311.174 295.564 310.999 295.849 310.812 296.091C310.625 296.328 310.429 296.524 310.224 296.679C310.024 296.829 309.821 296.936 309.616 297H309.014V295.927H309.438C309.556 295.799 309.691 295.615 309.841 295.373C309.996 295.132 310.149 294.819 310.299 294.437C310.454 294.049 310.589 293.577 310.703 293.021C310.821 292.465 310.901 291.809 310.942 291.053L311.154 287.047ZM324.128 295.735V291.928C324.128 291.636 324.069 291.383 323.951 291.169C323.837 290.95 323.664 290.782 323.431 290.663C323.199 290.545 322.912 290.485 322.57 290.485C322.251 290.485 321.971 290.54 321.729 290.649C321.492 290.759 321.305 290.902 321.168 291.08C321.036 291.258 320.97 291.449 320.97 291.654H319.706C319.706 291.39 319.774 291.128 319.911 290.868C320.047 290.608 320.243 290.374 320.499 290.164C320.758 289.95 321.068 289.781 321.428 289.658C321.793 289.531 322.198 289.467 322.645 289.467C323.183 289.467 323.657 289.558 324.067 289.74C324.482 289.923 324.805 290.198 325.038 290.567C325.275 290.932 325.393 291.39 325.393 291.941V295.387C325.393 295.633 325.414 295.895 325.455 296.173C325.5 296.451 325.566 296.69 325.653 296.891V297H324.333C324.27 296.854 324.22 296.66 324.183 296.419C324.147 296.173 324.128 295.945 324.128 295.735ZM324.347 292.516L324.361 293.404H323.083C322.722 293.404 322.401 293.434 322.119 293.493C321.836 293.548 321.599 293.632 321.408 293.746C321.216 293.86 321.07 294.004 320.97 294.177C320.87 294.345 320.82 294.544 320.82 294.771C320.82 295.004 320.872 295.216 320.977 295.407C321.082 295.599 321.239 295.751 321.449 295.865C321.663 295.975 321.925 296.029 322.235 296.029C322.622 296.029 322.964 295.947 323.26 295.783C323.556 295.619 323.791 295.419 323.964 295.182C324.142 294.945 324.238 294.715 324.251 294.491L324.792 295.1C324.76 295.291 324.673 295.503 324.532 295.735C324.39 295.968 324.201 296.191 323.964 296.405C323.732 296.615 323.454 296.79 323.13 296.932C322.811 297.068 322.451 297.137 322.05 297.137C321.549 297.137 321.109 297.039 320.731 296.843C320.357 296.647 320.066 296.385 319.856 296.057C319.651 295.724 319.548 295.353 319.548 294.942C319.548 294.546 319.626 294.197 319.781 293.896C319.936 293.591 320.159 293.338 320.451 293.138C320.742 292.933 321.093 292.778 321.503 292.673C321.914 292.568 322.372 292.516 322.877 292.516H324.347ZM330.288 289.604V297H329.016V289.604H330.288ZM332.769 289.604V290.629H326.583V289.604H332.769ZM338.265 295.735V291.928C338.265 291.636 338.206 291.383 338.087 291.169C337.973 290.95 337.8 290.782 337.568 290.663C337.335 290.545 337.048 290.485 336.707 290.485C336.388 290.485 336.107 290.54 335.866 290.649C335.629 290.759 335.442 290.902 335.305 291.08C335.173 291.258 335.107 291.449 335.107 291.654H333.842C333.842 291.39 333.911 291.128 334.047 290.868C334.184 290.608 334.38 290.374 334.635 290.164C334.895 289.95 335.205 289.781 335.565 289.658C335.93 289.531 336.335 289.467 336.782 289.467C337.319 289.467 337.793 289.558 338.204 289.74C338.618 289.923 338.942 290.198 339.174 290.567C339.411 290.932 339.53 291.39 339.53 291.941V295.387C339.53 295.633 339.55 295.895 339.591 296.173C339.637 296.451 339.703 296.69 339.79 296.891V297H338.47C338.406 296.854 338.356 296.66 338.32 296.419C338.283 296.173 338.265 295.945 338.265 295.735ZM338.484 292.516L338.498 293.404H337.219C336.859 293.404 336.538 293.434 336.255 293.493C335.973 293.548 335.736 293.632 335.544 293.746C335.353 293.86 335.207 294.004 335.107 294.177C335.007 294.345 334.957 294.544 334.957 294.771C334.957 295.004 335.009 295.216 335.114 295.407C335.219 295.599 335.376 295.751 335.585 295.865C335.8 295.975 336.062 296.029 336.372 296.029C336.759 296.029 337.101 295.947 337.397 295.783C337.693 295.619 337.928 295.419 338.101 295.182C338.279 294.945 338.375 294.715 338.388 294.491L338.928 295.1C338.896 295.291 338.81 295.503 338.668 295.735C338.527 295.968 338.338 296.191 338.101 296.405C337.869 296.615 337.591 296.79 337.267 296.932C336.948 297.068 336.588 297.137 336.187 297.137C335.686 297.137 335.246 297.039 334.868 296.843C334.494 296.647 334.202 296.385 333.993 296.057C333.788 295.724 333.685 295.353 333.685 294.942C333.685 294.546 333.763 294.197 333.917 293.896C334.072 293.591 334.296 293.338 334.587 293.138C334.879 292.933 335.23 292.778 335.64 292.673C336.05 292.568 336.508 292.516 337.014 292.516H338.484ZM353.796 297V298.039H347.528V297H353.796ZM360.113 297V298.039H353.844V297H360.113ZM366.429 297V298.039H360.161V297H366.429ZM372.746 297V298.039H366.477V297H372.746ZM379.062 297V298.039H372.793V297H379.062ZM385.378 297V298.039H379.11V297H385.378ZM391.695 297V298.039H385.426V297H391.695ZM398.011 297V298.039H391.743V297H398.011ZM404.328 297V298.039H398.059V297H404.328ZM410.644 297V298.039H404.375V297H410.644ZM416.96 297V298.039H410.692V297H416.96ZM461.189 287.047V297H459.87V287.047H461.189ZM467.321 287.047L463 292.522H460.663L460.458 291.429H462.214L465.687 287.047H467.321ZM465.995 297L462.255 292.352L462.994 291.196L467.608 297H465.995ZM469.987 289.604V297H468.715V289.604H469.987ZM468.62 287.642C468.62 287.437 468.681 287.263 468.804 287.122C468.932 286.981 469.119 286.91 469.365 286.91C469.606 286.91 469.791 286.981 469.918 287.122C470.051 287.263 470.117 287.437 470.117 287.642C470.117 287.838 470.051 288.006 469.918 288.147C469.791 288.284 469.606 288.353 469.365 288.353C469.119 288.353 468.932 288.284 468.804 288.147C468.681 288.006 468.62 287.838 468.62 287.642ZM476.959 289.604V290.649H473.384V289.604H476.959ZM478.074 289.604V297H476.809V289.604H478.074ZM473.077 289.604H474.348L474.157 293.172C474.125 293.723 474.072 294.211 474 294.635C473.931 295.054 473.835 295.414 473.712 295.715C473.594 296.016 473.444 296.262 473.261 296.453C473.083 296.64 472.869 296.779 472.619 296.87C472.368 296.957 472.079 297 471.75 297H471.354V295.886L471.627 295.865C471.823 295.852 471.99 295.806 472.126 295.729C472.268 295.651 472.386 295.537 472.482 295.387C472.578 295.232 472.655 295.034 472.714 294.792C472.778 294.55 472.826 294.263 472.858 293.931C472.894 293.598 472.922 293.211 472.94 292.769L473.077 289.604ZM481.15 292.146H483.372C483.969 292.146 484.472 292.251 484.882 292.461C485.292 292.666 485.602 292.951 485.812 293.315C486.026 293.675 486.133 294.086 486.133 294.546C486.133 294.888 486.074 295.209 485.956 295.51C485.837 295.806 485.659 296.066 485.422 296.289C485.19 296.512 484.901 296.688 484.554 296.815C484.212 296.938 483.818 297 483.372 297H480.227V289.604H481.492V295.961H483.372C483.736 295.961 484.028 295.895 484.247 295.763C484.465 295.631 484.623 295.46 484.718 295.25C484.814 295.04 484.862 294.822 484.862 294.594C484.862 294.37 484.814 294.152 484.718 293.938C484.623 293.723 484.465 293.546 484.247 293.404C484.028 293.258 483.736 293.186 483.372 293.186H481.15V292.146ZM489.086 289.604V297H487.822V289.604H489.086ZM493.94 289.604L490.433 293.842H488.663L488.471 292.734H489.92L492.402 289.604H493.94ZM492.58 297L489.859 293.65L490.672 292.734L494.186 297H492.58ZM496.661 289.604V297H495.389V289.604H496.661ZM495.293 287.642C495.293 287.437 495.355 287.263 495.478 287.122C495.606 286.981 495.792 286.91 496.039 286.91C496.28 286.91 496.465 286.981 496.592 287.122C496.724 287.263 496.791 287.437 496.791 287.642C496.791 287.838 496.724 288.006 496.592 288.147C496.465 288.284 496.28 288.353 496.039 288.353C495.792 288.353 495.606 288.284 495.478 288.147C495.355 288.006 495.293 287.838 495.293 287.642ZM501.651 296.098C501.952 296.098 502.23 296.036 502.485 295.913C502.74 295.79 502.95 295.621 503.114 295.407C503.278 295.188 503.371 294.94 503.394 294.662H504.597C504.574 295.1 504.426 295.507 504.153 295.886C503.884 296.259 503.531 296.562 503.093 296.795C502.656 297.023 502.175 297.137 501.651 297.137C501.095 297.137 500.61 297.039 500.195 296.843C499.785 296.647 499.443 296.378 499.169 296.036C498.901 295.694 498.698 295.302 498.561 294.86C498.429 294.414 498.363 293.942 498.363 293.445V293.158C498.363 292.661 498.429 292.192 498.561 291.75C498.698 291.303 498.901 290.909 499.169 290.567C499.443 290.226 499.785 289.957 500.195 289.761C500.61 289.565 501.095 289.467 501.651 289.467C502.23 289.467 502.736 289.585 503.168 289.822C503.601 290.055 503.941 290.374 504.187 290.779C504.438 291.18 504.574 291.636 504.597 292.146H503.394C503.371 291.841 503.285 291.565 503.134 291.319C502.988 291.073 502.788 290.877 502.533 290.731C502.282 290.581 501.988 290.506 501.651 290.506C501.264 290.506 500.938 290.583 500.673 290.738C500.414 290.889 500.206 291.094 500.051 291.354C499.901 291.609 499.792 291.894 499.723 292.208C499.659 292.518 499.627 292.835 499.627 293.158V293.445C499.627 293.769 499.659 294.088 499.723 294.402C499.787 294.717 499.894 295.002 500.044 295.257C500.199 295.512 500.407 295.717 500.667 295.872C500.931 296.022 501.259 296.098 501.651 296.098ZM509.034 289.604V297H507.762V289.604H509.034ZM511.515 289.604V290.629H505.329V289.604H511.515ZM513.798 292.146H516.02C516.617 292.146 517.121 292.251 517.531 292.461C517.941 292.666 518.251 292.951 518.46 293.315C518.675 293.675 518.782 294.086 518.782 294.546C518.782 294.888 518.722 295.209 518.604 295.51C518.486 295.806 518.308 296.066 518.071 296.289C517.838 296.512 517.549 296.688 517.203 296.815C516.861 296.938 516.467 297 516.02 297H512.875V289.604H514.14V295.961H516.02C516.385 295.961 516.676 295.895 516.895 295.763C517.114 295.631 517.271 295.46 517.367 295.25C517.462 295.04 517.51 294.822 517.51 294.594C517.51 294.37 517.462 294.152 517.367 293.938C517.271 293.723 517.114 293.546 516.895 293.404C516.676 293.258 516.385 293.186 516.02 293.186H513.798V292.146ZM528.612 289.604V290.649H525.194V297H523.929V289.604H528.612ZM529.241 293.384V293.227C529.241 292.693 529.318 292.199 529.473 291.743C529.628 291.283 529.851 290.884 530.143 290.547C530.435 290.205 530.788 289.941 531.203 289.754C531.617 289.562 532.082 289.467 532.597 289.467C533.117 289.467 533.584 289.562 533.999 289.754C534.418 289.941 534.773 290.205 535.065 290.547C535.361 290.884 535.587 291.283 535.742 291.743C535.897 292.199 535.974 292.693 535.974 293.227V293.384C535.974 293.917 535.897 294.411 535.742 294.867C535.587 295.323 535.361 295.722 535.065 296.063C534.773 296.401 534.42 296.665 534.005 296.856C533.595 297.043 533.13 297.137 532.611 297.137C532.091 297.137 531.624 297.043 531.209 296.856C530.795 296.665 530.439 296.401 530.143 296.063C529.851 295.722 529.628 295.323 529.473 294.867C529.318 294.411 529.241 293.917 529.241 293.384ZM530.505 293.227V293.384C530.505 293.753 530.549 294.102 530.635 294.43C530.722 294.753 530.852 295.04 531.025 295.291C531.203 295.542 531.424 295.74 531.688 295.886C531.952 296.027 532.26 296.098 532.611 296.098C532.957 296.098 533.26 296.027 533.52 295.886C533.784 295.74 534.003 295.542 534.176 295.291C534.349 295.04 534.479 294.753 534.566 294.43C534.657 294.102 534.703 293.753 534.703 293.384V293.227C534.703 292.862 534.657 292.518 534.566 292.194C534.479 291.866 534.347 291.577 534.169 291.326C533.996 291.071 533.778 290.87 533.513 290.725C533.253 290.579 532.948 290.506 532.597 290.506C532.251 290.506 531.945 290.579 531.681 290.725C531.421 290.87 531.203 291.071 531.025 291.326C530.852 291.577 530.722 291.866 530.635 292.194C530.549 292.518 530.505 292.862 530.505 293.227ZM538.401 289.604H539.666L539.556 292.372C539.529 293.074 539.449 293.68 539.317 294.19C539.185 294.701 539.016 295.136 538.811 295.496C538.606 295.852 538.376 296.15 538.121 296.392C537.87 296.633 537.61 296.836 537.341 297H536.712L536.747 295.968L537.006 295.961C537.157 295.783 537.303 295.601 537.444 295.414C537.585 295.223 537.715 294.997 537.833 294.737C537.952 294.473 538.05 294.152 538.127 293.773C538.209 293.391 538.262 292.924 538.285 292.372L538.401 289.604ZM538.715 289.604H543.166V297H541.901V290.772H538.715V289.604ZM536.425 295.961H544.116V299.181H542.851V297H537.69V299.181H536.418L536.425 295.961ZM545.538 296.33C545.538 296.116 545.604 295.936 545.736 295.79C545.873 295.64 546.069 295.564 546.324 295.564C546.579 295.564 546.773 295.64 546.905 295.79C547.042 295.936 547.11 296.116 547.11 296.33C547.11 296.54 547.042 296.717 546.905 296.863C546.773 297.009 546.579 297.082 546.324 297.082C546.069 297.082 545.873 297.009 545.736 296.863C545.604 296.717 545.538 296.54 545.538 296.33ZM558.013 297V298.039H551.745V297H558.013ZM564.33 297V298.039H558.061V297H564.33ZM570.646 297V298.039H564.377V297H570.646ZM576.962 297V298.039H570.694V297H576.962ZM583.279 297V298.039H577.01V297H583.279ZM589.595 297V298.039H583.327V297H589.595ZM595.912 297V298.039H589.643V297H595.912ZM602.228 297V298.039H595.959V297H602.228ZM608.544 297V298.039H602.276V297H608.544ZM614.861 297V298.039H608.592V297H614.861ZM621.177 297V298.039H614.909V297H621.177ZM627.494 297V298.039H621.225V297H627.494ZM633.81 297V298.039H627.542V297H633.81Z" fill="black"/>
<path d="M310.589 108.479H312.464C312.367 109.377 312.11 110.181 311.693 110.891C311.276 111.6 310.687 112.163 309.925 112.58C309.164 112.99 308.213 113.195 307.074 113.195C306.24 113.195 305.482 113.039 304.798 112.727C304.121 112.414 303.539 111.971 303.05 111.398C302.562 110.819 302.184 110.126 301.917 109.318C301.657 108.505 301.527 107.6 301.527 106.604V105.188C301.527 104.191 301.657 103.29 301.917 102.482C302.184 101.669 302.565 100.972 303.06 100.393C303.561 99.8132 304.164 99.3672 304.867 99.0547C305.57 98.7422 306.361 98.5859 307.24 98.5859C308.314 98.5859 309.222 98.7878 309.964 99.1914C310.707 99.5951 311.283 100.155 311.693 100.871C312.11 101.581 312.367 102.404 312.464 103.342H310.589C310.498 102.678 310.329 102.108 310.082 101.633C309.834 101.151 309.483 100.78 309.027 100.52C308.571 100.259 307.975 100.129 307.24 100.129C306.608 100.129 306.052 100.249 305.57 100.49C305.095 100.731 304.694 101.073 304.369 101.516C304.05 101.958 303.809 102.489 303.646 103.107C303.483 103.726 303.402 104.413 303.402 105.168V106.604C303.402 107.3 303.473 107.954 303.617 108.566C303.766 109.178 303.991 109.715 304.291 110.178C304.59 110.64 304.971 111.005 305.433 111.271C305.895 111.532 306.442 111.662 307.074 111.662C307.875 111.662 308.513 111.535 308.988 111.281C309.463 111.027 309.821 110.663 310.062 110.188C310.309 109.712 310.485 109.143 310.589 108.479ZM324.066 111.467V113H316.537V111.467H324.066ZM316.917 98.7812V113H315.033V98.7812H316.917ZM323.07 104.895V106.428H316.537V104.895H323.07ZM323.968 98.7812V100.324H316.537V98.7812H323.968ZM331.644 107.424H327.845V105.891H331.644C332.38 105.891 332.975 105.773 333.431 105.539C333.887 105.305 334.219 104.979 334.427 104.562C334.642 104.146 334.75 103.671 334.75 103.137C334.75 102.648 334.642 102.189 334.427 101.76C334.219 101.33 333.887 100.985 333.431 100.725C332.975 100.458 332.38 100.324 331.644 100.324H328.285V113H326.4V98.7812H331.644C332.718 98.7812 333.626 98.9668 334.369 99.3379C335.111 99.709 335.674 100.223 336.058 100.881C336.442 101.532 336.634 102.277 336.634 103.117C336.634 104.029 336.442 104.807 336.058 105.451C335.674 106.096 335.111 106.587 334.369 106.926C333.626 107.258 332.718 107.424 331.644 107.424ZM344.271 98.7812V113H342.416V98.7812H344.271ZM348.841 98.7812V100.324H337.855V98.7812H348.841ZM352.914 109.738L359.916 98.7812H361.8V113H359.916V102.033L352.914 113H351.039V98.7812H352.914V109.738ZM370.16 100.197H372.513C373.333 100.197 374.092 100.337 374.789 100.617C375.492 100.891 376.104 101.281 376.625 101.789C377.152 102.297 377.562 102.902 377.855 103.605C378.148 104.302 378.294 105.074 378.294 105.92C378.294 106.766 378.148 107.541 377.855 108.244C377.562 108.947 377.152 109.556 376.625 110.07C376.104 110.578 375.492 110.972 374.789 111.252C374.092 111.525 373.333 111.662 372.513 111.662H370.16C369.339 111.662 368.581 111.525 367.884 111.252C367.188 110.972 366.576 110.578 366.048 110.07C365.528 109.562 365.121 108.96 364.828 108.264C364.541 107.561 364.398 106.786 364.398 105.939C364.398 105.093 364.541 104.322 364.828 103.625C365.121 102.922 365.528 102.316 366.048 101.809C366.576 101.294 367.188 100.897 367.884 100.617C368.581 100.337 369.339 100.197 370.16 100.197ZM370.16 101.682C369.307 101.682 368.584 101.861 367.992 102.219C367.399 102.57 366.95 103.065 366.644 103.703C366.338 104.341 366.185 105.087 366.185 105.939C366.185 106.584 366.27 107.167 366.439 107.688C366.615 108.208 366.872 108.654 367.21 109.025C367.549 109.396 367.966 109.683 368.46 109.885C368.955 110.087 369.522 110.188 370.16 110.188H372.533C373.379 110.188 374.095 110.012 374.681 109.66C375.274 109.302 375.723 108.804 376.029 108.166C376.341 107.521 376.498 106.773 376.498 105.92C376.498 105.282 376.41 104.702 376.234 104.182C376.058 103.661 375.801 103.215 375.462 102.844C375.13 102.473 374.717 102.186 374.222 101.984C373.734 101.783 373.171 101.682 372.533 101.682H370.16ZM372.25 98.1953V113.586H370.443V98.1953H372.25ZM382.699 98.7812V113H380.814V98.7812H382.699ZM388.099 98.7812V113H386.214V98.7812H388.099ZM396.859 98.7812L390.687 106.604H387.347L387.054 105.041H389.564L394.525 98.7812H396.859ZM394.964 113L389.623 106.359L390.677 104.709L397.269 113H394.964ZM404.242 100.041L399.535 113H397.611L403.031 98.7812H404.271L404.242 100.041ZM408.187 113L403.47 100.041L403.441 98.7812H404.681L410.121 113H408.187ZM407.943 107.736V109.279H399.955V107.736H407.943ZM416.009 98.7812V113H414.154V98.7812H416.009ZM420.58 98.7812V100.324H409.593V98.7812H420.58Z" fill="black"/>
<path d="M750 54V400.776H589L750 54Z" fill="black"/>
<path d="M748.154 56.8795L669.017 230.745L629.921 136.194L748.154 39.7245L748.154 56.8795Z" fill="#AFB133" stroke="#B1B43E"/>
</svg>
