<svg width="750" height="400" viewBox="0 0 750 400" fill="none" xmlns="http://www.w3.org/2000/svg">
<path d="M0.134262 0.000106812H750V400H0.134262V0.000106812Z" fill="#E1DDDD"/>
<path d="M310.589 108.479H312.464C312.367 109.377 312.11 110.181 311.693 110.891C311.276 111.6 310.687 112.164 309.925 112.58C309.164 112.99 308.213 113.195 307.074 113.195C306.24 113.195 305.482 113.039 304.798 112.727C304.121 112.414 303.539 111.971 303.05 111.399C302.562 110.819 302.184 110.126 301.917 109.318C301.657 108.505 301.527 107.6 301.527 106.604V105.188C301.527 104.191 301.657 103.29 301.917 102.483C302.184 101.669 302.565 100.972 303.06 100.393C303.561 99.8132 304.164 99.3673 304.867 99.0548C305.57 98.7423 306.361 98.586 307.24 98.586C308.314 98.586 309.222 98.7879 309.964 99.1915C310.707 99.5951 311.283 100.155 311.693 100.871C312.11 101.581 312.367 102.404 312.464 103.342H310.589C310.498 102.678 310.329 102.108 310.082 101.633C309.834 101.151 309.483 100.78 309.027 100.52C308.571 100.259 307.975 100.129 307.24 100.129C306.608 100.129 306.052 100.249 305.57 100.49C305.095 100.731 304.694 101.073 304.369 101.516C304.05 101.958 303.809 102.489 303.646 103.108C303.483 103.726 303.402 104.413 303.402 105.168V106.604C303.402 107.3 303.473 107.955 303.617 108.566C303.766 109.178 303.991 109.716 304.291 110.178C304.59 110.64 304.971 111.005 305.433 111.272C305.895 111.532 306.442 111.662 307.074 111.662C307.875 111.662 308.513 111.535 308.988 111.281C309.463 111.027 309.821 110.663 310.062 110.188C310.309 109.712 310.485 109.143 310.589 108.479ZM324.066 111.467V113H316.537V111.467H324.066ZM316.917 98.7813V113H315.033V98.7813H316.917ZM323.07 104.895V106.428H316.537V104.895H323.07ZM323.968 98.7813V100.324H316.537V98.7813H323.968ZM326.4 98.7813H331.107C332.175 98.7813 333.076 98.9441 333.812 99.2696C334.554 99.5951 335.117 100.077 335.501 100.715C335.892 101.346 336.087 102.124 336.087 103.049C336.087 103.7 335.954 104.296 335.687 104.836C335.427 105.37 335.049 105.826 334.554 106.203C334.066 106.574 333.48 106.851 332.796 107.033L332.269 107.238H327.845L327.826 105.705H331.166C331.843 105.705 332.406 105.588 332.855 105.354C333.304 105.113 333.643 104.79 333.871 104.387C334.098 103.983 334.212 103.537 334.212 103.049C334.212 102.502 334.105 102.024 333.89 101.613C333.675 101.203 333.337 100.887 332.875 100.666C332.419 100.438 331.83 100.324 331.107 100.324H328.285V113H326.4V98.7813ZM334.71 113L331.253 106.555L333.216 106.545L336.722 112.883V113H334.71ZM343.197 98.7813V113H341.341V98.7813H343.197ZM347.767 98.7813V100.324H336.781V98.7813H347.767ZM351.898 98.7813V113H350.013V98.7813H351.898ZM357.21 98.7813V113H355.326V98.7813H357.21ZM363.167 105.178V106.721H356.8V105.178H363.167ZM364.134 98.7813V100.324H356.8V98.7813H364.134ZM368.402 98.7813V113H366.517V98.7813H368.402ZM380.414 108.479H382.289C382.191 109.377 381.934 110.181 381.517 110.891C381.1 111.6 380.511 112.164 379.75 112.58C378.988 112.99 378.037 113.195 376.898 113.195C376.065 113.195 375.306 113.039 374.623 112.727C373.945 112.414 373.363 111.971 372.875 111.399C372.386 110.819 372.009 110.126 371.742 109.318C371.481 108.505 371.351 107.6 371.351 106.604V105.188C371.351 104.191 371.481 103.29 371.742 102.483C372.009 101.669 372.389 100.972 372.884 100.393C373.386 99.8132 373.988 99.3673 374.691 99.0548C375.394 98.7423 376.185 98.586 377.064 98.586C378.138 98.586 379.046 98.7879 379.789 99.1915C380.531 99.5951 381.107 100.155 381.517 100.871C381.934 101.581 382.191 102.404 382.289 103.342H380.414C380.322 102.678 380.153 102.108 379.906 101.633C379.658 101.151 379.307 100.78 378.851 100.52C378.395 100.259 377.8 100.129 377.064 100.129C376.432 100.129 375.876 100.249 375.394 100.49C374.919 100.731 374.518 101.073 374.193 101.516C373.874 101.958 373.633 102.489 373.47 103.108C373.307 103.726 373.226 104.413 373.226 105.168V106.604C373.226 107.3 373.298 107.955 373.441 108.566C373.591 109.178 373.815 109.716 374.115 110.178C374.414 110.64 374.795 111.005 375.257 111.272C375.72 111.532 376.266 111.662 376.898 111.662C377.699 111.662 378.337 111.535 378.812 111.281C379.287 111.027 379.645 110.663 379.886 110.188C380.134 109.712 380.309 109.143 380.414 108.479ZM390.121 100.041L385.414 113H383.49L388.91 98.7813H390.15L390.121 100.041ZM394.066 113L389.349 100.041L389.32 98.7813H390.56L396 113H394.066ZM393.822 107.736V109.279H385.833V107.736H393.822ZM401.888 98.7813V113H400.033V98.7813H401.888ZM406.458 98.7813V100.324H395.472V98.7813H406.458ZM417.601 111.467V113H410.072V111.467H417.601ZM410.453 98.7813V113H408.568V98.7813H410.453ZM416.605 104.895V106.428H410.072V104.895H416.605ZM417.503 98.7813V100.324H410.072V98.7813H417.503Z" fill="black"/>
<path d="M750 53.708V400H594L750 53.708Z" fill="black"/>
<path d="M748.154 58.8795L669.017 232.745L629.921 138.194L748.154 41.7245L748.154 58.8795Z" fill="#AFB133" stroke="#B1B43E"/>
<path d="M130.481 197.097H127.822V196.023H130.481C130.996 196.023 131.413 195.941 131.732 195.777C132.051 195.613 132.283 195.385 132.429 195.094C132.579 194.802 132.655 194.469 132.655 194.096C132.655 193.754 132.579 193.433 132.429 193.132C132.283 192.831 132.051 192.59 131.732 192.407C131.413 192.22 130.996 192.127 130.481 192.127H128.129V201H126.81V191.047H130.481C131.233 191.047 131.868 191.177 132.388 191.437C132.907 191.696 133.302 192.056 133.571 192.517C133.839 192.972 133.974 193.494 133.974 194.082C133.974 194.72 133.839 195.265 133.571 195.716C133.302 196.167 132.907 196.511 132.388 196.748C131.868 196.98 131.233 197.097 130.481 197.097ZM136.715 194.766V201H135.45V193.604H136.681L136.715 194.766ZM139.026 193.562L139.019 194.738C138.914 194.715 138.814 194.702 138.718 194.697C138.627 194.688 138.522 194.684 138.404 194.684C138.112 194.684 137.854 194.729 137.631 194.82C137.408 194.911 137.219 195.039 137.064 195.203C136.909 195.367 136.786 195.563 136.695 195.791C136.608 196.014 136.551 196.26 136.524 196.529L136.168 196.734C136.168 196.288 136.212 195.868 136.298 195.477C136.389 195.085 136.528 194.738 136.715 194.438C136.902 194.132 137.139 193.895 137.426 193.727C137.718 193.553 138.064 193.467 138.465 193.467C138.556 193.467 138.661 193.478 138.78 193.501C138.898 193.519 138.98 193.54 139.026 193.562ZM143.127 201.137C142.612 201.137 142.145 201.05 141.726 200.877C141.311 200.699 140.953 200.451 140.653 200.132C140.356 199.813 140.128 199.435 139.969 198.997C139.809 198.56 139.73 198.081 139.73 197.562V197.274C139.73 196.673 139.819 196.137 139.996 195.668C140.174 195.194 140.416 194.793 140.721 194.465C141.026 194.137 141.373 193.888 141.76 193.72C142.147 193.551 142.548 193.467 142.963 193.467C143.492 193.467 143.948 193.558 144.33 193.74C144.718 193.923 145.034 194.178 145.281 194.506C145.527 194.829 145.709 195.212 145.827 195.654C145.946 196.092 146.005 196.57 146.005 197.09V197.657H140.482V196.625H144.74V196.529C144.722 196.201 144.654 195.882 144.535 195.572C144.421 195.262 144.239 195.007 143.989 194.807C143.738 194.606 143.396 194.506 142.963 194.506C142.676 194.506 142.412 194.567 142.17 194.69C141.929 194.809 141.721 194.987 141.548 195.224C141.375 195.461 141.24 195.75 141.145 196.092C141.049 196.434 141.001 196.828 141.001 197.274V197.562C141.001 197.912 141.049 198.243 141.145 198.553C141.245 198.858 141.389 199.127 141.575 199.359C141.767 199.592 141.997 199.774 142.266 199.906C142.539 200.038 142.849 200.104 143.196 200.104C143.642 200.104 144.02 200.013 144.33 199.831C144.64 199.649 144.911 199.405 145.144 199.1L145.909 199.708C145.75 199.95 145.547 200.18 145.301 200.398C145.055 200.617 144.752 200.795 144.392 200.932C144.036 201.068 143.615 201.137 143.127 201.137ZM151.788 199.038C151.788 198.856 151.747 198.687 151.665 198.532C151.588 198.373 151.426 198.229 151.18 198.102C150.938 197.969 150.574 197.855 150.086 197.76C149.676 197.673 149.305 197.571 148.972 197.452C148.644 197.334 148.364 197.19 148.131 197.021C147.903 196.853 147.728 196.655 147.605 196.427C147.482 196.199 147.42 195.932 147.42 195.627C147.42 195.335 147.484 195.06 147.612 194.8C147.744 194.54 147.928 194.31 148.165 194.109C148.407 193.909 148.696 193.752 149.033 193.638C149.371 193.524 149.747 193.467 150.161 193.467C150.754 193.467 151.26 193.572 151.679 193.781C152.098 193.991 152.42 194.271 152.643 194.622C152.866 194.968 152.978 195.354 152.978 195.777H151.713C151.713 195.572 151.652 195.374 151.529 195.183C151.41 194.987 151.235 194.825 151.002 194.697C150.774 194.57 150.494 194.506 150.161 194.506C149.81 194.506 149.526 194.561 149.307 194.67C149.093 194.775 148.935 194.909 148.835 195.073C148.74 195.237 148.692 195.41 148.692 195.593C148.692 195.729 148.714 195.853 148.76 195.962C148.81 196.067 148.897 196.165 149.02 196.256C149.143 196.342 149.316 196.424 149.539 196.502C149.763 196.579 150.047 196.657 150.394 196.734C151 196.871 151.499 197.035 151.891 197.227C152.283 197.418 152.574 197.653 152.766 197.931C152.957 198.209 153.053 198.546 153.053 198.942C153.053 199.266 152.985 199.562 152.848 199.831C152.716 200.1 152.522 200.332 152.267 200.528C152.016 200.72 151.715 200.87 151.365 200.979C151.018 201.084 150.628 201.137 150.196 201.137C149.544 201.137 148.992 201.021 148.541 200.788C148.09 200.556 147.748 200.255 147.516 199.886C147.283 199.517 147.167 199.127 147.167 198.717H148.439C148.457 199.063 148.557 199.339 148.74 199.544C148.922 199.744 149.145 199.888 149.409 199.975C149.674 200.057 149.936 200.098 150.196 200.098C150.542 200.098 150.831 200.052 151.064 199.961C151.301 199.87 151.481 199.744 151.604 199.585C151.727 199.425 151.788 199.243 151.788 199.038ZM157.783 201.137C157.268 201.137 156.801 201.05 156.382 200.877C155.967 200.699 155.61 200.451 155.309 200.132C155.013 199.813 154.785 199.435 154.625 198.997C154.466 198.56 154.386 198.081 154.386 197.562V197.274C154.386 196.673 154.475 196.137 154.653 195.668C154.83 195.194 155.072 194.793 155.377 194.465C155.683 194.137 156.029 193.888 156.416 193.72C156.804 193.551 157.205 193.467 157.619 193.467C158.148 193.467 158.604 193.558 158.987 193.74C159.374 193.923 159.691 194.178 159.937 194.506C160.183 194.829 160.365 195.212 160.484 195.654C160.602 196.092 160.661 196.57 160.661 197.09V197.657H155.138V196.625H159.397V196.529C159.378 196.201 159.31 195.882 159.192 195.572C159.078 195.262 158.895 195.007 158.645 194.807C158.394 194.606 158.052 194.506 157.619 194.506C157.332 194.506 157.068 194.567 156.826 194.69C156.585 194.809 156.378 194.987 156.204 195.224C156.031 195.461 155.897 195.75 155.801 196.092C155.705 196.434 155.657 196.828 155.657 197.274V197.562C155.657 197.912 155.705 198.243 155.801 198.553C155.901 198.858 156.045 199.127 156.232 199.359C156.423 199.592 156.653 199.774 156.922 199.906C157.196 200.038 157.505 200.104 157.852 200.104C158.298 200.104 158.677 200.013 158.987 199.831C159.296 199.649 159.568 199.405 159.8 199.1L160.566 199.708C160.406 199.95 160.203 200.18 159.957 200.398C159.711 200.617 159.408 200.795 159.048 200.932C158.693 201.068 158.271 201.137 157.783 201.137ZM163.403 195.183V201H162.138V193.604H163.334L163.403 195.183ZM163.102 197.021L162.575 197.001C162.58 196.495 162.655 196.028 162.801 195.6C162.947 195.167 163.152 194.791 163.416 194.472C163.681 194.153 163.995 193.907 164.36 193.733C164.729 193.556 165.137 193.467 165.583 193.467C165.948 193.467 166.276 193.517 166.568 193.617C166.859 193.713 167.108 193.868 167.313 194.082C167.522 194.296 167.682 194.574 167.791 194.916C167.901 195.253 167.955 195.666 167.955 196.153V201H166.684V196.14C166.684 195.752 166.627 195.442 166.513 195.21C166.399 194.973 166.233 194.802 166.014 194.697C165.795 194.588 165.526 194.533 165.207 194.533C164.893 194.533 164.606 194.599 164.346 194.731C164.091 194.864 163.87 195.046 163.683 195.278C163.501 195.511 163.357 195.777 163.252 196.078C163.152 196.374 163.102 196.689 163.102 197.021ZM172.973 193.604V194.574H168.974V193.604H172.973ZM170.327 191.806H171.592V199.168C171.592 199.419 171.631 199.608 171.708 199.735C171.786 199.863 171.886 199.947 172.009 199.988C172.132 200.029 172.264 200.05 172.406 200.05C172.51 200.05 172.62 200.041 172.734 200.022C172.852 200 172.941 199.981 173 199.968L173.007 201C172.907 201.032 172.775 201.062 172.611 201.089C172.451 201.121 172.257 201.137 172.03 201.137C171.72 201.137 171.435 201.075 171.175 200.952C170.915 200.829 170.708 200.624 170.553 200.337C170.403 200.045 170.327 199.653 170.327 199.161V191.806ZM177.526 201.137C177.011 201.137 176.544 201.05 176.124 200.877C175.71 200.699 175.352 200.451 175.051 200.132C174.755 199.813 174.527 199.435 174.367 198.997C174.208 198.56 174.128 198.081 174.128 197.562V197.274C174.128 196.673 174.217 196.137 174.395 195.668C174.573 195.194 174.814 194.793 175.119 194.465C175.425 194.137 175.771 193.888 176.158 193.72C176.546 193.551 176.947 193.467 177.362 193.467C177.89 193.467 178.346 193.558 178.729 193.74C179.116 193.923 179.433 194.178 179.679 194.506C179.925 194.829 180.107 195.212 180.226 195.654C180.344 196.092 180.404 196.57 180.404 197.09V197.657H174.88V196.625H179.139V196.529C179.121 196.201 179.052 195.882 178.934 195.572C178.82 195.262 178.638 195.007 178.387 194.807C178.136 194.606 177.795 194.506 177.362 194.506C177.074 194.506 176.81 194.567 176.569 194.69C176.327 194.809 176.12 194.987 175.947 195.224C175.773 195.461 175.639 195.75 175.543 196.092C175.448 196.434 175.4 196.828 175.4 197.274V197.562C175.4 197.912 175.448 198.243 175.543 198.553C175.643 198.858 175.787 199.127 175.974 199.359C176.165 199.592 176.395 199.774 176.664 199.906C176.938 200.038 177.248 200.104 177.594 200.104C178.041 200.104 178.419 200.013 178.729 199.831C179.039 199.649 179.31 199.405 179.542 199.1L180.308 199.708C180.148 199.95 179.946 200.18 179.699 200.398C179.453 200.617 179.15 200.795 178.79 200.932C178.435 201.068 178.013 201.137 177.526 201.137ZM186.542 199.564V190.5H187.814V201H186.652L186.542 199.564ZM181.566 197.384V197.24C181.566 196.675 181.634 196.162 181.771 195.702C181.912 195.237 182.11 194.839 182.365 194.506C182.625 194.173 182.933 193.918 183.288 193.74C183.648 193.558 184.049 193.467 184.491 193.467C184.956 193.467 185.362 193.549 185.708 193.713C186.059 193.872 186.355 194.107 186.597 194.417C186.843 194.722 187.037 195.091 187.178 195.524C187.319 195.957 187.417 196.447 187.472 196.994V197.623C187.422 198.165 187.324 198.653 187.178 199.086C187.037 199.519 186.843 199.888 186.597 200.193C186.355 200.499 186.059 200.733 185.708 200.897C185.357 201.057 184.947 201.137 184.478 201.137C184.045 201.137 183.648 201.043 183.288 200.856C182.933 200.67 182.625 200.408 182.365 200.07C182.11 199.733 181.912 199.337 181.771 198.881C181.634 198.421 181.566 197.922 181.566 197.384ZM182.837 197.24V197.384C182.837 197.753 182.874 198.099 182.947 198.423C183.024 198.746 183.142 199.031 183.302 199.277C183.462 199.523 183.664 199.717 183.91 199.858C184.156 199.995 184.45 200.063 184.792 200.063C185.212 200.063 185.556 199.975 185.824 199.797C186.098 199.619 186.317 199.384 186.481 199.093C186.645 198.801 186.772 198.484 186.864 198.143V196.495C186.809 196.244 186.729 196.003 186.624 195.771C186.524 195.534 186.392 195.324 186.228 195.142C186.068 194.955 185.87 194.807 185.633 194.697C185.401 194.588 185.125 194.533 184.806 194.533C184.46 194.533 184.161 194.606 183.91 194.752C183.664 194.893 183.462 195.089 183.302 195.34C183.142 195.586 183.024 195.873 182.947 196.201C182.874 196.525 182.837 196.871 182.837 197.24ZM196.352 193.604V194.574H192.353V193.604H196.352ZM193.706 191.806H194.971V199.168C194.971 199.419 195.01 199.608 195.087 199.735C195.165 199.863 195.265 199.947 195.388 199.988C195.511 200.029 195.643 200.05 195.784 200.05C195.889 200.05 195.999 200.041 196.113 200.022C196.231 200 196.32 199.981 196.379 199.968L196.386 201C196.286 201.032 196.154 201.062 195.99 201.089C195.83 201.121 195.636 201.137 195.408 201.137C195.099 201.137 194.814 201.075 194.554 200.952C194.294 200.829 194.087 200.624 193.932 200.337C193.781 200.045 193.706 199.653 193.706 199.161V191.806ZM197.364 197.384V197.227C197.364 196.693 197.441 196.199 197.596 195.743C197.751 195.283 197.974 194.884 198.266 194.547C198.558 194.205 198.911 193.941 199.325 193.754C199.74 193.562 200.205 193.467 200.72 193.467C201.24 193.467 201.707 193.562 202.121 193.754C202.541 193.941 202.896 194.205 203.188 194.547C203.484 194.884 203.71 195.283 203.865 195.743C204.019 196.199 204.097 196.693 204.097 197.227V197.384C204.097 197.917 204.019 198.411 203.865 198.867C203.71 199.323 203.484 199.722 203.188 200.063C202.896 200.401 202.543 200.665 202.128 200.856C201.718 201.043 201.253 201.137 200.734 201.137C200.214 201.137 199.747 201.043 199.332 200.856C198.918 200.665 198.562 200.401 198.266 200.063C197.974 199.722 197.751 199.323 197.596 198.867C197.441 198.411 197.364 197.917 197.364 197.384ZM198.628 197.227V197.384C198.628 197.753 198.671 198.102 198.758 198.43C198.845 198.753 198.975 199.04 199.148 199.291C199.325 199.542 199.546 199.74 199.811 199.886C200.075 200.027 200.383 200.098 200.734 200.098C201.08 200.098 201.383 200.027 201.643 199.886C201.907 199.74 202.126 199.542 202.299 199.291C202.472 199.04 202.602 198.753 202.689 198.43C202.78 198.102 202.825 197.753 202.825 197.384V197.227C202.825 196.862 202.78 196.518 202.689 196.194C202.602 195.866 202.47 195.577 202.292 195.326C202.119 195.071 201.9 194.87 201.636 194.725C201.376 194.579 201.071 194.506 200.72 194.506C200.374 194.506 200.068 194.579 199.804 194.725C199.544 194.87 199.325 195.071 199.148 195.326C198.975 195.577 198.845 195.866 198.758 196.194C198.671 196.518 198.628 196.862 198.628 197.227ZM209.101 200.33C209.101 200.116 209.167 199.936 209.299 199.79C209.436 199.64 209.632 199.564 209.887 199.564C210.142 199.564 210.336 199.64 210.468 199.79C210.605 199.936 210.673 200.116 210.673 200.33C210.673 200.54 210.605 200.717 210.468 200.863C210.336 201.009 210.142 201.082 209.887 201.082C209.632 201.082 209.436 201.009 209.299 200.863C209.167 200.717 209.101 200.54 209.101 200.33ZM209.108 194.294C209.108 194.08 209.174 193.9 209.306 193.754C209.443 193.604 209.639 193.528 209.894 193.528C210.149 193.528 210.343 193.604 210.475 193.754C210.612 193.9 210.68 194.08 210.68 194.294C210.68 194.504 210.612 194.681 210.475 194.827C210.343 194.973 210.149 195.046 209.894 195.046C209.639 195.046 209.443 194.973 209.306 194.827C209.174 194.681 209.108 194.504 209.108 194.294ZM217.878 201V202.039H211.61V201H217.878ZM224.195 201V202.039H217.926V201H224.195ZM230.511 201V202.039H224.242V201H230.511ZM236.827 201V202.039H230.559V201H236.827ZM243.144 201V202.039H236.875V201H243.144ZM249.46 201V202.039H243.192V201H249.46ZM255.777 201V202.039H249.508V201H255.777ZM262.093 201V202.039H255.824V201H262.093ZM268.409 201V202.039H262.141V201H268.409ZM274.726 201V202.039H268.457V201H274.726ZM281.042 201V202.039H274.774V201H281.042ZM287.359 201V202.039H281.09V201H287.359ZM293.675 201V202.039H287.406V201H293.675ZM299.991 201V202.039H293.723V201H299.991ZM306.308 201V202.039H300.039V201H306.308ZM312.624 201V202.039H306.356V201H312.624ZM318.941 201V202.039H312.672V201H318.941ZM325.257 201V202.039H318.989V201H325.257ZM331.573 201V202.039H325.305V201H331.573ZM337.89 201V202.039H331.621V201H337.89ZM344.206 201V202.039H337.938V201H344.206ZM350.523 201V202.039H344.254V201H350.523ZM356.839 201V202.039H350.571V201H356.839ZM363.156 201V202.039H356.887V201H363.156ZM369.472 201V202.039H363.203V201H369.472ZM375.788 201V202.039H369.52V201H375.788ZM382.105 201V202.039H375.836V201H382.105ZM388.421 201V202.039H382.153V201H388.421ZM394.738 201V202.039H388.469V201H394.738ZM401.054 201V202.039H394.785V201H401.054ZM407.37 201V202.039H401.102V201H407.37ZM413.687 201V202.039H407.418V201H413.687ZM420.003 201V202.039H413.735V201H420.003ZM426.32 201V202.039H420.051V201H426.32ZM432.636 201V202.039H426.367V201H432.636ZM438.952 201V202.039H432.684V201H438.952ZM445.269 201V202.039H439V201H445.269ZM451.585 201V202.039H445.317V201H451.585ZM457.902 201V202.039H451.633V201H457.902ZM464.218 201V202.039H457.949V201H464.218ZM470.534 201V202.039H464.266V201H470.534ZM476.851 201V202.039H470.582V201H476.851ZM483.167 201V202.039H476.899V201H483.167ZM489.484 201V202.039H483.215V201H489.484ZM495.8 201V202.039H489.531V201H495.8ZM502.116 201V202.039H495.848V201H502.116ZM508.433 201V202.039H502.164V201H508.433ZM514.749 201V202.039H508.481V201H514.749ZM110.766 223.047V233H109.447V223.047H110.766ZM114.936 227.524V228.604H110.479V227.524H114.936ZM115.613 223.047V224.127H110.479V223.047H115.613ZM116.508 229.384V229.227C116.508 228.693 116.586 228.199 116.74 227.743C116.895 227.283 117.119 226.884 117.41 226.547C117.702 226.205 118.055 225.941 118.47 225.754C118.885 225.562 119.35 225.467 119.865 225.467C120.384 225.467 120.851 225.562 121.266 225.754C121.685 225.941 122.041 226.205 122.332 226.547C122.628 226.884 122.854 227.283 123.009 227.743C123.164 228.199 123.241 228.693 123.241 229.227V229.384C123.241 229.917 123.164 230.411 123.009 230.867C122.854 231.323 122.628 231.722 122.332 232.063C122.041 232.401 121.687 232.665 121.273 232.856C120.863 233.043 120.398 233.137 119.878 233.137C119.359 233.137 118.892 233.043 118.477 232.856C118.062 232.665 117.707 232.401 117.41 232.063C117.119 231.722 116.895 231.323 116.74 230.867C116.586 230.411 116.508 229.917 116.508 229.384ZM117.773 229.227V229.384C117.773 229.753 117.816 230.102 117.903 230.43C117.989 230.753 118.119 231.04 118.292 231.291C118.47 231.542 118.691 231.74 118.955 231.886C119.22 232.027 119.527 232.098 119.878 232.098C120.225 232.098 120.528 232.027 120.787 231.886C121.052 231.74 121.27 231.542 121.444 231.291C121.617 231.04 121.747 230.753 121.833 230.43C121.924 230.102 121.97 229.753 121.97 229.384V229.227C121.97 228.862 121.924 228.518 121.833 228.194C121.747 227.866 121.615 227.577 121.437 227.326C121.264 227.071 121.045 226.87 120.781 226.725C120.521 226.579 120.215 226.506 119.865 226.506C119.518 226.506 119.213 226.579 118.948 226.725C118.689 226.87 118.47 227.071 118.292 227.326C118.119 227.577 117.989 227.866 117.903 228.194C117.816 228.518 117.773 228.862 117.773 229.227ZM126.092 226.766V233H124.827V225.604H126.058L126.092 226.766ZM128.403 225.562L128.396 226.738C128.291 226.715 128.191 226.702 128.095 226.697C128.004 226.688 127.899 226.684 127.781 226.684C127.489 226.684 127.231 226.729 127.008 226.82C126.785 226.911 126.596 227.039 126.441 227.203C126.286 227.367 126.163 227.563 126.072 227.791C125.985 228.014 125.928 228.26 125.901 228.529L125.545 228.734C125.545 228.288 125.588 227.868 125.675 227.477C125.766 227.085 125.905 226.738 126.092 226.438C126.279 226.132 126.516 225.895 126.803 225.727C127.095 225.553 127.441 225.467 127.842 225.467C127.933 225.467 128.038 225.478 128.156 225.501C128.275 225.519 128.357 225.54 128.403 225.562ZM134.309 227.025V235.844H133.037V225.604H134.199L134.309 227.025ZM139.292 229.24V229.384C139.292 229.922 139.228 230.421 139.101 230.881C138.973 231.337 138.786 231.733 138.54 232.07C138.299 232.408 138 232.67 137.645 232.856C137.289 233.043 136.881 233.137 136.421 233.137C135.952 233.137 135.537 233.059 135.177 232.904C134.817 232.749 134.512 232.524 134.261 232.228C134.01 231.931 133.81 231.576 133.659 231.161C133.514 230.746 133.413 230.279 133.359 229.76V228.994C133.413 228.447 133.516 227.957 133.666 227.524C133.817 227.091 134.015 226.722 134.261 226.417C134.512 226.107 134.815 225.872 135.17 225.713C135.526 225.549 135.936 225.467 136.401 225.467C136.865 225.467 137.278 225.558 137.638 225.74C137.998 225.918 138.301 226.173 138.547 226.506C138.793 226.839 138.978 227.237 139.101 227.702C139.228 228.162 139.292 228.675 139.292 229.24ZM138.021 229.384V229.24C138.021 228.871 137.982 228.525 137.905 228.201C137.827 227.873 137.706 227.586 137.542 227.34C137.383 227.089 137.178 226.893 136.927 226.752C136.676 226.606 136.378 226.533 136.031 226.533C135.712 226.533 135.434 226.588 135.198 226.697C134.965 226.807 134.767 226.955 134.603 227.142C134.439 227.324 134.304 227.534 134.199 227.771C134.099 228.003 134.024 228.244 133.974 228.495V230.266C134.065 230.585 134.193 230.885 134.357 231.168C134.521 231.446 134.74 231.672 135.013 231.845C135.286 232.013 135.63 232.098 136.045 232.098C136.387 232.098 136.681 232.027 136.927 231.886C137.178 231.74 137.383 231.542 137.542 231.291C137.706 231.04 137.827 230.753 137.905 230.43C137.982 230.102 138.021 229.753 138.021 229.384ZM145.267 231.735V227.928C145.267 227.636 145.208 227.383 145.089 227.169C144.975 226.95 144.802 226.782 144.57 226.663C144.337 226.545 144.05 226.485 143.708 226.485C143.389 226.485 143.109 226.54 142.867 226.649C142.63 226.759 142.444 226.902 142.307 227.08C142.175 227.258 142.109 227.449 142.109 227.654H140.844C140.844 227.39 140.912 227.128 141.049 226.868C141.186 226.608 141.382 226.374 141.637 226.164C141.897 225.95 142.207 225.781 142.567 225.658C142.931 225.531 143.337 225.467 143.783 225.467C144.321 225.467 144.795 225.558 145.205 225.74C145.62 225.923 145.944 226.198 146.176 226.567C146.413 226.932 146.531 227.39 146.531 227.941V231.387C146.531 231.633 146.552 231.895 146.593 232.173C146.639 232.451 146.705 232.69 146.791 232.891V233H145.472C145.408 232.854 145.358 232.66 145.322 232.419C145.285 232.173 145.267 231.945 145.267 231.735ZM145.486 228.516L145.499 229.404H144.221C143.861 229.404 143.54 229.434 143.257 229.493C142.975 229.548 142.738 229.632 142.546 229.746C142.355 229.86 142.209 230.004 142.109 230.177C142.008 230.345 141.958 230.544 141.958 230.771C141.958 231.004 142.011 231.216 142.115 231.407C142.22 231.599 142.378 231.751 142.587 231.865C142.801 231.975 143.063 232.029 143.373 232.029C143.761 232.029 144.102 231.947 144.399 231.783C144.695 231.619 144.93 231.419 145.103 231.182C145.281 230.945 145.376 230.715 145.39 230.491L145.93 231.1C145.898 231.291 145.811 231.503 145.67 231.735C145.529 231.968 145.34 232.191 145.103 232.405C144.87 232.615 144.592 232.79 144.269 232.932C143.95 233.068 143.59 233.137 143.189 233.137C142.687 233.137 142.248 233.039 141.869 232.843C141.496 232.647 141.204 232.385 140.994 232.057C140.789 231.724 140.687 231.353 140.687 230.942C140.687 230.546 140.764 230.197 140.919 229.896C141.074 229.591 141.297 229.338 141.589 229.138C141.881 228.933 142.232 228.778 142.642 228.673C143.052 228.568 143.51 228.516 144.016 228.516H145.486ZM149.785 226.766V233H148.521V225.604H149.751L149.785 226.766ZM152.096 225.562L152.089 226.738C151.984 226.715 151.884 226.702 151.788 226.697C151.697 226.688 151.592 226.684 151.474 226.684C151.182 226.684 150.925 226.729 150.701 226.82C150.478 226.911 150.289 227.039 150.134 227.203C149.979 227.367 149.856 227.563 149.765 227.791C149.678 228.014 149.621 228.26 149.594 228.529L149.239 228.734C149.239 228.288 149.282 227.868 149.368 227.477C149.46 227.085 149.599 226.738 149.785 226.438C149.972 226.132 150.209 225.895 150.496 225.727C150.788 225.553 151.134 225.467 151.535 225.467C151.627 225.467 151.731 225.478 151.85 225.501C151.968 225.519 152.05 225.54 152.096 225.562ZM156.703 225.604V226.574H152.704V225.604H156.703ZM154.058 223.806H155.323V231.168C155.323 231.419 155.361 231.608 155.439 231.735C155.516 231.863 155.616 231.947 155.74 231.988C155.863 232.029 155.995 232.05 156.136 232.05C156.241 232.05 156.35 232.041 156.464 232.022C156.583 232 156.671 231.981 156.731 231.968L156.738 233C156.637 233.032 156.505 233.062 156.341 233.089C156.182 233.121 155.988 233.137 155.76 233.137C155.45 233.137 155.165 233.075 154.906 232.952C154.646 232.829 154.438 232.624 154.283 232.337C154.133 232.045 154.058 231.653 154.058 231.161V223.806ZM159.561 225.604V233H158.289V225.604H159.561ZM158.194 223.642C158.194 223.437 158.255 223.263 158.378 223.122C158.506 222.981 158.693 222.91 158.939 222.91C159.18 222.91 159.365 222.981 159.492 223.122C159.625 223.263 159.691 223.437 159.691 223.642C159.691 223.838 159.625 224.006 159.492 224.147C159.365 224.284 159.18 224.353 158.939 224.353C158.693 224.353 158.506 224.284 158.378 224.147C158.255 224.006 158.194 223.838 158.194 223.642ZM164.551 232.098C164.852 232.098 165.13 232.036 165.385 231.913C165.64 231.79 165.85 231.621 166.014 231.407C166.178 231.188 166.271 230.94 166.294 230.662H167.497C167.475 231.1 167.326 231.507 167.053 231.886C166.784 232.259 166.431 232.562 165.993 232.795C165.556 233.023 165.075 233.137 164.551 233.137C163.995 233.137 163.51 233.039 163.095 232.843C162.685 232.647 162.343 232.378 162.07 232.036C161.801 231.694 161.598 231.302 161.461 230.86C161.329 230.414 161.263 229.942 161.263 229.445V229.158C161.263 228.661 161.329 228.192 161.461 227.75C161.598 227.303 161.801 226.909 162.07 226.567C162.343 226.226 162.685 225.957 163.095 225.761C163.51 225.565 163.995 225.467 164.551 225.467C165.13 225.467 165.636 225.585 166.069 225.822C166.502 226.055 166.841 226.374 167.087 226.779C167.338 227.18 167.475 227.636 167.497 228.146H166.294C166.271 227.841 166.185 227.565 166.034 227.319C165.889 227.073 165.688 226.877 165.433 226.731C165.182 226.581 164.888 226.506 164.551 226.506C164.164 226.506 163.838 226.583 163.573 226.738C163.314 226.889 163.106 227.094 162.951 227.354C162.801 227.609 162.692 227.894 162.623 228.208C162.559 228.518 162.528 228.835 162.528 229.158V229.445C162.528 229.769 162.559 230.088 162.623 230.402C162.687 230.717 162.794 231.002 162.945 231.257C163.1 231.512 163.307 231.717 163.567 231.872C163.831 232.022 164.159 232.098 164.551 232.098ZM170.293 225.604V233H169.022V225.604H170.293ZM168.926 223.642C168.926 223.437 168.988 223.263 169.111 223.122C169.238 222.981 169.425 222.91 169.671 222.91C169.913 222.91 170.097 222.981 170.225 223.122C170.357 223.263 170.423 223.437 170.423 223.642C170.423 223.838 170.357 224.006 170.225 224.147C170.097 224.284 169.913 224.353 169.671 224.353C169.425 224.353 169.238 224.284 169.111 224.147C168.988 224.006 168.926 223.838 168.926 223.642ZM173.588 227.025V235.844H172.317V225.604H173.479L173.588 227.025ZM178.572 229.24V229.384C178.572 229.922 178.508 230.421 178.38 230.881C178.253 231.337 178.066 231.733 177.82 232.07C177.578 232.408 177.28 232.67 176.924 232.856C176.569 233.043 176.161 233.137 175.7 233.137C175.231 233.137 174.816 233.059 174.456 232.904C174.096 232.749 173.791 232.524 173.54 232.228C173.29 231.931 173.089 231.576 172.939 231.161C172.793 230.746 172.693 230.279 172.638 229.76V228.994C172.693 228.447 172.795 227.957 172.946 227.524C173.096 227.091 173.294 226.722 173.54 226.417C173.791 226.107 174.094 225.872 174.449 225.713C174.805 225.549 175.215 225.467 175.68 225.467C176.145 225.467 176.557 225.558 176.917 225.74C177.277 225.918 177.58 226.173 177.826 226.506C178.073 226.839 178.257 227.237 178.38 227.702C178.508 228.162 178.572 228.675 178.572 229.24ZM177.3 229.384V229.24C177.3 228.871 177.261 228.525 177.184 228.201C177.106 227.873 176.986 227.586 176.822 227.34C176.662 227.089 176.457 226.893 176.206 226.752C175.956 226.606 175.657 226.533 175.311 226.533C174.992 226.533 174.714 226.588 174.477 226.697C174.244 226.807 174.046 226.955 173.882 227.142C173.718 227.324 173.584 227.534 173.479 227.771C173.378 228.003 173.303 228.244 173.253 228.495V230.266C173.344 230.585 173.472 230.885 173.636 231.168C173.8 231.446 174.019 231.672 174.292 231.845C174.566 232.013 174.91 232.098 175.324 232.098C175.666 232.098 175.96 232.027 176.206 231.886C176.457 231.74 176.662 231.542 176.822 231.291C176.986 231.04 177.106 230.753 177.184 230.43C177.261 230.102 177.3 229.753 177.3 229.384ZM184.546 231.735V227.928C184.546 227.636 184.487 227.383 184.368 227.169C184.254 226.95 184.081 226.782 183.849 226.663C183.616 226.545 183.329 226.485 182.988 226.485C182.669 226.485 182.388 226.54 182.147 226.649C181.91 226.759 181.723 226.902 181.586 227.08C181.454 227.258 181.388 227.449 181.388 227.654H180.123C180.123 227.39 180.192 227.128 180.328 226.868C180.465 226.608 180.661 226.374 180.916 226.164C181.176 225.95 181.486 225.781 181.846 225.658C182.211 225.531 182.616 225.467 183.063 225.467C183.601 225.467 184.074 225.558 184.485 225.74C184.899 225.923 185.223 226.198 185.455 226.567C185.692 226.932 185.811 227.39 185.811 227.941V231.387C185.811 231.633 185.831 231.895 185.872 232.173C185.918 232.451 185.984 232.69 186.071 232.891V233H184.751C184.687 232.854 184.637 232.66 184.601 232.419C184.564 232.173 184.546 231.945 184.546 231.735ZM184.765 228.516L184.779 229.404H183.5C183.14 229.404 182.819 229.434 182.536 229.493C182.254 229.548 182.017 229.632 181.825 229.746C181.634 229.86 181.488 230.004 181.388 230.177C181.288 230.345 181.238 230.544 181.238 230.771C181.238 231.004 181.29 231.216 181.395 231.407C181.5 231.599 181.657 231.751 181.866 231.865C182.081 231.975 182.343 232.029 182.653 232.029C183.04 232.029 183.382 231.947 183.678 231.783C183.974 231.619 184.209 231.419 184.382 231.182C184.56 230.945 184.656 230.715 184.669 230.491L185.209 231.1C185.177 231.291 185.091 231.503 184.949 231.735C184.808 231.968 184.619 232.191 184.382 232.405C184.15 232.615 183.872 232.79 183.548 232.932C183.229 233.068 182.869 233.137 182.468 233.137C181.967 233.137 181.527 233.039 181.149 232.843C180.775 232.647 180.483 232.385 180.274 232.057C180.069 231.724 179.966 231.353 179.966 230.942C179.966 230.546 180.044 230.197 180.198 229.896C180.353 229.591 180.577 229.338 180.868 229.138C181.16 228.933 181.511 228.778 181.921 228.673C182.331 228.568 182.789 228.516 183.295 228.516H184.765ZM190.897 225.604V226.574H186.898V225.604H190.897ZM188.251 223.806H189.516V231.168C189.516 231.419 189.555 231.608 189.632 231.735C189.71 231.863 189.81 231.947 189.933 231.988C190.056 232.029 190.188 232.05 190.329 232.05C190.434 232.05 190.544 232.041 190.657 232.022C190.776 232 190.865 231.981 190.924 231.968L190.931 233C190.831 233.032 190.698 233.062 190.534 233.089C190.375 233.121 190.181 233.137 189.953 233.137C189.643 233.137 189.359 233.075 189.099 232.952C188.839 232.829 188.632 232.624 188.477 232.337C188.326 232.045 188.251 231.653 188.251 231.161V223.806ZM193.754 225.604V233H192.483V225.604H193.754ZM192.387 223.642C192.387 223.437 192.448 223.263 192.572 223.122C192.699 222.981 192.886 222.91 193.132 222.91C193.374 222.91 193.558 222.981 193.686 223.122C193.818 223.263 193.884 223.437 193.884 223.642C193.884 223.838 193.818 224.006 193.686 224.147C193.558 224.284 193.374 224.353 193.132 224.353C192.886 224.353 192.699 224.284 192.572 224.147C192.448 224.006 192.387 223.838 192.387 223.642ZM195.449 229.384V229.227C195.449 228.693 195.527 228.199 195.682 227.743C195.837 227.283 196.06 226.884 196.352 226.547C196.643 226.205 196.997 225.941 197.411 225.754C197.826 225.562 198.291 225.467 198.806 225.467C199.325 225.467 199.793 225.562 200.207 225.754C200.627 225.941 200.982 226.205 201.274 226.547C201.57 226.884 201.795 227.283 201.95 227.743C202.105 228.199 202.183 228.693 202.183 229.227V229.384C202.183 229.917 202.105 230.411 201.95 230.867C201.795 231.323 201.57 231.722 201.274 232.063C200.982 232.401 200.629 232.665 200.214 232.856C199.804 233.043 199.339 233.137 198.82 233.137C198.3 233.137 197.833 233.043 197.418 232.856C197.003 232.665 196.648 232.401 196.352 232.063C196.06 231.722 195.837 231.323 195.682 230.867C195.527 230.411 195.449 229.917 195.449 229.384ZM196.714 229.227V229.384C196.714 229.753 196.757 230.102 196.844 230.43C196.931 230.753 197.06 231.04 197.234 231.291C197.411 231.542 197.632 231.74 197.897 231.886C198.161 232.027 198.469 232.098 198.82 232.098C199.166 232.098 199.469 232.027 199.729 231.886C199.993 231.74 200.212 231.542 200.385 231.291C200.558 231.04 200.688 230.753 200.775 230.43C200.866 230.102 200.911 229.753 200.911 229.384V229.227C200.911 228.862 200.866 228.518 200.775 228.194C200.688 227.866 200.556 227.577 200.378 227.326C200.205 227.071 199.986 226.87 199.722 226.725C199.462 226.579 199.157 226.506 198.806 226.506C198.46 226.506 198.154 226.579 197.89 226.725C197.63 226.87 197.411 227.071 197.234 227.326C197.06 227.577 196.931 227.866 196.844 228.194C196.757 228.518 196.714 228.862 196.714 229.227ZM205.033 227.183V233H203.769V225.604H204.965L205.033 227.183ZM204.733 229.021L204.206 229.001C204.211 228.495 204.286 228.028 204.432 227.6C204.578 227.167 204.783 226.791 205.047 226.472C205.311 226.153 205.626 225.907 205.99 225.733C206.36 225.556 206.767 225.467 207.214 225.467C207.579 225.467 207.907 225.517 208.198 225.617C208.49 225.713 208.739 225.868 208.944 226.082C209.153 226.296 209.313 226.574 209.422 226.916C209.531 227.253 209.586 227.666 209.586 228.153V233H208.315V228.14C208.315 227.752 208.258 227.442 208.144 227.21C208.03 226.973 207.864 226.802 207.645 226.697C207.426 226.588 207.157 226.533 206.838 226.533C206.524 226.533 206.237 226.599 205.977 226.731C205.722 226.864 205.501 227.046 205.314 227.278C205.131 227.511 204.988 227.777 204.883 228.078C204.783 228.374 204.733 228.689 204.733 229.021ZM216.354 225.604V233H215.082V225.604H216.354ZM214.987 223.642C214.987 223.437 215.048 223.263 215.171 223.122C215.299 222.981 215.486 222.91 215.732 222.91C215.973 222.91 216.158 222.981 216.285 223.122C216.418 223.263 216.484 223.437 216.484 223.642C216.484 223.838 216.418 224.006 216.285 224.147C216.158 224.284 215.973 224.353 215.732 224.353C215.486 224.353 215.299 224.284 215.171 224.147C215.048 224.006 214.987 223.838 214.987 223.642ZM219.649 227.183V233H218.384V225.604H219.58L219.649 227.183ZM219.348 229.021L218.822 229.001C218.826 228.495 218.901 228.028 219.047 227.6C219.193 227.167 219.398 226.791 219.662 226.472C219.927 226.153 220.241 225.907 220.606 225.733C220.975 225.556 221.383 225.467 221.829 225.467C222.194 225.467 222.522 225.517 222.814 225.617C223.105 225.713 223.354 225.868 223.559 226.082C223.768 226.296 223.928 226.574 224.037 226.916C224.147 227.253 224.201 227.666 224.201 228.153V233H222.93V228.14C222.93 227.752 222.873 227.442 222.759 227.21C222.645 226.973 222.479 226.802 222.26 226.697C222.041 226.588 221.772 226.533 221.453 226.533C221.139 226.533 220.852 226.599 220.592 226.731C220.337 226.864 220.116 227.046 219.929 227.278C219.747 227.511 219.603 227.777 219.498 228.078C219.398 228.374 219.348 228.689 219.348 229.021ZM231.454 233V234.039H225.186V233H231.454ZM237.771 233V234.039H231.502V233H237.771ZM244.087 233V234.039H237.819V233H244.087ZM250.404 233V234.039H244.135V233H250.404ZM256.72 233V234.039H250.451V233H256.72ZM263.036 233V234.039H256.768V233H263.036ZM269.353 233V234.039H263.084V233H269.353ZM275.669 233V234.039H269.401V233H275.669ZM281.986 233V234.039H275.717V233H281.986ZM288.302 233V234.039H282.033V233H288.302ZM294.618 233V234.039H288.35V233H294.618ZM300.935 233V234.039H294.666V233H300.935ZM307.251 233V234.039H300.983V233H307.251ZM313.568 233V234.039H307.299V233H313.568ZM319.884 233V234.039H313.615V233H319.884ZM326.2 233V234.039H319.932V233H326.2ZM332.517 233V234.039H326.248V233H332.517ZM338.833 233V234.039H332.565V233H338.833ZM345.15 233V234.039H338.881V233H345.15ZM351.466 233V234.039H345.198V233H351.466ZM357.782 233V234.039H351.514V233H357.782ZM364.099 233V234.039H357.83V233H364.099ZM368.549 222.5H369.821V231.564L369.711 233H368.549V222.5ZM374.818 229.24V229.384C374.818 229.922 374.754 230.421 374.626 230.881C374.499 231.337 374.312 231.733 374.066 232.07C373.82 232.408 373.519 232.67 373.163 232.856C372.808 233.043 372.4 233.137 371.94 233.137C371.47 233.137 371.058 233.057 370.702 232.897C370.351 232.733 370.055 232.499 369.814 232.193C369.572 231.888 369.378 231.519 369.233 231.086C369.091 230.653 368.993 230.165 368.939 229.623V228.994C368.993 228.447 369.091 227.957 369.233 227.524C369.378 227.091 369.572 226.722 369.814 226.417C370.055 226.107 370.351 225.872 370.702 225.713C371.053 225.549 371.461 225.467 371.926 225.467C372.391 225.467 372.803 225.558 373.163 225.74C373.523 225.918 373.824 226.173 374.066 226.506C374.312 226.839 374.499 227.237 374.626 227.702C374.754 228.162 374.818 228.675 374.818 229.24ZM373.546 229.384V229.24C373.546 228.871 373.512 228.525 373.444 228.201C373.375 227.873 373.266 227.586 373.115 227.34C372.965 227.089 372.767 226.893 372.521 226.752C372.275 226.606 371.972 226.533 371.612 226.533C371.293 226.533 371.015 226.588 370.778 226.697C370.545 226.807 370.347 226.955 370.183 227.142C370.019 227.324 369.884 227.534 369.78 227.771C369.679 228.003 369.604 228.244 369.554 228.495V230.143C369.627 230.462 369.745 230.769 369.909 231.065C370.078 231.357 370.301 231.596 370.579 231.783C370.862 231.97 371.211 232.063 371.625 232.063C371.967 232.063 372.259 231.995 372.5 231.858C372.746 231.717 372.945 231.523 373.095 231.277C373.25 231.031 373.364 230.746 373.437 230.423C373.51 230.099 373.546 229.753 373.546 229.384ZM378.413 232.234L380.471 225.604H381.824L378.858 234.142C378.789 234.324 378.698 234.52 378.584 234.729C378.475 234.944 378.334 235.146 378.16 235.338C377.987 235.529 377.778 235.684 377.531 235.803C377.29 235.926 377.001 235.987 376.663 235.987C376.563 235.987 376.435 235.974 376.281 235.946C376.126 235.919 376.016 235.896 375.952 235.878L375.946 234.853C375.982 234.857 376.039 234.862 376.116 234.866C376.198 234.875 376.255 234.88 376.287 234.88C376.574 234.88 376.818 234.841 377.019 234.764C377.219 234.691 377.388 234.565 377.525 234.388C377.666 234.215 377.787 233.975 377.887 233.67L378.413 232.234ZM376.903 225.604L378.823 231.346L379.152 232.679L378.242 233.144L375.522 225.604H376.903ZM391.771 233V234.039H385.502V233H391.771ZM398.087 233V234.039H391.819V233H398.087ZM404.404 233V234.039H398.135V233H404.404ZM410.72 233V234.039H404.451V233H410.72ZM417.036 233V234.039H410.768V233H417.036ZM423.353 233V234.039H417.084V233H423.353ZM429.669 233V234.039H423.401V233H429.669ZM435.986 233V234.039H429.717V233H435.986ZM442.302 233V234.039H436.033V233H442.302ZM448.618 233V234.039H442.35V233H448.618ZM454.935 233V234.039H448.666V233H454.935ZM461.251 233V234.039H454.983V233H461.251ZM467.568 233V234.039H461.299V233H467.568ZM473.884 233V234.039H467.615V233H473.884ZM480.2 233V234.039H473.932V233H480.2ZM486.517 233V234.039H480.248V233H486.517ZM492.833 233V234.039H486.565V233H492.833ZM499.15 233V234.039H492.881V233H499.15ZM505.466 233V234.039H499.198V233H505.466ZM511.782 233V234.039H505.514V233H511.782ZM518.099 233V234.039H511.83V233H518.099ZM524.415 233V234.039H518.147V233H524.415ZM530.732 233V234.039H524.463V233H530.732ZM537.048 233V234.039H530.78V233H537.048ZM543.365 233V234.039H537.096V233H543.365ZM549.681 233V234.039H543.412V233H549.681ZM555.997 233V234.039H549.729V233H555.997ZM562.314 233V234.039H556.045V233H562.314ZM568.63 233V234.039H562.362V233H568.63ZM574.947 233V234.039H568.678V233H574.947ZM581.263 233V234.039H574.994V233H581.263ZM587.579 233V234.039H581.311V233H587.579ZM593.896 233V234.039H587.627V233H593.896ZM600.212 233V234.039H593.944V233H600.212ZM606.529 233V234.039H600.26V233H606.529ZM612.845 233V234.039H606.576V233H612.845ZM348.281 297H346.202L346.216 295.927H348.281C348.991 295.927 349.584 295.779 350.058 295.482C350.532 295.182 350.887 294.762 351.124 294.225C351.366 293.682 351.487 293.049 351.487 292.324V291.716C351.487 291.146 351.418 290.64 351.281 290.198C351.145 289.752 350.944 289.376 350.68 289.07C350.416 288.76 350.092 288.526 349.709 288.366C349.331 288.207 348.896 288.127 348.404 288.127H346.161V287.047H348.404C349.055 287.047 349.65 287.156 350.188 287.375C350.726 287.589 351.188 287.901 351.575 288.312C351.967 288.717 352.268 289.209 352.478 289.788C352.687 290.362 352.792 291.009 352.792 291.729V292.324C352.792 293.044 352.687 293.694 352.478 294.272C352.268 294.847 351.965 295.337 351.569 295.742C351.177 296.148 350.703 296.46 350.147 296.679C349.595 296.893 348.973 297 348.281 297ZM346.906 287.047V297H345.587V287.047H346.906ZM358.945 295.735V291.928C358.945 291.636 358.885 291.383 358.767 291.169C358.653 290.95 358.48 290.782 358.247 290.663C358.015 290.545 357.728 290.485 357.386 290.485C357.067 290.485 356.787 290.54 356.545 290.649C356.308 290.759 356.121 290.902 355.985 291.08C355.852 291.258 355.786 291.449 355.786 291.654H354.522C354.522 291.39 354.59 291.128 354.727 290.868C354.864 290.608 355.059 290.374 355.315 290.164C355.574 289.95 355.884 289.781 356.244 289.658C356.609 289.531 357.015 289.467 357.461 289.467C357.999 289.467 358.473 289.558 358.883 289.74C359.298 289.923 359.621 290.198 359.854 290.567C360.091 290.932 360.209 291.39 360.209 291.941V295.387C360.209 295.633 360.23 295.895 360.271 296.173C360.316 296.451 360.382 296.69 360.469 296.891V297H359.15C359.086 296.854 359.036 296.66 358.999 296.419C358.963 296.173 358.945 295.945 358.945 295.735ZM359.163 292.516L359.177 293.404H357.899C357.539 293.404 357.217 293.434 356.935 293.493C356.652 293.548 356.415 293.632 356.224 293.746C356.032 293.86 355.887 294.004 355.786 294.177C355.686 294.345 355.636 294.544 355.636 294.771C355.636 295.004 355.688 295.216 355.793 295.407C355.898 295.599 356.055 295.751 356.265 295.865C356.479 295.975 356.741 296.029 357.051 296.029C357.438 296.029 357.78 295.947 358.076 295.783C358.373 295.619 358.607 295.419 358.781 295.182C358.958 294.945 359.054 294.715 359.068 294.491L359.608 295.1C359.576 295.291 359.489 295.503 359.348 295.735C359.207 295.968 359.017 296.191 358.781 296.405C358.548 296.615 358.27 296.79 357.947 296.932C357.628 297.068 357.267 297.137 356.866 297.137C356.365 297.137 355.925 297.039 355.547 296.843C355.173 296.647 354.882 296.385 354.672 296.057C354.467 295.724 354.365 295.353 354.365 294.942C354.365 294.546 354.442 294.197 354.597 293.896C354.752 293.591 354.975 293.338 355.267 293.138C355.559 292.933 355.909 292.778 356.32 292.673C356.73 292.568 357.188 292.516 357.694 292.516H359.163ZM365.295 289.604V290.574H361.296V289.604H365.295ZM362.65 287.806H363.914V295.168C363.914 295.419 363.953 295.608 364.031 295.735C364.108 295.863 364.208 295.947 364.331 295.988C364.454 296.029 364.587 296.05 364.728 296.05C364.833 296.05 364.942 296.041 365.056 296.022C365.174 296 365.263 295.981 365.323 295.968L365.329 297C365.229 297.032 365.097 297.062 364.933 297.089C364.773 297.121 364.58 297.137 364.352 297.137C364.042 297.137 363.757 297.075 363.497 296.952C363.238 296.829 363.03 296.624 362.875 296.337C362.725 296.045 362.65 295.653 362.65 295.161V287.806ZM369.848 297.137C369.333 297.137 368.866 297.05 368.447 296.877C368.032 296.699 367.674 296.451 367.373 296.132C367.077 295.813 366.849 295.435 366.69 294.997C366.53 294.56 366.45 294.081 366.45 293.562V293.274C366.45 292.673 366.539 292.137 366.717 291.668C366.895 291.194 367.136 290.793 367.442 290.465C367.747 290.137 368.093 289.888 368.481 289.72C368.868 289.551 369.269 289.467 369.684 289.467C370.212 289.467 370.668 289.558 371.051 289.74C371.438 289.923 371.755 290.178 372.001 290.506C372.247 290.829 372.43 291.212 372.548 291.654C372.667 292.092 372.726 292.57 372.726 293.09V293.657H367.202V292.625H371.461V292.529C371.443 292.201 371.375 291.882 371.256 291.572C371.142 291.262 370.96 291.007 370.709 290.807C370.459 290.606 370.117 290.506 369.684 290.506C369.397 290.506 369.132 290.567 368.891 290.69C368.649 290.809 368.442 290.987 368.269 291.224C368.096 291.461 367.961 291.75 367.865 292.092C367.77 292.434 367.722 292.828 367.722 293.274V293.562C367.722 293.912 367.77 294.243 367.865 294.553C367.966 294.858 368.109 295.127 368.296 295.359C368.488 295.592 368.718 295.774 368.987 295.906C369.26 296.038 369.57 296.104 369.916 296.104C370.363 296.104 370.741 296.013 371.051 295.831C371.361 295.649 371.632 295.405 371.865 295.1L372.63 295.708C372.471 295.95 372.268 296.18 372.022 296.398C371.776 296.617 371.473 296.795 371.113 296.932C370.757 297.068 370.336 297.137 369.848 297.137ZM386.48 297V298.039H380.211V297H386.48ZM392.796 297V298.039H386.528V297H392.796ZM399.113 297V298.039H392.844V297H399.113ZM405.429 297V298.039H399.16V297H405.429ZM411.745 297V298.039H405.477V297H411.745ZM418.062 297V298.039H411.793V297H418.062ZM424.378 297V298.039H418.11V297H424.378ZM430.695 297V298.039H424.426V297H430.695ZM437.011 297V298.039H430.742V297H437.011ZM443.327 297V298.039H437.059V297H443.327ZM449.644 297V298.039H443.375V297H449.644ZM455.96 297V298.039H449.692V297H455.96ZM489.101 287.047V297H487.775L482.764 289.323V297H481.445V287.047H482.764L487.795 294.744V287.047H489.101ZM495.773 295.291V289.604H497.044V297H495.834L495.773 295.291ZM496.012 293.732L496.538 293.719C496.538 294.211 496.486 294.667 496.381 295.086C496.281 295.501 496.117 295.861 495.889 296.166C495.661 296.471 495.363 296.711 494.993 296.884C494.624 297.052 494.175 297.137 493.647 297.137C493.287 297.137 492.956 297.084 492.656 296.979C492.359 296.875 492.104 296.713 491.89 296.494C491.676 296.275 491.509 295.991 491.391 295.64C491.277 295.289 491.22 294.867 491.22 294.375V289.604H492.485V294.389C492.485 294.721 492.521 294.997 492.594 295.216C492.671 295.43 492.774 295.601 492.902 295.729C493.034 295.852 493.18 295.938 493.339 295.988C493.503 296.038 493.672 296.063 493.845 296.063C494.383 296.063 494.809 295.961 495.123 295.756C495.438 295.546 495.663 295.266 495.8 294.915C495.941 294.56 496.012 294.165 496.012 293.732ZM500.23 291.073V297H498.958V289.604H500.161L500.23 291.073ZM499.97 293.021L499.382 293.001C499.387 292.495 499.453 292.028 499.58 291.6C499.708 291.167 499.897 290.791 500.148 290.472C500.398 290.153 500.711 289.907 501.084 289.733C501.458 289.556 501.891 289.467 502.383 289.467C502.729 289.467 503.048 289.517 503.34 289.617C503.632 289.713 503.885 289.866 504.099 290.075C504.313 290.285 504.479 290.554 504.598 290.882C504.716 291.21 504.776 291.606 504.776 292.071V297H503.511V292.133C503.511 291.745 503.445 291.436 503.313 291.203C503.185 290.971 503.003 290.802 502.766 290.697C502.529 290.588 502.251 290.533 501.932 290.533C501.558 290.533 501.246 290.599 500.995 290.731C500.745 290.864 500.544 291.046 500.394 291.278C500.243 291.511 500.134 291.777 500.066 292.078C500.002 292.374 499.97 292.689 499.97 293.021ZM504.762 292.324L503.914 292.584C503.919 292.178 503.985 291.789 504.113 291.415C504.245 291.041 504.434 290.709 504.68 290.417C504.931 290.125 505.238 289.895 505.603 289.727C505.967 289.553 506.384 289.467 506.854 289.467C507.25 289.467 507.601 289.519 507.906 289.624C508.216 289.729 508.476 289.891 508.686 290.109C508.9 290.324 509.062 290.599 509.171 290.937C509.281 291.274 509.335 291.675 509.335 292.14V297H508.064V292.126C508.064 291.711 507.998 291.39 507.865 291.162C507.738 290.93 507.556 290.768 507.319 290.677C507.086 290.581 506.808 290.533 506.485 290.533C506.207 290.533 505.961 290.581 505.746 290.677C505.532 290.772 505.352 290.905 505.206 291.073C505.06 291.237 504.949 291.426 504.871 291.641C504.798 291.855 504.762 292.083 504.762 292.324ZM511.27 296.33C511.27 296.116 511.336 295.936 511.468 295.79C511.605 295.64 511.801 295.564 512.056 295.564C512.311 295.564 512.505 295.64 512.637 295.79C512.774 295.936 512.842 296.116 512.842 296.33C512.842 296.54 512.774 296.717 512.637 296.863C512.505 297.009 512.311 297.082 512.056 297.082C511.801 297.082 511.605 297.009 511.468 296.863C511.336 296.717 511.27 296.54 511.27 296.33ZM519.678 286.5V297H518.413V286.5H519.678ZM519.377 293.021L518.851 293.001C518.855 292.495 518.931 292.028 519.076 291.6C519.222 291.167 519.427 290.791 519.692 290.472C519.956 290.153 520.27 289.907 520.635 289.733C521.004 289.556 521.412 289.467 521.859 289.467C522.223 289.467 522.551 289.517 522.843 289.617C523.135 289.713 523.383 289.868 523.588 290.082C523.798 290.296 523.957 290.574 524.067 290.916C524.176 291.253 524.231 291.666 524.231 292.153V297H522.959V292.14C522.959 291.752 522.902 291.442 522.788 291.21C522.674 290.973 522.508 290.802 522.289 290.697C522.071 290.588 521.802 290.533 521.483 290.533C521.168 290.533 520.881 290.599 520.621 290.731C520.366 290.864 520.145 291.046 519.958 291.278C519.776 291.511 519.632 291.777 519.528 292.078C519.427 292.374 519.377 292.689 519.377 293.021ZM526.145 296.33C526.145 296.116 526.211 295.936 526.343 295.79C526.48 295.64 526.676 295.564 526.931 295.564C527.186 295.564 527.38 295.64 527.512 295.79C527.649 295.936 527.717 296.116 527.717 296.33C527.717 296.54 527.649 296.717 527.512 296.863C527.38 297.009 527.186 297.082 526.931 297.082C526.676 297.082 526.48 297.009 526.343 296.863C526.211 296.717 526.145 296.54 526.145 296.33ZM538.62 297V298.039H532.352V297H538.62ZM544.937 297V298.039H538.668V297H544.937ZM551.253 297V298.039H544.985V297H551.253ZM557.57 297V298.039H551.301V297H557.57ZM563.886 297V298.039H557.617V297H563.886ZM570.202 297V298.039H563.934V297H570.202ZM576.519 297V298.039H570.25V297H576.519ZM582.835 297V298.039H576.567V297H582.835ZM589.152 297V298.039H582.883V297H589.152ZM595.468 297V298.039H589.199V297H595.468ZM601.784 297V298.039H595.516V297H601.784ZM608.101 297V298.039H601.832V297H608.101ZM614.417 297V298.039H608.149V297H614.417Z" fill="black"/>
<path d="M0.634292 300.338L84.6347 47.7185L144.701 108.578L0.634349 319.717L0.634292 300.338Z" fill="#AFB133" stroke="#A2A44A"/>
<path d="M0.134327 300.257L0.134336 0.0405524L99.9866 8.42005e-05L0.134327 300.257Z" fill="#0A0909"/>
</svg>
