<svg width="750" height="400" viewBox="0 0 750 400" fill="none" xmlns="http://www.w3.org/2000/svg">
<rect width="750" height="400" fill="#4ABCA8"/>
<rect x="43.5636" y="32.6761" width="662.873" height="333.521" fill="#FFFEFE"/>
<line x1="5.70959" y1="6.76056" x2="5.70959" y2="394.366" stroke="#FFFCFC" stroke-width="2"/>
<line x1="4.70959" y1="393.366" x2="744.113" y2="393.366" stroke="white" stroke-width="2"/>
<line x1="743.113" y1="394.366" x2="743.113" y2="6.76059" stroke="#FFFAFA" stroke-width="2"/>
<line y1="-1" x2="739.404" y2="-1" transform="matrix(0.999999 0.00152388 -0.00166391 0.999999 4.70959 6.76056)" stroke="#FFF8F8" stroke-width="2"/>
<rect x="37.4992" y="28.0423" width="675.002" height="343.915" stroke="white" stroke-width="2"/>
<path d="M307.234 108.479H309.109C309.012 109.377 308.755 110.181 308.338 110.891C307.921 111.6 307.332 112.163 306.57 112.58C305.809 112.99 304.858 113.195 303.719 113.195C302.885 113.195 302.127 113.039 301.443 112.727C300.766 112.414 300.184 111.971 299.695 111.398C299.207 110.819 298.829 110.126 298.562 109.318C298.302 108.505 298.172 107.6 298.172 106.604V105.188C298.172 104.191 298.302 103.29 298.562 102.482C298.829 101.669 299.21 100.972 299.705 100.393C300.206 99.8132 300.809 99.3672 301.512 99.0547C302.215 98.7422 303.006 98.5859 303.885 98.5859C304.959 98.5859 305.867 98.7878 306.609 99.1914C307.352 99.5951 307.928 100.155 308.338 100.871C308.755 101.581 309.012 102.404 309.109 103.342H307.234C307.143 102.678 306.974 102.108 306.727 101.633C306.479 101.151 306.128 100.78 305.672 100.52C305.216 100.259 304.62 100.129 303.885 100.129C303.253 100.129 302.697 100.249 302.215 100.49C301.74 100.731 301.339 101.073 301.014 101.516C300.695 101.958 300.454 102.489 300.291 103.107C300.128 103.726 300.047 104.413 300.047 105.168V106.604C300.047 107.3 300.118 107.954 300.262 108.566C300.411 109.178 300.636 109.715 300.936 110.178C301.235 110.64 301.616 111.005 302.078 111.271C302.54 111.532 303.087 111.662 303.719 111.662C304.52 111.662 305.158 111.535 305.633 111.281C306.108 111.027 306.466 110.663 306.707 110.188C306.954 109.712 307.13 109.143 307.234 108.479ZM320.711 111.467V113H313.182V111.467H320.711ZM313.562 98.7812V113H311.678V98.7812H313.562ZM319.715 104.895V106.428H313.182V104.895H319.715ZM320.613 98.7812V100.324H313.182V98.7812H320.613ZM328.289 107.424H324.49V105.891H328.289C329.025 105.891 329.62 105.773 330.076 105.539C330.532 105.305 330.864 104.979 331.072 104.562C331.287 104.146 331.395 103.671 331.395 103.137C331.395 102.648 331.287 102.189 331.072 101.76C330.864 101.33 330.532 100.985 330.076 100.725C329.62 100.458 329.025 100.324 328.289 100.324H324.93V113H323.045V98.7812H328.289C329.363 98.7812 330.271 98.9668 331.014 99.3379C331.756 99.709 332.319 100.223 332.703 100.881C333.087 101.532 333.279 102.277 333.279 103.117C333.279 104.029 333.087 104.807 332.703 105.451C332.319 106.096 331.756 106.587 331.014 106.926C330.271 107.258 329.363 107.424 328.289 107.424ZM340.916 98.7812V113H339.061V98.7812H340.916ZM345.486 98.7812V100.324H334.5V98.7812H345.486ZM349.559 109.738L356.561 98.7812H358.445V113H356.561V102.033L349.559 113H347.684V98.7812H349.559V109.738ZM366.805 100.197H369.158C369.979 100.197 370.737 100.337 371.434 100.617C372.137 100.891 372.749 101.281 373.27 101.789C373.797 102.297 374.207 102.902 374.5 103.605C374.793 104.302 374.939 105.074 374.939 105.92C374.939 106.766 374.793 107.541 374.5 108.244C374.207 108.947 373.797 109.556 373.27 110.07C372.749 110.578 372.137 110.972 371.434 111.252C370.737 111.525 369.979 111.662 369.158 111.662H366.805C365.984 111.662 365.226 111.525 364.529 111.252C363.833 110.972 363.221 110.578 362.693 110.07C362.173 109.562 361.766 108.96 361.473 108.264C361.186 107.561 361.043 106.786 361.043 105.939C361.043 105.093 361.186 104.322 361.473 103.625C361.766 102.922 362.173 102.316 362.693 101.809C363.221 101.294 363.833 100.897 364.529 100.617C365.226 100.337 365.984 100.197 366.805 100.197ZM366.805 101.682C365.952 101.682 365.229 101.861 364.637 102.219C364.044 102.57 363.595 103.065 363.289 103.703C362.983 104.341 362.83 105.087 362.83 105.939C362.83 106.584 362.915 107.167 363.084 107.688C363.26 108.208 363.517 108.654 363.855 109.025C364.194 109.396 364.611 109.683 365.105 109.885C365.6 110.087 366.167 110.188 366.805 110.188H369.178C370.024 110.188 370.74 110.012 371.326 109.66C371.919 109.302 372.368 108.804 372.674 108.166C372.986 107.521 373.143 106.773 373.143 105.92C373.143 105.282 373.055 104.702 372.879 104.182C372.703 103.661 372.446 103.215 372.107 102.844C371.775 102.473 371.362 102.186 370.867 101.984C370.379 101.783 369.816 101.682 369.178 101.682H366.805ZM368.895 98.1953V113.586H367.088V98.1953H368.895ZM379.344 98.7812V113H377.459V98.7812H379.344ZM384.744 98.7812V113H382.859V98.7812H384.744ZM393.504 98.7812L387.332 106.604H383.992L383.699 105.041H386.209L391.17 98.7812H393.504ZM391.609 113L386.268 106.359L387.322 104.709L393.914 113H391.609ZM400.887 100.041L396.18 113H394.256L399.676 98.7812H400.916L400.887 100.041ZM404.832 113L400.115 100.041L400.086 98.7812H401.326L406.766 113H404.832ZM404.588 107.736V109.279H396.6V107.736H404.588ZM412.654 98.7812V113H410.799V98.7812H412.654ZM417.225 98.7812V100.324H406.238V98.7812H417.225Z" fill="black"/>
<path d="M171.375 196.345H168.853L168.839 195.285H171.129C171.507 195.285 171.838 195.221 172.12 195.094C172.403 194.966 172.621 194.784 172.776 194.547C172.936 194.305 173.016 194.018 173.016 193.686C173.016 193.321 172.945 193.025 172.804 192.797C172.667 192.564 172.455 192.396 172.168 192.291C171.885 192.182 171.525 192.127 171.088 192.127H169.146V201H167.827V191.047H171.088C171.598 191.047 172.054 191.099 172.455 191.204C172.856 191.304 173.196 191.464 173.474 191.683C173.756 191.897 173.97 192.17 174.116 192.503C174.262 192.836 174.335 193.234 174.335 193.699C174.335 194.109 174.23 194.481 174.021 194.813C173.811 195.142 173.519 195.41 173.146 195.62C172.776 195.83 172.343 195.964 171.847 196.023L171.375 196.345ZM171.313 201H168.333L169.078 199.927H171.313C171.733 199.927 172.088 199.854 172.38 199.708C172.676 199.562 172.902 199.357 173.057 199.093C173.212 198.824 173.289 198.507 173.289 198.143C173.289 197.773 173.223 197.454 173.091 197.186C172.959 196.917 172.751 196.709 172.469 196.563C172.186 196.418 171.822 196.345 171.375 196.345H169.495L169.509 195.285H172.079L172.359 195.668C172.838 195.709 173.243 195.846 173.576 196.078C173.909 196.306 174.162 196.598 174.335 196.953C174.513 197.309 174.602 197.701 174.602 198.129C174.602 198.749 174.465 199.273 174.191 199.701C173.923 200.125 173.542 200.449 173.05 200.672C172.558 200.891 171.979 201 171.313 201ZM177.726 198.997L181.137 193.604H182.408V201H181.137V195.606L177.726 201H176.468V193.604H177.726V198.997ZM185.771 193.604H187.036L186.927 196.372C186.899 197.074 186.82 197.68 186.688 198.19C186.555 198.701 186.387 199.136 186.182 199.496C185.977 199.852 185.746 200.15 185.491 200.392C185.241 200.633 184.981 200.836 184.712 201H184.083L184.117 199.968L184.377 199.961C184.527 199.783 184.673 199.601 184.814 199.414C184.956 199.223 185.086 198.997 185.204 198.737C185.323 198.473 185.421 198.152 185.498 197.773C185.58 197.391 185.632 196.924 185.655 196.372L185.771 193.604ZM186.086 193.604H190.536V201H189.271V194.772H186.086V193.604ZM183.796 199.961H191.486V203.181H190.222V201H185.061V203.181H183.789L183.796 199.961ZM197.249 199.735V195.928C197.249 195.636 197.19 195.383 197.071 195.169C196.957 194.95 196.784 194.782 196.552 194.663C196.319 194.545 196.032 194.485 195.69 194.485C195.371 194.485 195.091 194.54 194.85 194.649C194.613 194.759 194.426 194.902 194.289 195.08C194.157 195.258 194.091 195.449 194.091 195.654H192.826C192.826 195.39 192.895 195.128 193.031 194.868C193.168 194.608 193.364 194.374 193.619 194.164C193.879 193.95 194.189 193.781 194.549 193.658C194.913 193.531 195.319 193.467 195.766 193.467C196.303 193.467 196.777 193.558 197.188 193.74C197.602 193.923 197.926 194.198 198.158 194.567C198.395 194.932 198.514 195.39 198.514 195.941V199.387C198.514 199.633 198.534 199.895 198.575 200.173C198.621 200.451 198.687 200.69 198.773 200.891V201H197.454C197.39 200.854 197.34 200.66 197.304 200.419C197.267 200.173 197.249 199.945 197.249 199.735ZM197.468 196.516L197.481 197.404H196.203C195.843 197.404 195.522 197.434 195.239 197.493C194.957 197.548 194.72 197.632 194.528 197.746C194.337 197.86 194.191 198.004 194.091 198.177C193.991 198.345 193.94 198.544 193.94 198.771C193.94 199.004 193.993 199.216 194.098 199.407C194.202 199.599 194.36 199.751 194.569 199.865C194.784 199.975 195.046 200.029 195.355 200.029C195.743 200.029 196.085 199.947 196.381 199.783C196.677 199.619 196.912 199.419 197.085 199.182C197.263 198.945 197.358 198.715 197.372 198.491L197.912 199.1C197.88 199.291 197.794 199.503 197.652 199.735C197.511 199.968 197.322 200.191 197.085 200.405C196.853 200.615 196.575 200.79 196.251 200.932C195.932 201.068 195.572 201.137 195.171 201.137C194.67 201.137 194.23 201.039 193.852 200.843C193.478 200.647 193.186 200.385 192.977 200.057C192.771 199.724 192.669 199.353 192.669 198.942C192.669 198.546 192.746 198.197 192.901 197.896C193.056 197.591 193.28 197.338 193.571 197.138C193.863 196.933 194.214 196.778 194.624 196.673C195.034 196.568 195.492 196.516 195.998 196.516H197.468ZM205.521 196.81V197.835H201.61V196.81H205.521ZM201.877 193.604V201H200.612V193.604H201.877ZM206.546 193.604V201H205.274V193.604H206.546ZM209.95 198.997L213.361 193.604H214.633V201H213.361V195.606L209.95 201H208.692V193.604H209.95V198.997ZM218.03 198.997L221.441 193.604H222.713V201H221.441V195.606L218.03 201H216.772V193.604H218.03V198.997ZM220.751 190.924H221.776C221.776 191.279 221.694 191.596 221.53 191.874C221.366 192.147 221.132 192.362 220.826 192.517C220.521 192.672 220.159 192.749 219.739 192.749C219.106 192.749 218.604 192.58 218.235 192.243C217.871 191.901 217.688 191.462 217.688 190.924H218.714C218.714 191.193 218.791 191.43 218.946 191.635C219.101 191.84 219.366 191.942 219.739 191.942C220.104 191.942 220.364 191.84 220.519 191.635C220.674 191.43 220.751 191.193 220.751 190.924ZM233.548 201V202.039H227.279V201H233.548ZM239.864 201V202.039H233.596V201H239.864ZM246.181 201V202.039H239.912V201H246.181ZM252.497 201V202.039H246.229V201H252.497ZM258.813 201V202.039H252.545V201H258.813ZM265.13 201V202.039H258.861V201H265.13ZM271.446 201V202.039H265.178V201H271.446ZM277.763 201V202.039H271.494V201H277.763ZM284.079 201V202.039H277.811V201H284.079ZM290.396 201V202.039H284.127V201H290.396ZM296.712 201V202.039H290.443V201H296.712ZM303.028 201V202.039H296.76V201H303.028ZM309.345 201V202.039H303.076V201H309.345ZM315.661 201V202.039H309.393V201H315.661ZM321.978 201V202.039H315.709V201H321.978ZM328.294 201V202.039H322.025V201H328.294ZM334.61 201V202.039H328.342V201H334.61ZM340.927 201V202.039H334.658V201H340.927ZM347.243 201V202.039H340.975V201H347.243ZM353.56 201V202.039H347.291V201H353.56ZM359.876 201V202.039H353.607V201H359.876ZM366.192 201V202.039H359.924V201H366.192ZM372.509 201V202.039H366.24V201H372.509ZM378.825 201V202.039H372.557V201H378.825ZM385.142 201V202.039H378.873V201H385.142ZM391.458 201V202.039H385.189V201H391.458ZM397.774 201V202.039H391.506V201H397.774ZM404.091 201V202.039H397.822V201H404.091ZM410.407 201V202.039H404.139V201H410.407ZM416.724 201V202.039H410.455V201H416.724ZM423.04 201V202.039H416.771V201H423.04ZM429.356 201V202.039H423.088V201H429.356ZM435.673 201V202.039H429.404V201H435.673ZM441.989 201V202.039H435.721V201H441.989ZM448.306 201V202.039H442.037V201H448.306ZM454.622 201V202.039H448.354V201H454.622ZM460.938 201V202.039H454.67V201H460.938ZM467.255 201V202.039H460.986V201H467.255ZM473.571 201V202.039H467.303V201H473.571ZM479.888 201V202.039H473.619V201H479.888ZM486.204 201V202.039H479.936V201H486.204ZM492.521 201V202.039H486.252V201H492.521ZM498.837 201V202.039H492.568V201H498.837ZM505.153 201V202.039H498.885V201H505.153ZM511.47 201V202.039H505.201V201H511.47ZM517.786 201V202.039H511.518V201H517.786ZM524.103 201V202.039H517.834V201H524.103ZM530.419 201V202.039H524.15V201H530.419ZM536.735 201V202.039H530.467V201H536.735ZM543.052 201V202.039H536.783V201H543.052ZM549.368 201V202.039H543.1V201H549.368ZM129.204 228.222H128.021V227.381H129.156C129.658 227.381 130.063 227.31 130.373 227.169C130.683 227.028 130.909 226.832 131.05 226.581C131.191 226.33 131.262 226.041 131.262 225.713C131.262 225.398 131.184 225.111 131.029 224.852C130.874 224.587 130.635 224.378 130.312 224.223C129.988 224.063 129.571 223.983 129.061 223.983C128.678 223.983 128.331 224.056 128.021 224.202C127.712 224.343 127.465 224.542 127.283 224.797C127.101 225.048 127.01 225.337 127.01 225.665H125.69C125.69 225.241 125.779 224.861 125.957 224.523C126.135 224.182 126.379 223.892 126.688 223.655C126.998 223.414 127.356 223.229 127.762 223.102C128.172 222.974 128.605 222.91 129.061 222.91C129.594 222.91 130.077 222.972 130.51 223.095C130.943 223.213 131.314 223.391 131.624 223.628C131.934 223.865 132.171 224.159 132.335 224.51C132.499 224.861 132.581 225.269 132.581 225.733C132.581 226.075 132.501 226.396 132.342 226.697C132.182 226.998 131.954 227.262 131.658 227.49C131.362 227.718 131.007 227.898 130.592 228.03C130.177 228.158 129.715 228.222 129.204 228.222ZM128.021 227.641H129.204C129.765 227.641 130.264 227.698 130.701 227.812C131.139 227.925 131.508 228.092 131.809 228.311C132.109 228.529 132.337 228.8 132.492 229.124C132.652 229.443 132.731 229.81 132.731 230.225C132.731 230.689 132.64 231.102 132.458 231.462C132.28 231.822 132.027 232.127 131.699 232.378C131.371 232.629 130.981 232.818 130.53 232.945C130.084 233.073 129.594 233.137 129.061 233.137C128.632 233.137 128.208 233.082 127.789 232.973C127.374 232.859 126.998 232.686 126.661 232.453C126.324 232.216 126.053 231.915 125.848 231.551C125.647 231.186 125.547 230.749 125.547 230.238H126.866C126.866 230.571 126.957 230.876 127.14 231.154C127.326 231.432 127.584 231.656 127.912 231.824C128.24 231.988 128.623 232.07 129.061 232.07C129.562 232.07 129.986 231.993 130.332 231.838C130.683 231.678 130.95 231.462 131.132 231.188C131.319 230.91 131.412 230.598 131.412 230.252C131.412 229.947 131.362 229.682 131.262 229.459C131.166 229.231 131.022 229.044 130.831 228.898C130.644 228.753 130.41 228.646 130.127 228.577C129.849 228.504 129.525 228.468 129.156 228.468H128.021V227.641ZM138.638 231.735V227.928C138.638 227.636 138.578 227.383 138.46 227.169C138.346 226.95 138.173 226.782 137.94 226.663C137.708 226.545 137.421 226.485 137.079 226.485C136.76 226.485 136.48 226.54 136.238 226.649C136.001 226.759 135.814 226.902 135.678 227.08C135.546 227.258 135.479 227.449 135.479 227.654H134.215C134.215 227.39 134.283 227.128 134.42 226.868C134.557 226.608 134.753 226.374 135.008 226.164C135.268 225.95 135.577 225.781 135.938 225.658C136.302 225.531 136.708 225.467 137.154 225.467C137.692 225.467 138.166 225.558 138.576 225.74C138.991 225.923 139.314 226.198 139.547 226.567C139.784 226.932 139.902 227.39 139.902 227.941V231.387C139.902 231.633 139.923 231.895 139.964 232.173C140.009 232.451 140.076 232.69 140.162 232.891V233H138.843C138.779 232.854 138.729 232.66 138.692 232.419C138.656 232.173 138.638 231.945 138.638 231.735ZM138.856 228.516L138.87 229.404H137.592C137.232 229.404 136.91 229.434 136.628 229.493C136.345 229.548 136.108 229.632 135.917 229.746C135.726 229.86 135.58 230.004 135.479 230.177C135.379 230.345 135.329 230.544 135.329 230.771C135.329 231.004 135.382 231.216 135.486 231.407C135.591 231.599 135.748 231.751 135.958 231.865C136.172 231.975 136.434 232.029 136.744 232.029C137.132 232.029 137.473 231.947 137.77 231.783C138.066 231.619 138.3 231.419 138.474 231.182C138.651 230.945 138.747 230.715 138.761 230.491L139.301 231.1C139.269 231.291 139.182 231.503 139.041 231.735C138.9 231.968 138.711 232.191 138.474 232.405C138.241 232.615 137.963 232.79 137.64 232.932C137.321 233.068 136.961 233.137 136.56 233.137C136.058 233.137 135.618 233.039 135.24 232.843C134.867 232.647 134.575 232.385 134.365 232.057C134.16 231.724 134.058 231.353 134.058 230.942C134.058 230.546 134.135 230.197 134.29 229.896C134.445 229.591 134.668 229.338 134.96 229.138C135.252 228.933 135.603 228.778 136.013 228.673C136.423 228.568 136.881 228.516 137.387 228.516H138.856ZM147.442 232.234L149.5 225.604H150.854L147.887 234.142C147.818 234.324 147.727 234.52 147.613 234.729C147.504 234.944 147.363 235.146 147.189 235.338C147.016 235.529 146.807 235.684 146.561 235.803C146.319 235.926 146.03 235.987 145.692 235.987C145.592 235.987 145.465 235.974 145.31 235.946C145.155 235.919 145.045 235.896 144.981 235.878L144.975 234.853C145.011 234.857 145.068 234.862 145.146 234.866C145.228 234.875 145.285 234.88 145.316 234.88C145.604 234.88 145.847 234.841 146.048 234.764C146.248 234.691 146.417 234.565 146.554 234.388C146.695 234.215 146.816 233.975 146.916 233.67L147.442 232.234ZM145.932 225.604L147.853 231.346L148.181 232.679L147.271 233.144L144.551 225.604H145.932ZM157.573 225.604V233H156.309V225.604H157.573ZM157.143 229.001V230.04C156.887 230.136 156.628 230.222 156.363 230.3C156.104 230.373 155.828 230.432 155.536 230.478C155.249 230.519 154.937 230.539 154.6 230.539C154.016 230.539 153.51 230.439 153.082 230.238C152.654 230.033 152.323 229.726 152.091 229.315C151.858 228.901 151.742 228.379 151.742 227.75V225.59H153.007V227.75C153.007 228.16 153.068 228.493 153.191 228.748C153.314 229.003 153.494 229.192 153.731 229.315C153.968 229.434 154.258 229.493 154.6 229.493C154.928 229.493 155.235 229.473 155.522 229.432C155.814 229.386 156.092 229.327 156.356 229.254C156.625 229.181 156.887 229.097 157.143 229.001ZM163.972 231.735V227.928C163.972 227.636 163.912 227.383 163.794 227.169C163.68 226.95 163.507 226.782 163.274 226.663C163.042 226.545 162.755 226.485 162.413 226.485C162.094 226.485 161.814 226.54 161.572 226.649C161.335 226.759 161.148 226.902 161.012 227.08C160.88 227.258 160.813 227.449 160.813 227.654H159.549C159.549 227.39 159.617 227.128 159.754 226.868C159.891 226.608 160.087 226.374 160.342 226.164C160.602 225.95 160.911 225.781 161.271 225.658C161.636 225.531 162.042 225.467 162.488 225.467C163.026 225.467 163.5 225.558 163.91 225.74C164.325 225.923 164.648 226.198 164.881 226.567C165.118 226.932 165.236 227.39 165.236 227.941V231.387C165.236 231.633 165.257 231.895 165.298 232.173C165.343 232.451 165.41 232.69 165.496 232.891V233H164.177C164.113 232.854 164.063 232.66 164.026 232.419C163.99 232.173 163.972 231.945 163.972 231.735ZM164.19 228.516L164.204 229.404H162.926C162.566 229.404 162.244 229.434 161.962 229.493C161.679 229.548 161.442 229.632 161.251 229.746C161.06 229.86 160.914 230.004 160.813 230.177C160.713 230.345 160.663 230.544 160.663 230.771C160.663 231.004 160.715 231.216 160.82 231.407C160.925 231.599 161.082 231.751 161.292 231.865C161.506 231.975 161.768 232.029 162.078 232.029C162.465 232.029 162.807 231.947 163.104 231.783C163.4 231.619 163.634 231.419 163.808 231.182C163.985 230.945 164.081 230.715 164.095 230.491L164.635 231.1C164.603 231.291 164.516 231.503 164.375 231.735C164.234 231.968 164.045 232.191 163.808 232.405C163.575 232.615 163.297 232.79 162.974 232.932C162.655 233.068 162.295 233.137 161.894 233.137C161.392 233.137 160.952 233.039 160.574 232.843C160.201 232.647 159.909 232.385 159.699 232.057C159.494 231.724 159.392 231.353 159.392 230.942C159.392 230.546 159.469 230.197 159.624 229.896C159.779 229.591 160.002 229.338 160.294 229.138C160.586 228.933 160.937 228.778 161.347 228.673C161.757 228.568 162.215 228.516 162.721 228.516H164.19ZM170.186 232.098C170.486 232.098 170.764 232.036 171.02 231.913C171.275 231.79 171.484 231.621 171.648 231.407C171.812 231.188 171.906 230.94 171.929 230.662H173.132C173.109 231.1 172.961 231.507 172.688 231.886C172.419 232.259 172.065 232.562 171.628 232.795C171.19 233.023 170.71 233.137 170.186 233.137C169.63 233.137 169.144 233.039 168.729 232.843C168.319 232.647 167.978 232.378 167.704 232.036C167.435 231.694 167.232 231.302 167.096 230.86C166.964 230.414 166.897 229.942 166.897 229.445V229.158C166.897 228.661 166.964 228.192 167.096 227.75C167.232 227.303 167.435 226.909 167.704 226.567C167.978 226.226 168.319 225.957 168.729 225.761C169.144 225.565 169.63 225.467 170.186 225.467C170.764 225.467 171.27 225.585 171.703 225.822C172.136 226.055 172.476 226.374 172.722 226.779C172.972 227.18 173.109 227.636 173.132 228.146H171.929C171.906 227.841 171.819 227.565 171.669 227.319C171.523 227.073 171.323 226.877 171.067 226.731C170.817 226.581 170.523 226.506 170.186 226.506C169.798 226.506 169.472 226.583 169.208 226.738C168.948 226.889 168.741 227.094 168.586 227.354C168.436 227.609 168.326 227.894 168.258 228.208C168.194 228.518 168.162 228.835 168.162 229.158V229.445C168.162 229.769 168.194 230.088 168.258 230.402C168.322 230.717 168.429 231.002 168.579 231.257C168.734 231.512 168.941 231.717 169.201 231.872C169.465 232.022 169.794 232.098 170.186 232.098ZM177.568 225.604V233H176.297V225.604H177.568ZM180.05 225.604V226.629H173.863V225.604H180.05ZM182.333 228.146H184.555C185.152 228.146 185.655 228.251 186.065 228.461C186.476 228.666 186.785 228.951 186.995 229.315C187.209 229.675 187.316 230.086 187.316 230.546C187.316 230.888 187.257 231.209 187.139 231.51C187.02 231.806 186.842 232.066 186.605 232.289C186.373 232.512 186.084 232.688 185.737 232.815C185.396 232.938 185.001 233 184.555 233H181.41V225.604H182.675V231.961H184.555C184.919 231.961 185.211 231.895 185.43 231.763C185.648 231.631 185.806 231.46 185.901 231.25C185.997 231.04 186.045 230.822 186.045 230.594C186.045 230.37 185.997 230.152 185.901 229.938C185.806 229.723 185.648 229.546 185.43 229.404C185.211 229.258 184.919 229.186 184.555 229.186H182.333V228.146ZM194.446 232.234L196.504 225.604H197.857L194.891 234.142C194.822 234.324 194.731 234.52 194.617 234.729C194.508 234.944 194.367 235.146 194.193 235.338C194.02 235.529 193.811 235.684 193.564 235.803C193.323 235.926 193.034 235.987 192.696 235.987C192.596 235.987 192.468 235.974 192.313 235.946C192.159 235.919 192.049 235.896 191.985 235.878L191.979 234.853C192.015 234.857 192.072 234.862 192.149 234.866C192.231 234.875 192.288 234.88 192.32 234.88C192.607 234.88 192.851 234.841 193.052 234.764C193.252 234.691 193.421 234.565 193.558 234.388C193.699 234.215 193.82 233.975 193.92 233.67L194.446 232.234ZM192.936 225.604L194.856 231.346L195.185 232.679L194.275 233.144L191.555 225.604H192.936ZM204.331 233V234.039H198.062V233H204.331ZM210.647 233V234.039H204.379V233H210.647ZM216.964 233V234.039H210.695V233H216.964ZM223.28 233V234.039H217.012V233H223.28ZM229.597 233V234.039H223.328V233H229.597ZM235.913 233V234.039H229.645V233H235.913ZM242.229 233V234.039H235.961V233H242.229ZM248.546 233V234.039H242.277V233H248.546ZM254.862 233V234.039H248.594V233H254.862ZM261.179 233V234.039H254.91V233H261.179ZM267.495 233V234.039H261.227V233H267.495ZM273.812 233V234.039H267.543V233H273.812ZM280.128 233V234.039H273.859V233H280.128ZM286.444 233V234.039H280.176V233H286.444ZM292.761 233V234.039H286.492V233H292.761ZM299.077 233V234.039H292.809V233H299.077ZM305.394 233V234.039H299.125V233H305.394ZM311.71 233V234.039H305.441V233H311.71ZM318.026 233V234.039H311.758V233H318.026ZM324.343 233V234.039H318.074V233H324.343ZM330.659 233V234.039H324.391V233H330.659ZM336.976 233V234.039H330.707V233H336.976ZM344.905 229.746H342.479L342.465 228.734H344.447C344.839 228.734 345.165 228.696 345.425 228.618C345.689 228.541 345.887 228.424 346.02 228.27C346.152 228.115 346.218 227.923 346.218 227.695C346.218 227.518 346.179 227.363 346.102 227.23C346.029 227.094 345.917 226.982 345.767 226.896C345.616 226.804 345.429 226.738 345.206 226.697C344.987 226.652 344.73 226.629 344.434 226.629H342.813V233H341.549V225.604H344.434C344.903 225.604 345.325 225.645 345.698 225.727C346.076 225.809 346.398 225.934 346.662 226.103C346.931 226.267 347.136 226.476 347.277 226.731C347.419 226.987 347.489 227.287 347.489 227.634C347.489 227.857 347.444 228.069 347.353 228.27C347.261 228.47 347.127 228.648 346.949 228.803C346.771 228.958 346.553 229.085 346.293 229.186C346.033 229.281 345.735 229.343 345.397 229.37L344.905 229.746ZM344.905 233H342.021L342.649 231.975H344.905C345.256 231.975 345.548 231.931 345.78 231.845C346.013 231.754 346.186 231.626 346.3 231.462C346.418 231.293 346.478 231.093 346.478 230.86C346.478 230.628 346.418 230.43 346.3 230.266C346.186 230.097 346.013 229.969 345.78 229.883C345.548 229.792 345.256 229.746 344.905 229.746H342.984L342.998 228.734H345.397L345.855 229.117C346.261 229.149 346.605 229.249 346.888 229.418C347.17 229.587 347.384 229.801 347.53 230.061C347.676 230.316 347.749 230.594 347.749 230.895C347.749 231.241 347.683 231.546 347.551 231.811C347.423 232.075 347.236 232.296 346.99 232.474C346.744 232.647 346.446 232.779 346.095 232.87C345.744 232.957 345.347 233 344.905 233ZM350.812 230.997L354.223 225.604H355.494V233H354.223V227.606L350.812 233H349.554V225.604H350.812V230.997ZM358.898 225.604V233H357.634V225.604H358.898ZM363.752 225.604L360.245 229.842H358.475L358.283 228.734H359.732L362.214 225.604H363.752ZM362.392 233L359.671 229.65L360.484 228.734L363.998 233H362.392ZM370.041 225.604V226.649H366.466V225.604H370.041ZM371.155 225.604V233H369.891V225.604H371.155ZM366.158 225.604H367.43L367.238 229.172C367.206 229.723 367.154 230.211 367.081 230.635C367.013 231.054 366.917 231.414 366.794 231.715C366.675 232.016 366.525 232.262 366.343 232.453C366.165 232.64 365.951 232.779 365.7 232.87C365.45 232.957 365.16 233 364.832 233H364.436V231.886L364.709 231.865C364.905 231.852 365.071 231.806 365.208 231.729C365.349 231.651 365.468 231.537 365.563 231.387C365.659 231.232 365.737 231.034 365.796 230.792C365.86 230.55 365.908 230.263 365.939 229.931C365.976 229.598 366.003 229.211 366.021 228.769L366.158 225.604ZM377.554 231.735V227.928C377.554 227.636 377.494 227.383 377.376 227.169C377.262 226.95 377.089 226.782 376.856 226.663C376.624 226.545 376.337 226.485 375.995 226.485C375.676 226.485 375.396 226.54 375.154 226.649C374.917 226.759 374.73 226.902 374.594 227.08C374.462 227.258 374.396 227.449 374.396 227.654H373.131C373.131 227.39 373.199 227.128 373.336 226.868C373.473 226.608 373.669 226.374 373.924 226.164C374.184 225.95 374.493 225.781 374.854 225.658C375.218 225.531 375.624 225.467 376.07 225.467C376.608 225.467 377.082 225.558 377.492 225.74C377.907 225.923 378.23 226.198 378.463 226.567C378.7 226.932 378.818 227.39 378.818 227.941V231.387C378.818 231.633 378.839 231.895 378.88 232.173C378.925 232.451 378.992 232.69 379.078 232.891V233H377.759C377.695 232.854 377.645 232.66 377.608 232.419C377.572 232.173 377.554 231.945 377.554 231.735ZM377.772 228.516L377.786 229.404H376.508C376.148 229.404 375.826 229.434 375.544 229.493C375.261 229.548 375.024 229.632 374.833 229.746C374.642 229.86 374.496 230.004 374.396 230.177C374.295 230.345 374.245 230.544 374.245 230.771C374.245 231.004 374.298 231.216 374.402 231.407C374.507 231.599 374.664 231.751 374.874 231.865C375.088 231.975 375.35 232.029 375.66 232.029C376.048 232.029 376.389 231.947 376.686 231.783C376.982 231.619 377.216 231.419 377.39 231.182C377.567 230.945 377.663 230.715 377.677 230.491L378.217 231.1C378.185 231.291 378.098 231.503 377.957 231.735C377.816 231.968 377.627 232.191 377.39 232.405C377.157 232.615 376.879 232.79 376.556 232.932C376.237 233.068 375.877 233.137 375.476 233.137C374.974 233.137 374.535 233.039 374.156 232.843C373.783 232.647 373.491 232.385 373.281 232.057C373.076 231.724 372.974 231.353 372.974 230.942C372.974 230.546 373.051 230.197 373.206 229.896C373.361 229.591 373.584 229.338 373.876 229.138C374.168 228.933 374.519 228.778 374.929 228.673C375.339 228.568 375.797 228.516 376.303 228.516H377.772ZM382.141 225.604H383.405L383.296 228.372C383.269 229.074 383.189 229.68 383.057 230.19C382.924 230.701 382.756 231.136 382.551 231.496C382.346 231.852 382.116 232.15 381.86 232.392C381.61 232.633 381.35 232.836 381.081 233H380.452L380.486 231.968L380.746 231.961C380.896 231.783 381.042 231.601 381.184 231.414C381.325 231.223 381.455 230.997 381.573 230.737C381.692 230.473 381.79 230.152 381.867 229.773C381.949 229.391 382.002 228.924 382.024 228.372L382.141 225.604ZM382.455 225.604H386.905V233H385.641V226.772H382.455V225.604ZM380.165 231.961H387.855V235.181H386.591V233H381.43V235.181H380.158L380.165 231.961ZM393.618 231.735V227.928C393.618 227.636 393.559 227.383 393.44 227.169C393.326 226.95 393.153 226.782 392.921 226.663C392.688 226.545 392.401 226.485 392.06 226.485C391.741 226.485 391.46 226.54 391.219 226.649C390.982 226.759 390.795 226.902 390.658 227.08C390.526 227.258 390.46 227.449 390.46 227.654H389.195C389.195 227.39 389.264 227.128 389.4 226.868C389.537 226.608 389.733 226.374 389.988 226.164C390.248 225.95 390.558 225.781 390.918 225.658C391.283 225.531 391.688 225.467 392.135 225.467C392.673 225.467 393.146 225.558 393.557 225.74C393.971 225.923 394.295 226.198 394.527 226.567C394.764 226.932 394.883 227.39 394.883 227.941V231.387C394.883 231.633 394.903 231.895 394.944 232.173C394.99 232.451 395.056 232.69 395.143 232.891V233H393.823C393.759 232.854 393.709 232.66 393.673 232.419C393.636 232.173 393.618 231.945 393.618 231.735ZM393.837 228.516L393.851 229.404H392.572C392.212 229.404 391.891 229.434 391.608 229.493C391.326 229.548 391.089 229.632 390.897 229.746C390.706 229.86 390.56 230.004 390.46 230.177C390.36 230.345 390.31 230.544 390.31 230.771C390.31 231.004 390.362 231.216 390.467 231.407C390.572 231.599 390.729 231.751 390.938 231.865C391.153 231.975 391.415 232.029 391.725 232.029C392.112 232.029 392.454 231.947 392.75 231.783C393.046 231.619 393.281 231.419 393.454 231.182C393.632 230.945 393.728 230.715 393.741 230.491L394.281 231.1C394.249 231.291 394.163 231.503 394.021 231.735C393.88 231.968 393.691 232.191 393.454 232.405C393.222 232.615 392.944 232.79 392.62 232.932C392.301 233.068 391.941 233.137 391.54 233.137C391.039 233.137 390.599 233.039 390.221 232.843C389.847 232.647 389.555 232.385 389.346 232.057C389.141 231.724 389.038 231.353 389.038 230.942C389.038 230.546 389.116 230.197 389.271 229.896C389.425 229.591 389.649 229.338 389.94 229.138C390.232 228.933 390.583 228.778 390.993 228.673C391.403 228.568 391.861 228.516 392.367 228.516H393.837ZM402.45 225.604V233H401.186V225.604H402.45ZM402.02 229.001V230.04C401.764 230.136 401.505 230.222 401.24 230.3C400.98 230.373 400.705 230.432 400.413 230.478C400.126 230.519 399.814 230.539 399.477 230.539C398.893 230.539 398.387 230.439 397.959 230.238C397.531 230.033 397.2 229.726 396.968 229.315C396.735 228.901 396.619 228.379 396.619 227.75V225.59H397.884V227.75C397.884 228.16 397.945 228.493 398.068 228.748C398.191 229.003 398.371 229.192 398.608 229.315C398.845 229.434 399.135 229.493 399.477 229.493C399.805 229.493 400.112 229.473 400.399 229.432C400.691 229.386 400.969 229.327 401.233 229.254C401.502 229.181 401.764 229.097 402.02 229.001ZM407.557 233.137C407.042 233.137 406.575 233.05 406.155 232.877C405.741 232.699 405.383 232.451 405.082 232.132C404.786 231.813 404.558 231.435 404.398 230.997C404.239 230.56 404.159 230.081 404.159 229.562V229.274C404.159 228.673 404.248 228.137 404.426 227.668C404.604 227.194 404.845 226.793 405.15 226.465C405.456 226.137 405.802 225.888 406.189 225.72C406.577 225.551 406.978 225.467 407.393 225.467C407.921 225.467 408.377 225.558 408.76 225.74C409.147 225.923 409.464 226.178 409.71 226.506C409.956 226.829 410.138 227.212 410.257 227.654C410.375 228.092 410.435 228.57 410.435 229.09V229.657H404.911V228.625H409.17V228.529C409.152 228.201 409.083 227.882 408.965 227.572C408.851 227.262 408.669 227.007 408.418 226.807C408.167 226.606 407.826 226.506 407.393 226.506C407.105 226.506 406.841 226.567 406.6 226.69C406.358 226.809 406.151 226.987 405.978 227.224C405.804 227.461 405.67 227.75 405.574 228.092C405.479 228.434 405.431 228.828 405.431 229.274V229.562C405.431 229.912 405.479 230.243 405.574 230.553C405.674 230.858 405.818 231.127 406.005 231.359C406.196 231.592 406.426 231.774 406.695 231.906C406.969 232.038 407.279 232.104 407.625 232.104C408.072 232.104 408.45 232.013 408.76 231.831C409.07 231.649 409.341 231.405 409.573 231.1L410.339 231.708C410.179 231.95 409.977 232.18 409.73 232.398C409.484 232.617 409.181 232.795 408.821 232.932C408.466 233.068 408.044 233.137 407.557 233.137ZM416.163 231.318L418.679 225.604H419.896L416.601 233H415.726L412.444 225.604H413.661L416.163 231.318ZM413.292 225.604V233H412.027V225.604H413.292ZM418.993 233V225.604H420.265V233H418.993ZM431.106 233V234.039H424.838V233H431.106ZM437.423 233V234.039H431.154V233H437.423ZM443.739 233V234.039H437.471V233H443.739ZM450.056 233V234.039H443.787V233H450.056ZM456.372 233V234.039H450.104V233H456.372ZM462.688 233V234.039H456.42V233H462.688ZM469.005 233V234.039H462.736V233H469.005ZM475.321 233V234.039H469.053V233H475.321ZM481.638 233V234.039H475.369V233H481.638ZM487.954 233V234.039H481.686V233H487.954ZM494.271 233V234.039H488.002V233H494.271ZM500.587 233V234.039H494.318V233H500.587ZM506.903 233V234.039H500.635V233H506.903ZM513.22 233V234.039H506.951V233H513.22ZM519.536 233V234.039H513.268V233H519.536ZM525.853 233V234.039H519.584V233H525.853ZM532.169 233V234.039H525.9V233H532.169ZM538.485 233V234.039H532.217V233H538.485ZM544.802 233V234.039H538.533V233H544.802ZM551.118 233V234.039H544.85V233H551.118ZM557.435 233V234.039H551.166V233H557.435ZM563.751 233V234.039H557.482V233H563.751ZM570.067 233V234.039H563.799V233H570.067ZM576.384 233V234.039H570.115V233H576.384ZM582.7 233V234.039H576.432V233H582.7ZM589.017 233V234.039H582.748V233H589.017ZM595.333 233V234.039H589.064V233H595.333ZM601.649 233V234.039H595.381V233H601.649ZM607.966 233V234.039H601.697V233H607.966ZM614.282 233V234.039H608.014V233H614.282ZM620.599 233V234.039H614.33V233H620.599ZM626.915 233V234.039H620.646V233H626.915ZM633.231 233V234.039H626.963V233H633.231ZM639.548 233V234.039H633.279V233H639.548ZM133.982 295.927V297H126.449V295.927H133.982ZM126.661 295.927V299.447H125.355L125.349 295.927H126.661ZM135.131 295.927L135.117 299.44H133.812V295.927H135.131ZM132.69 287.047V288.127H128.329V287.047H132.69ZM133.825 287.047V297H132.513V287.047H133.825ZM127.878 287.047H129.197L128.992 291.053C128.965 291.654 128.908 292.21 128.821 292.721C128.735 293.227 128.628 293.689 128.5 294.108C128.372 294.528 128.227 294.904 128.062 295.236C127.898 295.564 127.723 295.849 127.536 296.091C127.349 296.328 127.153 296.524 126.948 296.679C126.748 296.829 126.545 296.936 126.34 297H125.738V295.927H126.162C126.281 295.799 126.415 295.615 126.565 295.373C126.72 295.132 126.873 294.819 127.023 294.437C127.178 294.049 127.313 293.577 127.427 293.021C127.545 292.465 127.625 291.809 127.666 291.053L127.878 287.047ZM140.853 295.735V291.928C140.853 291.636 140.793 291.383 140.675 291.169C140.561 290.95 140.388 290.782 140.155 290.663C139.923 290.545 139.636 290.485 139.294 290.485C138.975 290.485 138.695 290.54 138.453 290.649C138.216 290.759 138.029 290.902 137.893 291.08C137.76 291.258 137.694 291.449 137.694 291.654H136.43C136.43 291.39 136.498 291.128 136.635 290.868C136.771 290.608 136.967 290.374 137.223 290.164C137.482 289.95 137.792 289.781 138.152 289.658C138.517 289.531 138.923 289.467 139.369 289.467C139.907 289.467 140.381 289.558 140.791 289.74C141.206 289.923 141.529 290.198 141.762 290.567C141.999 290.932 142.117 291.39 142.117 291.941V295.387C142.117 295.633 142.138 295.895 142.179 296.173C142.224 296.451 142.29 296.69 142.377 296.891V297H141.058C140.994 296.854 140.944 296.66 140.907 296.419C140.871 296.173 140.853 295.945 140.853 295.735ZM141.071 292.516L141.085 293.404H139.807C139.447 293.404 139.125 293.434 138.843 293.493C138.56 293.548 138.323 293.632 138.132 293.746C137.94 293.86 137.795 294.004 137.694 294.177C137.594 294.345 137.544 294.544 137.544 294.771C137.544 295.004 137.596 295.216 137.701 295.407C137.806 295.599 137.963 295.751 138.173 295.865C138.387 295.975 138.649 296.029 138.959 296.029C139.346 296.029 139.688 295.947 139.984 295.783C140.281 295.619 140.515 295.419 140.688 295.182C140.866 294.945 140.962 294.715 140.976 294.491L141.516 295.1C141.484 295.291 141.397 295.503 141.256 295.735C141.115 295.968 140.925 296.191 140.688 296.405C140.456 296.615 140.178 296.79 139.854 296.932C139.535 297.068 139.175 297.137 138.774 297.137C138.273 297.137 137.833 297.039 137.455 296.843C137.081 296.647 136.79 296.385 136.58 296.057C136.375 295.724 136.272 295.353 136.272 294.942C136.272 294.546 136.35 294.197 136.505 293.896C136.66 293.591 136.883 293.338 137.175 293.138C137.466 292.933 137.817 292.778 138.228 292.673C138.638 292.568 139.096 292.516 139.602 292.516H141.071ZM147.012 289.604V297H145.74V289.604H147.012ZM149.493 289.604V290.629H143.307V289.604H149.493ZM154.989 295.735V291.928C154.989 291.636 154.93 291.383 154.812 291.169C154.698 290.95 154.524 290.782 154.292 290.663C154.06 290.545 153.772 290.485 153.431 290.485C153.112 290.485 152.831 290.54 152.59 290.649C152.353 290.759 152.166 290.902 152.029 291.08C151.897 291.258 151.831 291.449 151.831 291.654H150.566C150.566 291.39 150.635 291.128 150.771 290.868C150.908 290.608 151.104 290.374 151.359 290.164C151.619 289.95 151.929 289.781 152.289 289.658C152.654 289.531 153.059 289.467 153.506 289.467C154.044 289.467 154.518 289.558 154.928 289.74C155.342 289.923 155.666 290.198 155.898 290.567C156.135 290.932 156.254 291.39 156.254 291.941V295.387C156.254 295.633 156.274 295.895 156.315 296.173C156.361 296.451 156.427 296.69 156.514 296.891V297H155.194C155.131 296.854 155.08 296.66 155.044 296.419C155.007 296.173 154.989 295.945 154.989 295.735ZM155.208 292.516L155.222 293.404H153.943C153.583 293.404 153.262 293.434 152.979 293.493C152.697 293.548 152.46 293.632 152.269 293.746C152.077 293.86 151.931 294.004 151.831 294.177C151.731 294.345 151.681 294.544 151.681 294.771C151.681 295.004 151.733 295.216 151.838 295.407C151.943 295.599 152.1 295.751 152.31 295.865C152.524 295.975 152.786 296.029 153.096 296.029C153.483 296.029 153.825 295.947 154.121 295.783C154.417 295.619 154.652 295.419 154.825 295.182C155.003 294.945 155.099 294.715 155.112 294.491L155.652 295.1C155.62 295.291 155.534 295.503 155.393 295.735C155.251 295.968 155.062 296.191 154.825 296.405C154.593 296.615 154.315 296.79 153.991 296.932C153.672 297.068 153.312 297.137 152.911 297.137C152.41 297.137 151.97 297.039 151.592 296.843C151.218 296.647 150.926 296.385 150.717 296.057C150.512 295.724 150.409 295.353 150.409 294.942C150.409 294.546 150.487 294.197 150.642 293.896C150.797 293.591 151.02 293.338 151.312 293.138C151.603 292.933 151.954 292.778 152.364 292.673C152.774 292.568 153.232 292.516 153.738 292.516H155.208ZM170.521 297V298.039H164.252V297H170.521ZM176.837 297V298.039H170.568V297H176.837ZM183.153 297V298.039H176.885V297H183.153ZM189.47 297V298.039H183.201V297H189.47ZM195.786 297V298.039H189.518V297H195.786ZM202.103 297V298.039H195.834V297H202.103ZM208.419 297V298.039H202.15V297H208.419ZM214.735 297V298.039H208.467V297H214.735ZM221.052 297V298.039H214.783V297H221.052ZM227.368 297V298.039H221.1V297H227.368ZM233.685 297V298.039H227.416V297H233.685ZM240.001 297V298.039H233.732V297H240.001ZM266.866 287.047V297H265.547V287.047H266.866ZM272.998 287.047L268.678 292.522H266.34L266.135 291.429H267.892L271.364 287.047H272.998ZM271.672 297L267.933 292.352L268.671 291.196L273.285 297H271.672ZM275.664 289.604V297H274.393V289.604H275.664ZM274.297 287.642C274.297 287.437 274.358 287.263 274.481 287.122C274.609 286.981 274.796 286.91 275.042 286.91C275.284 286.91 275.468 286.981 275.596 287.122C275.728 287.263 275.794 287.437 275.794 287.642C275.794 287.838 275.728 288.006 275.596 288.147C275.468 288.284 275.284 288.353 275.042 288.353C274.796 288.353 274.609 288.284 274.481 288.147C274.358 288.006 274.297 287.838 274.297 287.642ZM282.637 289.604V290.649H279.062V289.604H282.637ZM283.751 289.604V297H282.486V289.604H283.751ZM278.754 289.604H280.025L279.834 293.172C279.802 293.723 279.75 294.211 279.677 294.635C279.608 295.054 279.513 295.414 279.39 295.715C279.271 296.016 279.121 296.262 278.938 296.453C278.761 296.64 278.547 296.779 278.296 296.87C278.045 296.957 277.756 297 277.428 297H277.031V295.886L277.305 295.865C277.501 295.852 277.667 295.806 277.804 295.729C277.945 295.651 278.063 295.537 278.159 295.387C278.255 295.232 278.332 295.034 278.392 294.792C278.455 294.55 278.503 294.263 278.535 293.931C278.572 293.598 278.599 293.211 278.617 292.769L278.754 289.604ZM286.827 292.146H289.049C289.646 292.146 290.149 292.251 290.56 292.461C290.97 292.666 291.28 292.951 291.489 293.315C291.703 293.675 291.811 294.086 291.811 294.546C291.811 294.888 291.751 295.209 291.633 295.51C291.514 295.806 291.337 296.066 291.1 296.289C290.867 296.512 290.578 296.688 290.231 296.815C289.89 296.938 289.495 297 289.049 297H285.904V289.604H287.169V295.961H289.049C289.413 295.961 289.705 295.895 289.924 295.763C290.143 295.631 290.3 295.46 290.396 295.25C290.491 295.04 290.539 294.822 290.539 294.594C290.539 294.37 290.491 294.152 290.396 293.938C290.3 293.723 290.143 293.546 289.924 293.404C289.705 293.258 289.413 293.186 289.049 293.186H286.827V292.146ZM294.764 289.604V297H293.499V289.604H294.764ZM299.617 289.604L296.11 293.842H294.34L294.148 292.734H295.598L298.079 289.604H299.617ZM298.257 297L295.536 293.65L296.35 292.734L299.863 297H298.257ZM302.338 289.604V297H301.066V289.604H302.338ZM300.971 287.642C300.971 287.437 301.032 287.263 301.155 287.122C301.283 286.981 301.47 286.91 301.716 286.91C301.957 286.91 302.142 286.981 302.27 287.122C302.402 287.263 302.468 287.437 302.468 287.642C302.468 287.838 302.402 288.006 302.27 288.147C302.142 288.284 301.957 288.353 301.716 288.353C301.47 288.353 301.283 288.284 301.155 288.147C301.032 288.006 300.971 287.838 300.971 287.642ZM307.328 296.098C307.629 296.098 307.907 296.036 308.162 295.913C308.417 295.79 308.627 295.621 308.791 295.407C308.955 295.188 309.049 294.94 309.071 294.662H310.274C310.252 295.1 310.104 295.507 309.83 295.886C309.561 296.259 309.208 296.562 308.771 296.795C308.333 297.023 307.852 297.137 307.328 297.137C306.772 297.137 306.287 297.039 305.872 296.843C305.462 296.647 305.12 296.378 304.847 296.036C304.578 295.694 304.375 295.302 304.238 294.86C304.106 294.414 304.04 293.942 304.04 293.445V293.158C304.04 292.661 304.106 292.192 304.238 291.75C304.375 291.303 304.578 290.909 304.847 290.567C305.12 290.226 305.462 289.957 305.872 289.761C306.287 289.565 306.772 289.467 307.328 289.467C307.907 289.467 308.413 289.585 308.846 289.822C309.279 290.055 309.618 290.374 309.864 290.779C310.115 291.18 310.252 291.636 310.274 292.146H309.071C309.049 291.841 308.962 291.565 308.812 291.319C308.666 291.073 308.465 290.877 308.21 290.731C307.959 290.581 307.665 290.506 307.328 290.506C306.941 290.506 306.615 290.583 306.351 290.738C306.091 290.889 305.883 291.094 305.729 291.354C305.578 291.609 305.469 291.894 305.4 292.208C305.337 292.518 305.305 292.835 305.305 293.158V293.445C305.305 293.769 305.337 294.088 305.4 294.402C305.464 294.717 305.571 295.002 305.722 295.257C305.877 295.512 306.084 295.717 306.344 295.872C306.608 296.022 306.936 296.098 307.328 296.098ZM314.711 289.604V297H313.439V289.604H314.711ZM317.192 289.604V290.629H311.006V289.604H317.192ZM319.476 292.146H321.697C322.294 292.146 322.798 292.251 323.208 292.461C323.618 292.666 323.928 292.951 324.138 293.315C324.352 293.675 324.459 294.086 324.459 294.546C324.459 294.888 324.4 295.209 324.281 295.51C324.163 295.806 323.985 296.066 323.748 296.289C323.516 296.512 323.226 296.688 322.88 296.815C322.538 296.938 322.144 297 321.697 297H318.553V289.604H319.817V295.961H321.697C322.062 295.961 322.354 295.895 322.572 295.763C322.791 295.631 322.948 295.46 323.044 295.25C323.14 295.04 323.188 294.822 323.188 294.594C323.188 294.37 323.14 294.152 323.044 293.938C322.948 293.723 322.791 293.546 322.572 293.404C322.354 293.258 322.062 293.186 321.697 293.186H319.476V292.146ZM334.289 289.604V290.649H330.871V297H329.606V289.604H334.289ZM334.918 293.384V293.227C334.918 292.693 334.995 292.199 335.15 291.743C335.305 291.283 335.529 290.884 335.82 290.547C336.112 290.205 336.465 289.941 336.88 289.754C337.295 289.562 337.759 289.467 338.274 289.467C338.794 289.467 339.261 289.562 339.676 289.754C340.095 289.941 340.451 290.205 340.742 290.547C341.038 290.884 341.264 291.283 341.419 291.743C341.574 292.199 341.651 292.693 341.651 293.227V293.384C341.651 293.917 341.574 294.411 341.419 294.867C341.264 295.323 341.038 295.722 340.742 296.063C340.451 296.401 340.097 296.665 339.683 296.856C339.272 297.043 338.808 297.137 338.288 297.137C337.769 297.137 337.301 297.043 336.887 296.856C336.472 296.665 336.117 296.401 335.82 296.063C335.529 295.722 335.305 295.323 335.15 294.867C334.995 294.411 334.918 293.917 334.918 293.384ZM336.183 293.227V293.384C336.183 293.753 336.226 294.102 336.312 294.43C336.399 294.753 336.529 295.04 336.702 295.291C336.88 295.542 337.101 295.74 337.365 295.886C337.63 296.027 337.937 296.098 338.288 296.098C338.634 296.098 338.938 296.027 339.197 295.886C339.462 295.74 339.68 295.542 339.854 295.291C340.027 295.04 340.157 294.753 340.243 294.43C340.334 294.102 340.38 293.753 340.38 293.384V293.227C340.38 292.862 340.334 292.518 340.243 292.194C340.157 291.866 340.024 291.577 339.847 291.326C339.674 291.071 339.455 290.87 339.19 290.725C338.931 290.579 338.625 290.506 338.274 290.506C337.928 290.506 337.623 290.579 337.358 290.725C337.099 290.87 336.88 291.071 336.702 291.326C336.529 291.577 336.399 291.866 336.312 292.194C336.226 292.518 336.183 292.862 336.183 293.227ZM344.078 289.604H345.343L345.233 292.372C345.206 293.074 345.126 293.68 344.994 294.19C344.862 294.701 344.693 295.136 344.488 295.496C344.283 295.852 344.053 296.15 343.798 296.392C343.547 296.633 343.287 296.836 343.019 297H342.39L342.424 295.968L342.684 295.961C342.834 295.783 342.98 295.601 343.121 295.414C343.262 295.223 343.392 294.997 343.511 294.737C343.629 294.473 343.727 294.152 343.805 293.773C343.887 293.391 343.939 292.924 343.962 292.372L344.078 289.604ZM344.393 289.604H348.843V297H347.578V290.772H344.393V289.604ZM342.103 295.961H349.793V299.181H348.528V297H343.367V299.181H342.096L342.103 295.961ZM351.215 296.33C351.215 296.116 351.281 295.936 351.413 295.79C351.55 295.64 351.746 295.564 352.001 295.564C352.256 295.564 352.45 295.64 352.582 295.79C352.719 295.936 352.787 296.116 352.787 296.33C352.787 296.54 352.719 296.717 352.582 296.863C352.45 297.009 352.256 297.082 352.001 297.082C351.746 297.082 351.55 297.009 351.413 296.863C351.281 296.717 351.215 296.54 351.215 296.33ZM363.69 297V298.039H357.422V297H363.69ZM370.007 297V298.039H363.738V297H370.007ZM376.323 297V298.039H370.055V297H376.323ZM382.64 297V298.039H376.371V297H382.64ZM388.956 297V298.039H382.688V297H388.956ZM395.272 297V298.039H389.004V297H395.272ZM401.589 297V298.039H395.32V297H401.589ZM407.905 297V298.039H401.637V297H407.905ZM414.222 297V298.039H407.953V297H414.222ZM420.538 297V298.039H414.27V297H420.538ZM426.854 297V298.039H420.586V297H426.854ZM433.171 297V298.039H426.902V297H433.171ZM439.487 297V298.039H433.219V297H439.487Z" fill="black"/>
</svg>
