<svg width="750" height="400" viewBox="0 0 750 400" fill="none" xmlns="http://www.w3.org/2000/svg">
<rect width="750" height="400" fill="#4ABCA8"/>
<rect x="43.5636" y="32.6761" width="662.873" height="333.521" fill="#FFFEFE"/>
<line x1="5.70959" y1="6.76056" x2="5.70959" y2="394.366" stroke="#FFFCFC" stroke-width="2"/>
<line x1="4.70959" y1="393.366" x2="744.113" y2="393.366" stroke="white" stroke-width="2"/>
<line x1="743.113" y1="394.366" x2="743.113" y2="6.76059" stroke="#FFFAFA" stroke-width="2"/>
<line y1="-1" x2="739.404" y2="-1" transform="matrix(0.999999 0.00152388 -0.00166391 0.999999 4.70959 6.76056)" stroke="#FFF8F8" stroke-width="2"/>
<rect x="37.4993" y="28.0423" width="675.002" height="343.915" stroke="white" stroke-width="2"/>
<path d="M147.189 197.097H144.53V196.023H147.189C147.704 196.023 148.121 195.941 148.44 195.777C148.759 195.613 148.992 195.385 149.138 195.094C149.288 194.802 149.363 194.469 149.363 194.096C149.363 193.754 149.288 193.433 149.138 193.132C148.992 192.831 148.759 192.59 148.44 192.407C148.121 192.22 147.704 192.127 147.189 192.127H144.838V201H143.519V191.047H147.189C147.941 191.047 148.577 191.177 149.097 191.437C149.616 191.696 150.01 192.056 150.279 192.517C150.548 192.972 150.683 193.494 150.683 194.082C150.683 194.72 150.548 195.265 150.279 195.716C150.01 196.167 149.616 196.511 149.097 196.748C148.577 196.98 147.941 197.097 147.189 197.097ZM153.424 194.766V201H152.159V193.604H153.39L153.424 194.766ZM155.734 193.562L155.728 194.738C155.623 194.715 155.522 194.702 155.427 194.697C155.336 194.688 155.231 194.684 155.112 194.684C154.821 194.684 154.563 194.729 154.34 194.82C154.117 194.911 153.927 195.039 153.772 195.203C153.618 195.367 153.494 195.563 153.403 195.791C153.317 196.014 153.26 196.26 153.232 196.529L152.877 196.734C152.877 196.288 152.92 195.868 153.007 195.477C153.098 195.085 153.237 194.738 153.424 194.438C153.611 194.132 153.848 193.895 154.135 193.727C154.426 193.553 154.773 193.467 155.174 193.467C155.265 193.467 155.37 193.478 155.488 193.501C155.607 193.519 155.689 193.54 155.734 193.562ZM159.836 201.137C159.321 201.137 158.854 201.05 158.435 200.877C158.02 200.699 157.662 200.451 157.361 200.132C157.065 199.813 156.837 199.435 156.678 198.997C156.518 198.56 156.438 198.081 156.438 197.562V197.274C156.438 196.673 156.527 196.137 156.705 195.668C156.883 195.194 157.124 194.793 157.43 194.465C157.735 194.137 158.081 193.888 158.469 193.72C158.856 193.551 159.257 193.467 159.672 193.467C160.201 193.467 160.656 193.558 161.039 193.74C161.426 193.923 161.743 194.178 161.989 194.506C162.235 194.829 162.418 195.212 162.536 195.654C162.655 196.092 162.714 196.57 162.714 197.09V197.657H157.19V196.625H161.449V196.529C161.431 196.201 161.363 195.882 161.244 195.572C161.13 195.262 160.948 195.007 160.697 194.807C160.447 194.606 160.105 194.506 159.672 194.506C159.385 194.506 159.12 194.567 158.879 194.69C158.637 194.809 158.43 194.987 158.257 195.224C158.084 195.461 157.949 195.75 157.854 196.092C157.758 196.434 157.71 196.828 157.71 197.274V197.562C157.71 197.912 157.758 198.243 157.854 198.553C157.954 198.858 158.097 199.127 158.284 199.359C158.476 199.592 158.706 199.774 158.975 199.906C159.248 200.038 159.558 200.104 159.904 200.104C160.351 200.104 160.729 200.013 161.039 199.831C161.349 199.649 161.62 199.405 161.853 199.1L162.618 199.708C162.459 199.95 162.256 200.18 162.01 200.398C161.764 200.617 161.461 200.795 161.101 200.932C160.745 201.068 160.324 201.137 159.836 201.137ZM168.497 199.038C168.497 198.856 168.456 198.687 168.374 198.532C168.297 198.373 168.135 198.229 167.889 198.102C167.647 197.969 167.283 197.855 166.795 197.76C166.385 197.673 166.013 197.571 165.681 197.452C165.353 197.334 165.072 197.19 164.84 197.021C164.612 196.853 164.437 196.655 164.313 196.427C164.19 196.199 164.129 195.932 164.129 195.627C164.129 195.335 164.193 195.06 164.32 194.8C164.452 194.54 164.637 194.31 164.874 194.109C165.116 193.909 165.405 193.752 165.742 193.638C166.079 193.524 166.455 193.467 166.87 193.467C167.463 193.467 167.968 193.572 168.388 193.781C168.807 193.991 169.128 194.271 169.352 194.622C169.575 194.968 169.687 195.354 169.687 195.777H168.422C168.422 195.572 168.36 195.374 168.237 195.183C168.119 194.987 167.943 194.825 167.711 194.697C167.483 194.57 167.203 194.506 166.87 194.506C166.519 194.506 166.234 194.561 166.016 194.67C165.801 194.775 165.644 194.909 165.544 195.073C165.448 195.237 165.4 195.41 165.4 195.593C165.4 195.729 165.423 195.853 165.469 195.962C165.519 196.067 165.605 196.165 165.729 196.256C165.852 196.342 166.025 196.424 166.248 196.502C166.471 196.579 166.756 196.657 167.103 196.734C167.709 196.871 168.208 197.035 168.6 197.227C168.992 197.418 169.283 197.653 169.475 197.931C169.666 198.209 169.762 198.546 169.762 198.942C169.762 199.266 169.693 199.562 169.557 199.831C169.424 200.1 169.231 200.332 168.976 200.528C168.725 200.72 168.424 200.87 168.073 200.979C167.727 201.084 167.337 201.137 166.904 201.137C166.253 201.137 165.701 201.021 165.25 200.788C164.799 200.556 164.457 200.255 164.225 199.886C163.992 199.517 163.876 199.127 163.876 198.717H165.147C165.166 199.063 165.266 199.339 165.448 199.544C165.631 199.744 165.854 199.888 166.118 199.975C166.382 200.057 166.645 200.098 166.904 200.098C167.251 200.098 167.54 200.052 167.772 199.961C168.009 199.87 168.189 199.744 168.312 199.585C168.436 199.425 168.497 199.243 168.497 199.038ZM174.492 201.137C173.977 201.137 173.51 201.05 173.091 200.877C172.676 200.699 172.318 200.451 172.018 200.132C171.721 199.813 171.493 199.435 171.334 198.997C171.174 198.56 171.095 198.081 171.095 197.562V197.274C171.095 196.673 171.184 196.137 171.361 195.668C171.539 195.194 171.781 194.793 172.086 194.465C172.391 194.137 172.738 193.888 173.125 193.72C173.512 193.551 173.913 193.467 174.328 193.467C174.857 193.467 175.312 193.558 175.695 193.74C176.083 193.923 176.399 194.178 176.646 194.506C176.892 194.829 177.074 195.212 177.192 195.654C177.311 196.092 177.37 196.57 177.37 197.09V197.657H171.847V196.625H176.105V196.529C176.087 196.201 176.019 195.882 175.9 195.572C175.786 195.262 175.604 195.007 175.354 194.807C175.103 194.606 174.761 194.506 174.328 194.506C174.041 194.506 173.777 194.567 173.535 194.69C173.294 194.809 173.086 194.987 172.913 195.224C172.74 195.461 172.605 195.75 172.51 196.092C172.414 196.434 172.366 196.828 172.366 197.274V197.562C172.366 197.912 172.414 198.243 172.51 198.553C172.61 198.858 172.754 199.127 172.94 199.359C173.132 199.592 173.362 199.774 173.631 199.906C173.904 200.038 174.214 200.104 174.561 200.104C175.007 200.104 175.385 200.013 175.695 199.831C176.005 199.649 176.276 199.405 176.509 199.1L177.274 199.708C177.115 199.95 176.912 200.18 176.666 200.398C176.42 200.617 176.117 200.795 175.757 200.932C175.401 201.068 174.98 201.137 174.492 201.137ZM180.111 195.183V201H178.847V193.604H180.043L180.111 195.183ZM179.811 197.021L179.284 197.001C179.289 196.495 179.364 196.028 179.51 195.6C179.656 195.167 179.861 194.791 180.125 194.472C180.389 194.153 180.704 193.907 181.068 193.733C181.438 193.556 181.845 193.467 182.292 193.467C182.657 193.467 182.985 193.517 183.276 193.617C183.568 193.713 183.816 193.868 184.021 194.082C184.231 194.296 184.391 194.574 184.5 194.916C184.609 195.253 184.664 195.666 184.664 196.153V201H183.393V196.14C183.393 195.752 183.336 195.442 183.222 195.21C183.108 194.973 182.941 194.802 182.723 194.697C182.504 194.588 182.235 194.533 181.916 194.533C181.602 194.533 181.314 194.599 181.055 194.731C180.799 194.864 180.578 195.046 180.392 195.278C180.209 195.511 180.066 195.777 179.961 196.078C179.861 196.374 179.811 196.689 179.811 197.021ZM189.682 193.604V194.574H185.683V193.604H189.682ZM187.036 191.806H188.301V199.168C188.301 199.419 188.34 199.608 188.417 199.735C188.494 199.863 188.595 199.947 188.718 199.988C188.841 200.029 188.973 200.05 189.114 200.05C189.219 200.05 189.328 200.041 189.442 200.022C189.561 200 189.65 199.981 189.709 199.968L189.716 201C189.616 201.032 189.483 201.062 189.319 201.089C189.16 201.121 188.966 201.137 188.738 201.137C188.428 201.137 188.144 201.075 187.884 200.952C187.624 200.829 187.417 200.624 187.262 200.337C187.111 200.045 187.036 199.653 187.036 199.161V191.806ZM194.234 201.137C193.719 201.137 193.252 201.05 192.833 200.877C192.418 200.699 192.061 200.451 191.76 200.132C191.464 199.813 191.236 199.435 191.076 198.997C190.917 198.56 190.837 198.081 190.837 197.562V197.274C190.837 196.673 190.926 196.137 191.104 195.668C191.281 195.194 191.523 194.793 191.828 194.465C192.133 194.137 192.48 193.888 192.867 193.72C193.255 193.551 193.656 193.467 194.07 193.467C194.599 193.467 195.055 193.558 195.438 193.74C195.825 193.923 196.142 194.178 196.388 194.506C196.634 194.829 196.816 195.212 196.935 195.654C197.053 196.092 197.112 196.57 197.112 197.09V197.657H191.589V196.625H195.848V196.529C195.829 196.201 195.761 195.882 195.643 195.572C195.529 195.262 195.346 195.007 195.096 194.807C194.845 194.606 194.503 194.506 194.07 194.506C193.783 194.506 193.519 194.567 193.277 194.69C193.036 194.809 192.828 194.987 192.655 195.224C192.482 195.461 192.348 195.75 192.252 196.092C192.156 196.434 192.108 196.828 192.108 197.274V197.562C192.108 197.912 192.156 198.243 192.252 198.553C192.352 198.858 192.496 199.127 192.683 199.359C192.874 199.592 193.104 199.774 193.373 199.906C193.646 200.038 193.956 200.104 194.303 200.104C194.749 200.104 195.128 200.013 195.438 199.831C195.747 199.649 196.019 199.405 196.251 199.1L197.017 199.708C196.857 199.95 196.654 200.18 196.408 200.398C196.162 200.617 195.859 200.795 195.499 200.932C195.144 201.068 194.722 201.137 194.234 201.137ZM203.251 199.564V190.5H204.522V201H203.36L203.251 199.564ZM198.274 197.384V197.24C198.274 196.675 198.343 196.162 198.479 195.702C198.621 195.237 198.819 194.839 199.074 194.506C199.334 194.173 199.642 193.918 199.997 193.74C200.357 193.558 200.758 193.467 201.2 193.467C201.665 193.467 202.071 193.549 202.417 193.713C202.768 193.872 203.064 194.107 203.306 194.417C203.552 194.722 203.745 195.091 203.887 195.524C204.028 195.957 204.126 196.447 204.181 196.994V197.623C204.131 198.165 204.033 198.653 203.887 199.086C203.745 199.519 203.552 199.888 203.306 200.193C203.064 200.499 202.768 200.733 202.417 200.897C202.066 201.057 201.656 201.137 201.187 201.137C200.754 201.137 200.357 201.043 199.997 200.856C199.642 200.67 199.334 200.408 199.074 200.07C198.819 199.733 198.621 199.337 198.479 198.881C198.343 198.421 198.274 197.922 198.274 197.384ZM199.546 197.24V197.384C199.546 197.753 199.582 198.099 199.655 198.423C199.733 198.746 199.851 199.031 200.011 199.277C200.17 199.523 200.373 199.717 200.619 199.858C200.865 199.995 201.159 200.063 201.501 200.063C201.92 200.063 202.264 199.975 202.533 199.797C202.807 199.619 203.025 199.384 203.189 199.093C203.354 198.801 203.481 198.484 203.572 198.143V196.495C203.518 196.244 203.438 196.003 203.333 195.771C203.233 195.534 203.101 195.324 202.937 195.142C202.777 194.955 202.579 194.807 202.342 194.697C202.109 194.588 201.834 194.533 201.515 194.533C201.168 194.533 200.87 194.606 200.619 194.752C200.373 194.893 200.17 195.089 200.011 195.34C199.851 195.586 199.733 195.873 199.655 196.201C199.582 196.525 199.546 196.871 199.546 197.24ZM213.061 193.604V194.574H209.062V193.604H213.061ZM210.415 191.806H211.68V199.168C211.68 199.419 211.718 199.608 211.796 199.735C211.873 199.863 211.974 199.947 212.097 199.988C212.22 200.029 212.352 200.05 212.493 200.05C212.598 200.05 212.707 200.041 212.821 200.022C212.94 200 213.029 199.981 213.088 199.968L213.095 201C212.994 201.032 212.862 201.062 212.698 201.089C212.539 201.121 212.345 201.137 212.117 201.137C211.807 201.137 211.522 201.075 211.263 200.952C211.003 200.829 210.796 200.624 210.641 200.337C210.49 200.045 210.415 199.653 210.415 199.161V191.806ZM214.072 197.384V197.227C214.072 196.693 214.15 196.199 214.305 195.743C214.46 195.283 214.683 194.884 214.975 194.547C215.266 194.205 215.619 193.941 216.034 193.754C216.449 193.562 216.914 193.467 217.429 193.467C217.948 193.467 218.415 193.562 218.83 193.754C219.249 193.941 219.605 194.205 219.896 194.547C220.193 194.884 220.418 195.283 220.573 195.743C220.728 196.199 220.806 196.693 220.806 197.227V197.384C220.806 197.917 220.728 198.411 220.573 198.867C220.418 199.323 220.193 199.722 219.896 200.063C219.605 200.401 219.252 200.665 218.837 200.856C218.427 201.043 217.962 201.137 217.442 201.137C216.923 201.137 216.456 201.043 216.041 200.856C215.626 200.665 215.271 200.401 214.975 200.063C214.683 199.722 214.46 199.323 214.305 198.867C214.15 198.411 214.072 197.917 214.072 197.384ZM215.337 197.227V197.384C215.337 197.753 215.38 198.102 215.467 198.43C215.553 198.753 215.683 199.04 215.856 199.291C216.034 199.542 216.255 199.74 216.52 199.886C216.784 200.027 217.091 200.098 217.442 200.098C217.789 200.098 218.092 200.027 218.352 199.886C218.616 199.74 218.835 199.542 219.008 199.291C219.181 199.04 219.311 198.753 219.397 198.43C219.489 198.102 219.534 197.753 219.534 197.384V197.227C219.534 196.862 219.489 196.518 219.397 196.194C219.311 195.866 219.179 195.577 219.001 195.326C218.828 195.071 218.609 194.87 218.345 194.725C218.085 194.579 217.78 194.506 217.429 194.506C217.082 194.506 216.777 194.579 216.513 194.725C216.253 194.87 216.034 195.071 215.856 195.326C215.683 195.577 215.553 195.866 215.467 196.194C215.38 196.518 215.337 196.862 215.337 197.227ZM225.81 200.33C225.81 200.116 225.876 199.936 226.008 199.79C226.145 199.64 226.34 199.564 226.596 199.564C226.851 199.564 227.045 199.64 227.177 199.79C227.313 199.936 227.382 200.116 227.382 200.33C227.382 200.54 227.313 200.717 227.177 200.863C227.045 201.009 226.851 201.082 226.596 201.082C226.34 201.082 226.145 201.009 226.008 200.863C225.876 200.717 225.81 200.54 225.81 200.33ZM225.816 194.294C225.816 194.08 225.882 193.9 226.015 193.754C226.151 193.604 226.347 193.528 226.603 193.528C226.858 193.528 227.051 193.604 227.184 193.754C227.32 193.9 227.389 194.08 227.389 194.294C227.389 194.504 227.32 194.681 227.184 194.827C227.051 194.973 226.858 195.046 226.603 195.046C226.347 195.046 226.151 194.973 226.015 194.827C225.882 194.681 225.816 194.504 225.816 194.294ZM234.587 201V202.039H228.318V201H234.587ZM240.903 201V202.039H234.635V201H240.903ZM247.22 201V202.039H240.951V201H247.22ZM253.536 201V202.039H247.268V201H253.536ZM259.853 201V202.039H253.584V201H259.853ZM266.169 201V202.039H259.9V201H266.169ZM272.485 201V202.039H266.217V201H272.485ZM278.802 201V202.039H272.533V201H278.802ZM285.118 201V202.039H278.85V201H285.118ZM291.435 201V202.039H285.166V201H291.435ZM297.751 201V202.039H291.482V201H297.751ZM304.067 201V202.039H297.799V201H304.067ZM310.384 201V202.039H304.115V201H310.384ZM316.7 201V202.039H310.432V201H316.7ZM323.017 201V202.039H316.748V201H323.017ZM329.333 201V202.039H323.064V201H329.333ZM335.649 201V202.039H329.381V201H335.649ZM341.966 201V202.039H335.697V201H341.966ZM348.282 201V202.039H342.014V201H348.282ZM354.599 201V202.039H348.33V201H354.599ZM360.915 201V202.039H354.646V201H360.915ZM367.231 201V202.039H360.963V201H367.231ZM373.548 201V202.039H367.279V201H373.548ZM379.864 201V202.039H373.596V201H379.864ZM386.181 201V202.039H379.912V201H386.181ZM392.497 201V202.039H386.229V201H392.497ZM398.813 201V202.039H392.545V201H398.813ZM405.13 201V202.039H398.861V201H405.13ZM411.446 201V202.039H405.178V201H411.446ZM417.763 201V202.039H411.494V201H417.763ZM424.079 201V202.039H417.811V201H424.079ZM430.396 201V202.039H424.127V201H430.396ZM436.712 201V202.039H430.443V201H436.712ZM443.028 201V202.039H436.76V201H443.028ZM449.345 201V202.039H443.076V201H449.345ZM455.661 201V202.039H449.393V201H455.661ZM461.978 201V202.039H455.709V201H461.978ZM468.294 201V202.039H462.025V201H468.294ZM474.61 201V202.039H468.342V201H474.61ZM480.927 201V202.039H474.658V201H480.927ZM487.243 201V202.039H480.975V201H487.243ZM493.56 201V202.039H487.291V201H493.56ZM499.876 201V202.039H493.607V201H499.876ZM506.192 201V202.039H499.924V201H506.192ZM512.509 201V202.039H506.24V201H512.509ZM518.825 201V202.039H512.557V201H518.825ZM525.142 201V202.039H518.873V201H525.142ZM531.458 201V202.039H525.189V201H531.458ZM127.475 223.047V233H126.155V223.047H127.475ZM131.645 227.524V228.604H127.188V227.524H131.645ZM132.321 223.047V224.127H127.188V223.047H132.321ZM133.217 229.384V229.227C133.217 228.693 133.294 228.199 133.449 227.743C133.604 227.283 133.827 226.884 134.119 226.547C134.411 226.205 134.764 225.941 135.179 225.754C135.593 225.562 136.058 225.467 136.573 225.467C137.093 225.467 137.56 225.562 137.975 225.754C138.394 225.941 138.749 226.205 139.041 226.547C139.337 226.884 139.563 227.283 139.718 227.743C139.873 228.199 139.95 228.693 139.95 229.227V229.384C139.95 229.917 139.873 230.411 139.718 230.867C139.563 231.323 139.337 231.722 139.041 232.063C138.749 232.401 138.396 232.665 137.981 232.856C137.571 233.043 137.106 233.137 136.587 233.137C136.067 233.137 135.6 233.043 135.186 232.856C134.771 232.665 134.415 232.401 134.119 232.063C133.827 231.722 133.604 231.323 133.449 230.867C133.294 230.411 133.217 229.917 133.217 229.384ZM134.481 229.227V229.384C134.481 229.753 134.525 230.102 134.611 230.43C134.698 230.753 134.828 231.04 135.001 231.291C135.179 231.542 135.4 231.74 135.664 231.886C135.928 232.027 136.236 232.098 136.587 232.098C136.933 232.098 137.236 232.027 137.496 231.886C137.76 231.74 137.979 231.542 138.152 231.291C138.326 231.04 138.455 230.753 138.542 230.43C138.633 230.102 138.679 229.753 138.679 229.384V229.227C138.679 228.862 138.633 228.518 138.542 228.194C138.455 227.866 138.323 227.577 138.146 227.326C137.972 227.071 137.754 226.87 137.489 226.725C137.229 226.579 136.924 226.506 136.573 226.506C136.227 226.506 135.922 226.579 135.657 226.725C135.397 226.87 135.179 227.071 135.001 227.326C134.828 227.577 134.698 227.866 134.611 228.194C134.525 228.518 134.481 228.862 134.481 229.227ZM142.801 226.766V233H141.536V225.604H142.767L142.801 226.766ZM145.111 225.562L145.104 226.738C145 226.715 144.899 226.702 144.804 226.697C144.713 226.688 144.608 226.684 144.489 226.684C144.198 226.684 143.94 226.729 143.717 226.82C143.493 226.911 143.304 227.039 143.149 227.203C142.994 227.367 142.871 227.563 142.78 227.791C142.694 228.014 142.637 228.26 142.609 228.529L142.254 228.734C142.254 228.288 142.297 227.868 142.384 227.477C142.475 227.085 142.614 226.738 142.801 226.438C142.988 226.132 143.225 225.895 143.512 225.727C143.803 225.553 144.15 225.467 144.551 225.467C144.642 225.467 144.747 225.478 144.865 225.501C144.984 225.519 145.066 225.54 145.111 225.562ZM151.018 227.025V235.844H149.746V225.604H150.908L151.018 227.025ZM156.001 229.24V229.384C156.001 229.922 155.937 230.421 155.81 230.881C155.682 231.337 155.495 231.733 155.249 232.07C155.007 232.408 154.709 232.67 154.354 232.856C153.998 233.043 153.59 233.137 153.13 233.137C152.66 233.137 152.246 233.059 151.886 232.904C151.526 232.749 151.22 232.524 150.97 232.228C150.719 231.931 150.519 231.576 150.368 231.161C150.222 230.746 150.122 230.279 150.067 229.76V228.994C150.122 228.447 150.225 227.957 150.375 227.524C150.525 227.091 150.724 226.722 150.97 226.417C151.22 226.107 151.523 225.872 151.879 225.713C152.234 225.549 152.645 225.467 153.109 225.467C153.574 225.467 153.987 225.558 154.347 225.74C154.707 225.918 155.01 226.173 155.256 226.506C155.502 226.839 155.687 227.237 155.81 227.702C155.937 228.162 156.001 228.675 156.001 229.24ZM154.729 229.384V229.24C154.729 228.871 154.691 228.525 154.613 228.201C154.536 227.873 154.415 227.586 154.251 227.34C154.091 227.089 153.886 226.893 153.636 226.752C153.385 226.606 153.087 226.533 152.74 226.533C152.421 226.533 152.143 226.588 151.906 226.697C151.674 226.807 151.476 226.955 151.312 227.142C151.147 227.324 151.013 227.534 150.908 227.771C150.808 228.003 150.733 228.244 150.683 228.495V230.266C150.774 230.585 150.901 230.885 151.065 231.168C151.229 231.446 151.448 231.672 151.722 231.845C151.995 232.013 152.339 232.098 152.754 232.098C153.096 232.098 153.39 232.027 153.636 231.886C153.886 231.74 154.091 231.542 154.251 231.291C154.415 231.04 154.536 230.753 154.613 230.43C154.691 230.102 154.729 229.753 154.729 229.384ZM161.976 231.735V227.928C161.976 227.636 161.916 227.383 161.798 227.169C161.684 226.95 161.511 226.782 161.278 226.663C161.046 226.545 160.759 226.485 160.417 226.485C160.098 226.485 159.818 226.54 159.576 226.649C159.339 226.759 159.152 226.902 159.016 227.08C158.883 227.258 158.817 227.449 158.817 227.654H157.553C157.553 227.39 157.621 227.128 157.758 226.868C157.895 226.608 158.09 226.374 158.346 226.164C158.605 225.95 158.915 225.781 159.275 225.658C159.64 225.531 160.046 225.467 160.492 225.467C161.03 225.467 161.504 225.558 161.914 225.74C162.329 225.923 162.652 226.198 162.885 226.567C163.122 226.932 163.24 227.39 163.24 227.941V231.387C163.24 231.633 163.261 231.895 163.302 232.173C163.347 232.451 163.413 232.69 163.5 232.891V233H162.181C162.117 232.854 162.067 232.66 162.03 232.419C161.994 232.173 161.976 231.945 161.976 231.735ZM162.194 228.516L162.208 229.404H160.93C160.57 229.404 160.248 229.434 159.966 229.493C159.683 229.548 159.446 229.632 159.255 229.746C159.063 229.86 158.918 230.004 158.817 230.177C158.717 230.345 158.667 230.544 158.667 230.771C158.667 231.004 158.719 231.216 158.824 231.407C158.929 231.599 159.086 231.751 159.296 231.865C159.51 231.975 159.772 232.029 160.082 232.029C160.469 232.029 160.811 231.947 161.107 231.783C161.404 231.619 161.638 231.419 161.812 231.182C161.989 230.945 162.085 230.715 162.099 230.491L162.639 231.1C162.607 231.291 162.52 231.503 162.379 231.735C162.238 231.968 162.049 232.191 161.812 232.405C161.579 232.615 161.301 232.79 160.978 232.932C160.659 233.068 160.299 233.137 159.897 233.137C159.396 233.137 158.956 233.039 158.578 232.843C158.204 232.647 157.913 232.385 157.703 232.057C157.498 231.724 157.396 231.353 157.396 230.942C157.396 230.546 157.473 230.197 157.628 229.896C157.783 229.591 158.006 229.338 158.298 229.138C158.59 228.933 158.94 228.778 159.351 228.673C159.761 228.568 160.219 228.516 160.725 228.516H162.194ZM166.494 226.766V233H165.229V225.604H166.46L166.494 226.766ZM168.805 225.562L168.798 226.738C168.693 226.715 168.593 226.702 168.497 226.697C168.406 226.688 168.301 226.684 168.183 226.684C167.891 226.684 167.633 226.729 167.41 226.82C167.187 226.911 166.998 227.039 166.843 227.203C166.688 227.367 166.565 227.563 166.474 227.791C166.387 228.014 166.33 228.26 166.303 228.529L165.947 228.734C165.947 228.288 165.991 227.868 166.077 227.477C166.168 227.085 166.307 226.738 166.494 226.438C166.681 226.132 166.918 225.895 167.205 225.727C167.497 225.553 167.843 225.467 168.244 225.467C168.335 225.467 168.44 225.478 168.559 225.501C168.677 225.519 168.759 225.54 168.805 225.562ZM173.412 225.604V226.574H169.413V225.604H173.412ZM170.767 223.806H172.031V231.168C172.031 231.419 172.07 231.608 172.147 231.735C172.225 231.863 172.325 231.947 172.448 231.988C172.571 232.029 172.703 232.05 172.845 232.05C172.95 232.05 173.059 232.041 173.173 232.022C173.291 232 173.38 231.981 173.439 231.968L173.446 233C173.346 233.032 173.214 233.062 173.05 233.089C172.89 233.121 172.697 233.137 172.469 233.137C172.159 233.137 171.874 233.075 171.614 232.952C171.354 232.829 171.147 232.624 170.992 232.337C170.842 232.045 170.767 231.653 170.767 231.161V223.806ZM176.27 225.604V233H174.998V225.604H176.27ZM174.902 223.642C174.902 223.437 174.964 223.263 175.087 223.122C175.215 222.981 175.401 222.91 175.647 222.91C175.889 222.91 176.074 222.981 176.201 223.122C176.333 223.263 176.399 223.437 176.399 223.642C176.399 223.838 176.333 224.006 176.201 224.147C176.074 224.284 175.889 224.353 175.647 224.353C175.401 224.353 175.215 224.284 175.087 224.147C174.964 224.006 174.902 223.838 174.902 223.642ZM181.26 232.098C181.561 232.098 181.839 232.036 182.094 231.913C182.349 231.79 182.559 231.621 182.723 231.407C182.887 231.188 182.98 230.94 183.003 230.662H184.206C184.183 231.1 184.035 231.507 183.762 231.886C183.493 232.259 183.14 232.562 182.702 232.795C182.265 233.023 181.784 233.137 181.26 233.137C180.704 233.137 180.218 233.039 179.804 232.843C179.394 232.647 179.052 232.378 178.778 232.036C178.509 231.694 178.307 231.302 178.17 230.86C178.038 230.414 177.972 229.942 177.972 229.445V229.158C177.972 228.661 178.038 228.192 178.17 227.75C178.307 227.303 178.509 226.909 178.778 226.567C179.052 226.226 179.394 225.957 179.804 225.761C180.218 225.565 180.704 225.467 181.26 225.467C181.839 225.467 182.344 225.585 182.777 225.822C183.21 226.055 183.55 226.374 183.796 226.779C184.047 227.18 184.183 227.636 184.206 228.146H183.003C182.98 227.841 182.894 227.565 182.743 227.319C182.597 227.073 182.397 226.877 182.142 226.731C181.891 226.581 181.597 226.506 181.26 226.506C180.872 226.506 180.547 226.583 180.282 226.738C180.022 226.889 179.815 227.094 179.66 227.354C179.51 227.609 179.4 227.894 179.332 228.208C179.268 228.518 179.236 228.835 179.236 229.158V229.445C179.236 229.769 179.268 230.088 179.332 230.402C179.396 230.717 179.503 231.002 179.653 231.257C179.808 231.512 180.016 231.717 180.275 231.872C180.54 232.022 180.868 232.098 181.26 232.098ZM187.002 225.604V233H185.73V225.604H187.002ZM185.635 223.642C185.635 223.437 185.696 223.263 185.819 223.122C185.947 222.981 186.134 222.91 186.38 222.91C186.621 222.91 186.806 222.981 186.934 223.122C187.066 223.263 187.132 223.437 187.132 223.642C187.132 223.838 187.066 224.006 186.934 224.147C186.806 224.284 186.621 224.353 186.38 224.353C186.134 224.353 185.947 224.284 185.819 224.147C185.696 224.006 185.635 223.838 185.635 223.642ZM190.297 227.025V235.844H189.025V225.604H190.188L190.297 227.025ZM195.28 229.24V229.384C195.28 229.922 195.216 230.421 195.089 230.881C194.961 231.337 194.774 231.733 194.528 232.07C194.287 232.408 193.988 232.67 193.633 232.856C193.277 233.043 192.869 233.137 192.409 233.137C191.94 233.137 191.525 233.059 191.165 232.904C190.805 232.749 190.5 232.524 190.249 232.228C189.998 231.931 189.798 231.576 189.647 231.161C189.502 230.746 189.401 230.279 189.347 229.76V228.994C189.401 228.447 189.504 227.957 189.654 227.524C189.805 227.091 190.003 226.722 190.249 226.417C190.5 226.107 190.803 225.872 191.158 225.713C191.514 225.549 191.924 225.467 192.389 225.467C192.854 225.467 193.266 225.558 193.626 225.74C193.986 225.918 194.289 226.173 194.535 226.506C194.781 226.839 194.966 227.237 195.089 227.702C195.216 228.162 195.28 228.675 195.28 229.24ZM194.009 229.384V229.24C194.009 228.871 193.97 228.525 193.893 228.201C193.815 227.873 193.694 227.586 193.53 227.34C193.371 227.089 193.166 226.893 192.915 226.752C192.664 226.606 192.366 226.533 192.02 226.533C191.701 226.533 191.423 226.588 191.186 226.697C190.953 226.807 190.755 226.955 190.591 227.142C190.427 227.324 190.292 227.534 190.188 227.771C190.087 228.003 190.012 228.244 189.962 228.495V230.266C190.053 230.585 190.181 230.885 190.345 231.168C190.509 231.446 190.728 231.672 191.001 231.845C191.274 232.013 191.618 232.098 192.033 232.098C192.375 232.098 192.669 232.027 192.915 231.886C193.166 231.74 193.371 231.542 193.53 231.291C193.694 231.04 193.815 230.753 193.893 230.43C193.97 230.102 194.009 229.753 194.009 229.384ZM201.255 231.735V227.928C201.255 227.636 201.196 227.383 201.077 227.169C200.963 226.95 200.79 226.782 200.558 226.663C200.325 226.545 200.038 226.485 199.696 226.485C199.377 226.485 199.097 226.54 198.855 226.649C198.618 226.759 198.432 226.902 198.295 227.08C198.163 227.258 198.097 227.449 198.097 227.654H196.832C196.832 227.39 196.9 227.128 197.037 226.868C197.174 226.608 197.37 226.374 197.625 226.164C197.885 225.95 198.195 225.781 198.555 225.658C198.919 225.531 199.325 225.467 199.771 225.467C200.309 225.467 200.783 225.558 201.193 225.74C201.608 225.923 201.932 226.198 202.164 226.567C202.401 226.932 202.52 227.39 202.52 227.941V231.387C202.52 231.633 202.54 231.895 202.581 232.173C202.627 232.451 202.693 232.69 202.779 232.891V233H201.46C201.396 232.854 201.346 232.66 201.31 232.419C201.273 232.173 201.255 231.945 201.255 231.735ZM201.474 228.516L201.487 229.404H200.209C199.849 229.404 199.528 229.434 199.245 229.493C198.963 229.548 198.726 229.632 198.534 229.746C198.343 229.86 198.197 230.004 198.097 230.177C197.996 230.345 197.946 230.544 197.946 230.771C197.946 231.004 197.999 231.216 198.104 231.407C198.208 231.599 198.366 231.751 198.575 231.865C198.789 231.975 199.051 232.029 199.361 232.029C199.749 232.029 200.09 231.947 200.387 231.783C200.683 231.619 200.918 231.419 201.091 231.182C201.269 230.945 201.364 230.715 201.378 230.491L201.918 231.1C201.886 231.291 201.799 231.503 201.658 231.735C201.517 231.968 201.328 232.191 201.091 232.405C200.858 232.615 200.58 232.79 200.257 232.932C199.938 233.068 199.578 233.137 199.177 233.137C198.675 233.137 198.236 233.039 197.857 232.843C197.484 232.647 197.192 232.385 196.982 232.057C196.777 231.724 196.675 231.353 196.675 230.942C196.675 230.546 196.752 230.197 196.907 229.896C197.062 229.591 197.285 229.338 197.577 229.138C197.869 228.933 198.22 228.778 198.63 228.673C199.04 228.568 199.498 228.516 200.004 228.516H201.474ZM207.605 225.604V226.574H203.606V225.604H207.605ZM204.96 223.806H206.225V231.168C206.225 231.419 206.263 231.608 206.341 231.735C206.418 231.863 206.519 231.947 206.642 231.988C206.765 232.029 206.897 232.05 207.038 232.05C207.143 232.05 207.252 232.041 207.366 232.022C207.485 232 207.574 231.981 207.633 231.968L207.64 233C207.539 233.032 207.407 233.062 207.243 233.089C207.084 233.121 206.89 233.137 206.662 233.137C206.352 233.137 206.067 233.075 205.808 232.952C205.548 232.829 205.34 232.624 205.186 232.337C205.035 232.045 204.96 231.653 204.96 231.161V223.806ZM210.463 225.604V233H209.191V225.604H210.463ZM209.096 223.642C209.096 223.437 209.157 223.263 209.28 223.122C209.408 222.981 209.595 222.91 209.841 222.91C210.082 222.91 210.267 222.981 210.395 223.122C210.527 223.263 210.593 223.437 210.593 223.642C210.593 223.838 210.527 224.006 210.395 224.147C210.267 224.284 210.082 224.353 209.841 224.353C209.595 224.353 209.408 224.284 209.28 224.147C209.157 224.006 209.096 223.838 209.096 223.642ZM212.158 229.384V229.227C212.158 228.693 212.236 228.199 212.391 227.743C212.546 227.283 212.769 226.884 213.061 226.547C213.352 226.205 213.705 225.941 214.12 225.754C214.535 225.562 215 225.467 215.515 225.467C216.034 225.467 216.501 225.562 216.916 225.754C217.335 225.941 217.691 226.205 217.982 226.547C218.279 226.884 218.504 227.283 218.659 227.743C218.814 228.199 218.892 228.693 218.892 229.227V229.384C218.892 229.917 218.814 230.411 218.659 230.867C218.504 231.323 218.279 231.722 217.982 232.063C217.691 232.401 217.338 232.665 216.923 232.856C216.513 233.043 216.048 233.137 215.528 233.137C215.009 233.137 214.542 233.043 214.127 232.856C213.712 232.665 213.357 232.401 213.061 232.063C212.769 231.722 212.546 231.323 212.391 230.867C212.236 230.411 212.158 229.917 212.158 229.384ZM213.423 229.227V229.384C213.423 229.753 213.466 230.102 213.553 230.43C213.639 230.753 213.769 231.04 213.942 231.291C214.12 231.542 214.341 231.74 214.605 231.886C214.87 232.027 215.177 232.098 215.528 232.098C215.875 232.098 216.178 232.027 216.438 231.886C216.702 231.74 216.921 231.542 217.094 231.291C217.267 231.04 217.397 230.753 217.483 230.43C217.575 230.102 217.62 229.753 217.62 229.384V229.227C217.62 228.862 217.575 228.518 217.483 228.194C217.397 227.866 217.265 227.577 217.087 227.326C216.914 227.071 216.695 226.87 216.431 226.725C216.171 226.579 215.866 226.506 215.515 226.506C215.168 226.506 214.863 226.579 214.599 226.725C214.339 226.87 214.12 227.071 213.942 227.326C213.769 227.577 213.639 227.866 213.553 228.194C213.466 228.518 213.423 228.862 213.423 229.227ZM221.742 227.183V233H220.478V225.604H221.674L221.742 227.183ZM221.441 229.021L220.915 229.001C220.92 228.495 220.995 228.028 221.141 227.6C221.286 227.167 221.492 226.791 221.756 226.472C222.02 226.153 222.335 225.907 222.699 225.733C223.068 225.556 223.476 225.467 223.923 225.467C224.287 225.467 224.616 225.517 224.907 225.617C225.199 225.713 225.447 225.868 225.652 226.082C225.862 226.296 226.021 226.574 226.131 226.916C226.24 227.253 226.295 227.666 226.295 228.153V233H225.023V228.14C225.023 227.752 224.966 227.442 224.853 227.21C224.739 226.973 224.572 226.802 224.354 226.697C224.135 226.588 223.866 226.533 223.547 226.533C223.232 226.533 222.945 226.599 222.686 226.731C222.43 226.864 222.209 227.046 222.022 227.278C221.84 227.511 221.697 227.777 221.592 228.078C221.492 228.374 221.441 228.689 221.441 229.021ZM233.062 225.604V233H231.791V225.604H233.062ZM231.695 223.642C231.695 223.437 231.757 223.263 231.88 223.122C232.007 222.981 232.194 222.91 232.44 222.91C232.682 222.91 232.867 222.981 232.994 223.122C233.126 223.263 233.192 223.437 233.192 223.642C233.192 223.838 233.126 224.006 232.994 224.147C232.867 224.284 232.682 224.353 232.44 224.353C232.194 224.353 232.007 224.284 231.88 224.147C231.757 224.006 231.695 223.838 231.695 223.642ZM236.357 227.183V233H235.093V225.604H236.289L236.357 227.183ZM236.057 229.021L235.53 229.001C235.535 228.495 235.61 228.028 235.756 227.6C235.902 227.167 236.107 226.791 236.371 226.472C236.635 226.153 236.95 225.907 237.314 225.733C237.684 225.556 238.091 225.467 238.538 225.467C238.903 225.467 239.231 225.517 239.522 225.617C239.814 225.713 240.062 225.868 240.268 226.082C240.477 226.296 240.637 226.574 240.746 226.916C240.855 227.253 240.91 227.666 240.91 228.153V233H239.639V228.14C239.639 227.752 239.582 227.442 239.468 227.21C239.354 226.973 239.188 226.802 238.969 226.697C238.75 226.588 238.481 226.533 238.162 226.533C237.848 226.533 237.561 226.599 237.301 226.731C237.046 226.864 236.825 227.046 236.638 227.278C236.455 227.511 236.312 227.777 236.207 228.078C236.107 228.374 236.057 228.689 236.057 229.021ZM248.163 233V234.039H241.895V233H248.163ZM254.479 233V234.039H248.211V233H254.479ZM260.796 233V234.039H254.527V233H260.796ZM267.112 233V234.039H260.844V233H267.112ZM273.429 233V234.039H267.16V233H273.429ZM279.745 233V234.039H273.477V233H279.745ZM286.062 233V234.039H279.793V233H286.062ZM292.378 233V234.039H286.109V233H292.378ZM298.694 233V234.039H292.426V233H298.694ZM305.011 233V234.039H298.742V233H305.011ZM311.327 233V234.039H305.059V233H311.327ZM317.644 233V234.039H311.375V233H317.644ZM323.96 233V234.039H317.691V233H323.96ZM330.276 233V234.039H324.008V233H330.276ZM336.593 233V234.039H330.324V233H336.593ZM342.909 233V234.039H336.641V233H342.909ZM349.226 233V234.039H342.957V233H349.226ZM355.542 233V234.039H349.273V233H355.542ZM361.858 233V234.039H355.59V233H361.858ZM368.175 233V234.039H361.906V233H368.175ZM374.491 233V234.039H368.223V233H374.491ZM380.808 233V234.039H374.539V233H380.808ZM385.258 222.5H386.529V231.564L386.42 233H385.258V222.5ZM391.526 229.24V229.384C391.526 229.922 391.463 230.421 391.335 230.881C391.207 231.337 391.021 231.733 390.774 232.07C390.528 232.408 390.228 232.67 389.872 232.856C389.517 233.043 389.109 233.137 388.648 233.137C388.179 233.137 387.767 233.057 387.411 232.897C387.06 232.733 386.764 232.499 386.522 232.193C386.281 231.888 386.087 231.519 385.941 231.086C385.8 230.653 385.702 230.165 385.647 229.623V228.994C385.702 228.447 385.8 227.957 385.941 227.524C386.087 227.091 386.281 226.722 386.522 226.417C386.764 226.107 387.06 225.872 387.411 225.713C387.762 225.549 388.17 225.467 388.635 225.467C389.1 225.467 389.512 225.558 389.872 225.74C390.232 225.918 390.533 226.173 390.774 226.506C391.021 226.839 391.207 227.237 391.335 227.702C391.463 228.162 391.526 228.675 391.526 229.24ZM390.255 229.384V229.24C390.255 228.871 390.221 228.525 390.152 228.201C390.084 227.873 389.975 227.586 389.824 227.34C389.674 227.089 389.476 226.893 389.229 226.752C388.983 226.606 388.68 226.533 388.32 226.533C388.001 226.533 387.723 226.588 387.486 226.697C387.254 226.807 387.056 226.955 386.892 227.142C386.728 227.324 386.593 227.534 386.488 227.771C386.388 228.003 386.313 228.244 386.263 228.495V230.143C386.336 230.462 386.454 230.769 386.618 231.065C386.787 231.357 387.01 231.596 387.288 231.783C387.571 231.97 387.919 232.063 388.334 232.063C388.676 232.063 388.967 231.995 389.209 231.858C389.455 231.717 389.653 231.523 389.804 231.277C389.959 231.031 390.073 230.746 390.146 230.423C390.218 230.099 390.255 229.753 390.255 229.384ZM395.122 232.234L397.18 225.604H398.533L395.566 234.142C395.498 234.324 395.407 234.52 395.293 234.729C395.184 234.944 395.042 235.146 394.869 235.338C394.696 235.529 394.486 235.684 394.24 235.803C393.999 235.926 393.709 235.987 393.372 235.987C393.272 235.987 393.144 235.974 392.989 235.946C392.834 235.919 392.725 235.896 392.661 235.878L392.654 234.853C392.691 234.857 392.748 234.862 392.825 234.866C392.907 234.875 392.964 234.88 392.996 234.88C393.283 234.88 393.527 234.841 393.728 234.764C393.928 234.691 394.097 234.565 394.233 234.388C394.375 234.215 394.495 233.975 394.596 233.67L395.122 232.234ZM393.611 225.604L395.532 231.346L395.86 232.679L394.951 233.144L392.23 225.604H393.611ZM408.479 233V234.039H402.211V233H408.479ZM414.796 233V234.039H408.527V233H414.796ZM421.112 233V234.039H414.844V233H421.112ZM427.429 233V234.039H421.16V233H427.429ZM433.745 233V234.039H427.477V233H433.745ZM440.062 233V234.039H433.793V233H440.062ZM446.378 233V234.039H440.109V233H446.378ZM452.694 233V234.039H446.426V233H452.694ZM459.011 233V234.039H452.742V233H459.011ZM465.327 233V234.039H459.059V233H465.327ZM471.644 233V234.039H465.375V233H471.644ZM477.96 233V234.039H471.691V233H477.96ZM484.276 233V234.039H478.008V233H484.276ZM490.593 233V234.039H484.324V233H490.593ZM496.909 233V234.039H490.641V233H496.909ZM503.226 233V234.039H496.957V233H503.226ZM509.542 233V234.039H503.273V233H509.542ZM515.858 233V234.039H509.59V233H515.858ZM522.175 233V234.039H515.906V233H522.175ZM528.491 233V234.039H522.223V233H528.491ZM534.808 233V234.039H528.539V233H534.808ZM541.124 233V234.039H534.855V233H541.124ZM547.44 233V234.039H541.172V233H547.44ZM553.757 233V234.039H547.488V233H553.757ZM560.073 233V234.039H553.805V233H560.073ZM566.39 233V234.039H560.121V233H566.39ZM572.706 233V234.039H566.438V233H572.706ZM579.022 233V234.039H572.754V233H579.022ZM128.849 297H126.771L126.784 295.927H128.849C129.56 295.927 130.152 295.779 130.626 295.482C131.1 295.182 131.455 294.762 131.692 294.225C131.934 293.682 132.055 293.049 132.055 292.324V291.716C132.055 291.146 131.986 290.64 131.85 290.198C131.713 289.752 131.512 289.376 131.248 289.07C130.984 288.76 130.66 288.526 130.277 288.366C129.899 288.207 129.464 288.127 128.972 288.127H126.729V287.047H128.972C129.623 287.047 130.218 287.156 130.756 287.375C131.294 287.589 131.756 287.901 132.144 288.312C132.535 288.717 132.836 289.209 133.046 289.788C133.256 290.362 133.36 291.009 133.36 291.729V292.324C133.36 293.044 133.256 293.694 133.046 294.272C132.836 294.847 132.533 295.337 132.137 295.742C131.745 296.148 131.271 296.46 130.715 296.679C130.163 296.893 129.541 297 128.849 297ZM127.475 287.047V297H126.155V287.047H127.475ZM139.513 295.735V291.928C139.513 291.636 139.453 291.383 139.335 291.169C139.221 290.95 139.048 290.782 138.815 290.663C138.583 290.545 138.296 290.485 137.954 290.485C137.635 290.485 137.355 290.54 137.113 290.649C136.876 290.759 136.689 290.902 136.553 291.08C136.421 291.258 136.354 291.449 136.354 291.654H135.09C135.09 291.39 135.158 291.128 135.295 290.868C135.432 290.608 135.628 290.374 135.883 290.164C136.143 289.95 136.452 289.781 136.812 289.658C137.177 289.531 137.583 289.467 138.029 289.467C138.567 289.467 139.041 289.558 139.451 289.74C139.866 289.923 140.189 290.198 140.422 290.567C140.659 290.932 140.777 291.39 140.777 291.941V295.387C140.777 295.633 140.798 295.895 140.839 296.173C140.884 296.451 140.951 296.69 141.037 296.891V297H139.718C139.654 296.854 139.604 296.66 139.567 296.419C139.531 296.173 139.513 295.945 139.513 295.735ZM139.731 292.516L139.745 293.404H138.467C138.107 293.404 137.785 293.434 137.503 293.493C137.22 293.548 136.983 293.632 136.792 293.746C136.601 293.86 136.455 294.004 136.354 294.177C136.254 294.345 136.204 294.544 136.204 294.771C136.204 295.004 136.257 295.216 136.361 295.407C136.466 295.599 136.623 295.751 136.833 295.865C137.047 295.975 137.309 296.029 137.619 296.029C138.007 296.029 138.348 295.947 138.645 295.783C138.941 295.619 139.175 295.419 139.349 295.182C139.526 294.945 139.622 294.715 139.636 294.491L140.176 295.1C140.144 295.291 140.057 295.503 139.916 295.735C139.775 295.968 139.586 296.191 139.349 296.405C139.116 296.615 138.838 296.79 138.515 296.932C138.196 297.068 137.836 297.137 137.435 297.137C136.933 297.137 136.493 297.039 136.115 296.843C135.742 296.647 135.45 296.385 135.24 296.057C135.035 295.724 134.933 295.353 134.933 294.942C134.933 294.546 135.01 294.197 135.165 293.896C135.32 293.591 135.543 293.338 135.835 293.138C136.127 292.933 136.478 292.778 136.888 292.673C137.298 292.568 137.756 292.516 138.262 292.516H139.731ZM145.863 289.604V290.574H141.864V289.604H145.863ZM143.218 287.806H144.482V295.168C144.482 295.419 144.521 295.608 144.599 295.735C144.676 295.863 144.776 295.947 144.899 295.988C145.022 296.029 145.155 296.05 145.296 296.05C145.401 296.05 145.51 296.041 145.624 296.022C145.743 296 145.831 295.981 145.891 295.968L145.897 297C145.797 297.032 145.665 297.062 145.501 297.089C145.341 297.121 145.148 297.137 144.92 297.137C144.61 297.137 144.325 297.075 144.065 296.952C143.806 296.829 143.598 296.624 143.443 296.337C143.293 296.045 143.218 295.653 143.218 295.161V287.806ZM150.416 297.137C149.901 297.137 149.434 297.05 149.015 296.877C148.6 296.699 148.242 296.451 147.941 296.132C147.645 295.813 147.417 295.435 147.258 294.997C147.098 294.56 147.019 294.081 147.019 293.562V293.274C147.019 292.673 147.107 292.137 147.285 291.668C147.463 291.194 147.704 290.793 148.01 290.465C148.315 290.137 148.661 289.888 149.049 289.72C149.436 289.551 149.837 289.467 150.252 289.467C150.781 289.467 151.236 289.558 151.619 289.74C152.007 289.923 152.323 290.178 152.569 290.506C152.815 290.829 152.998 291.212 153.116 291.654C153.235 292.092 153.294 292.57 153.294 293.09V293.657H147.771V292.625H152.029V292.529C152.011 292.201 151.943 291.882 151.824 291.572C151.71 291.262 151.528 291.007 151.277 290.807C151.027 290.606 150.685 290.506 150.252 290.506C149.965 290.506 149.701 290.567 149.459 290.69C149.217 290.809 149.01 290.987 148.837 291.224C148.664 291.461 148.529 291.75 148.434 292.092C148.338 292.434 148.29 292.828 148.29 293.274V293.562C148.29 293.912 148.338 294.243 148.434 294.553C148.534 294.858 148.677 295.127 148.864 295.359C149.056 295.592 149.286 295.774 149.555 295.906C149.828 296.038 150.138 296.104 150.484 296.104C150.931 296.104 151.309 296.013 151.619 295.831C151.929 295.649 152.2 295.405 152.433 295.1L153.198 295.708C153.039 295.95 152.836 296.18 152.59 296.398C152.344 296.617 152.041 296.795 151.681 296.932C151.325 297.068 150.904 297.137 150.416 297.137ZM167.048 297V298.039H160.779V297H167.048ZM173.364 297V298.039H167.096V297H173.364ZM179.681 297V298.039H173.412V297H179.681ZM185.997 297V298.039H179.729V297H185.997ZM192.313 297V298.039H186.045V297H192.313ZM198.63 297V298.039H192.361V297H198.63ZM204.946 297V298.039H198.678V297H204.946ZM211.263 297V298.039H204.994V297H211.263ZM217.579 297V298.039H211.311V297H217.579ZM223.896 297V298.039H217.627V297H223.896ZM230.212 297V298.039H223.943V297H230.212ZM236.528 297V298.039H230.26V297H236.528ZM269.669 287.047V297H268.343L263.332 289.323V297H262.013V287.047H263.332L268.363 294.744V287.047H269.669ZM276.341 295.291V289.604H277.612V297H276.402L276.341 295.291ZM276.58 293.732L277.106 293.719C277.106 294.211 277.054 294.667 276.949 295.086C276.849 295.501 276.685 295.861 276.457 296.166C276.229 296.471 275.931 296.711 275.562 296.884C275.192 297.052 274.743 297.137 274.215 297.137C273.855 297.137 273.524 297.084 273.224 296.979C272.927 296.875 272.672 296.713 272.458 296.494C272.244 296.275 272.077 295.991 271.959 295.64C271.845 295.289 271.788 294.867 271.788 294.375V289.604H273.053V294.389C273.053 294.721 273.089 294.997 273.162 295.216C273.24 295.43 273.342 295.601 273.47 295.729C273.602 295.852 273.748 295.938 273.907 295.988C274.071 296.038 274.24 296.063 274.413 296.063C274.951 296.063 275.377 295.961 275.691 295.756C276.006 295.546 276.231 295.266 276.368 294.915C276.509 294.56 276.58 294.165 276.58 293.732ZM280.798 291.073V297H279.526V289.604H280.729L280.798 291.073ZM280.538 293.021L279.95 293.001C279.955 292.495 280.021 292.028 280.148 291.6C280.276 291.167 280.465 290.791 280.716 290.472C280.966 290.153 281.279 289.907 281.652 289.733C282.026 289.556 282.459 289.467 282.951 289.467C283.298 289.467 283.617 289.517 283.908 289.617C284.2 289.713 284.453 289.866 284.667 290.075C284.881 290.285 285.048 290.554 285.166 290.882C285.285 291.21 285.344 291.606 285.344 292.071V297H284.079V292.133C284.079 291.745 284.013 291.436 283.881 291.203C283.753 290.971 283.571 290.802 283.334 290.697C283.097 290.588 282.819 290.533 282.5 290.533C282.126 290.533 281.814 290.599 281.563 290.731C281.313 290.864 281.112 291.046 280.962 291.278C280.812 291.511 280.702 291.777 280.634 292.078C280.57 292.374 280.538 292.689 280.538 293.021ZM285.33 292.324L284.482 292.584C284.487 292.178 284.553 291.789 284.681 291.415C284.813 291.041 285.002 290.709 285.248 290.417C285.499 290.125 285.806 289.895 286.171 289.727C286.535 289.553 286.952 289.467 287.422 289.467C287.818 289.467 288.169 289.519 288.475 289.624C288.785 289.729 289.044 289.891 289.254 290.109C289.468 290.324 289.63 290.599 289.739 290.937C289.849 291.274 289.903 291.675 289.903 292.14V297H288.632V292.126C288.632 291.711 288.566 291.39 288.434 291.162C288.306 290.93 288.124 290.768 287.887 290.677C287.654 290.581 287.376 290.533 287.053 290.533C286.775 290.533 286.529 290.581 286.314 290.677C286.1 290.772 285.92 290.905 285.774 291.073C285.629 291.237 285.517 291.426 285.439 291.641C285.367 291.855 285.33 292.083 285.33 292.324ZM291.838 296.33C291.838 296.116 291.904 295.936 292.036 295.79C292.173 295.64 292.369 295.564 292.624 295.564C292.879 295.564 293.073 295.64 293.205 295.79C293.342 295.936 293.41 296.116 293.41 296.33C293.41 296.54 293.342 296.717 293.205 296.863C293.073 297.009 292.879 297.082 292.624 297.082C292.369 297.082 292.173 297.009 292.036 296.863C291.904 296.717 291.838 296.54 291.838 296.33ZM300.246 286.5V297H298.981V286.5H300.246ZM299.945 293.021L299.419 293.001C299.424 292.495 299.499 292.028 299.645 291.6C299.79 291.167 299.995 290.791 300.26 290.472C300.524 290.153 300.839 289.907 301.203 289.733C301.572 289.556 301.98 289.467 302.427 289.467C302.791 289.467 303.119 289.517 303.411 289.617C303.703 289.713 303.951 289.868 304.156 290.082C304.366 290.296 304.525 290.574 304.635 290.916C304.744 291.253 304.799 291.666 304.799 292.153V297H303.527V292.14C303.527 291.752 303.47 291.442 303.356 291.21C303.243 290.973 303.076 290.802 302.857 290.697C302.639 290.588 302.37 290.533 302.051 290.533C301.736 290.533 301.449 290.599 301.189 290.731C300.934 290.864 300.713 291.046 300.526 291.278C300.344 291.511 300.201 291.777 300.096 292.078C299.995 292.374 299.945 292.689 299.945 293.021ZM306.713 296.33C306.713 296.116 306.779 295.936 306.911 295.79C307.048 295.64 307.244 295.564 307.499 295.564C307.754 295.564 307.948 295.64 308.08 295.79C308.217 295.936 308.285 296.116 308.285 296.33C308.285 296.54 308.217 296.717 308.08 296.863C307.948 297.009 307.754 297.082 307.499 297.082C307.244 297.082 307.048 297.009 306.911 296.863C306.779 296.717 306.713 296.54 306.713 296.33ZM319.188 297V298.039H312.92V297H319.188ZM325.505 297V298.039H319.236V297H325.505ZM331.821 297V298.039H325.553V297H331.821ZM338.138 297V298.039H331.869V297H338.138ZM344.454 297V298.039H338.186V297H344.454ZM350.771 297V298.039H344.502V297H350.771ZM357.087 297V298.039H350.818V297H357.087ZM363.403 297V298.039H357.135V297H363.403ZM369.72 297V298.039H363.451V297H369.72ZM376.036 297V298.039H369.768V297H376.036ZM382.353 297V298.039H376.084V297H382.353ZM388.669 297V298.039H382.4V297H388.669ZM394.985 297V298.039H388.717V297H394.985Z" fill="black"/>
<path d="M307.234 108.479H309.109C309.012 109.377 308.755 110.181 308.338 110.891C307.921 111.6 307.332 112.163 306.57 112.58C305.809 112.99 304.858 113.195 303.719 113.195C302.885 113.195 302.127 113.039 301.443 112.727C300.766 112.414 300.184 111.971 299.695 111.398C299.207 110.819 298.829 110.126 298.562 109.318C298.302 108.505 298.172 107.6 298.172 106.604V105.188C298.172 104.191 298.302 103.29 298.562 102.482C298.829 101.669 299.21 100.972 299.705 100.393C300.206 99.8132 300.809 99.3672 301.512 99.0547C302.215 98.7422 303.006 98.5859 303.885 98.5859C304.959 98.5859 305.867 98.7878 306.609 99.1914C307.352 99.5951 307.928 100.155 308.338 100.871C308.755 101.581 309.012 102.404 309.109 103.342H307.234C307.143 102.678 306.974 102.108 306.727 101.633C306.479 101.151 306.128 100.78 305.672 100.52C305.216 100.259 304.62 100.129 303.885 100.129C303.253 100.129 302.697 100.249 302.215 100.49C301.74 100.731 301.339 101.073 301.014 101.516C300.695 101.958 300.454 102.489 300.291 103.107C300.128 103.726 300.047 104.413 300.047 105.168V106.604C300.047 107.3 300.118 107.954 300.262 108.566C300.411 109.178 300.636 109.715 300.936 110.178C301.235 110.64 301.616 111.005 302.078 111.271C302.54 111.532 303.087 111.662 303.719 111.662C304.52 111.662 305.158 111.535 305.633 111.281C306.108 111.027 306.466 110.663 306.707 110.188C306.954 109.712 307.13 109.143 307.234 108.479ZM320.711 111.467V113H313.182V111.467H320.711ZM313.562 98.7812V113H311.678V98.7812H313.562ZM319.715 104.895V106.428H313.182V104.895H319.715ZM320.613 98.7812V100.324H313.182V98.7812H320.613ZM323.045 98.7812H327.752C328.82 98.7812 329.721 98.944 330.457 99.2695C331.199 99.5951 331.762 100.077 332.146 100.715C332.537 101.346 332.732 102.124 332.732 103.049C332.732 103.7 332.599 104.296 332.332 104.836C332.072 105.37 331.694 105.826 331.199 106.203C330.711 106.574 330.125 106.851 329.441 107.033L328.914 107.238H324.49L324.471 105.705H327.811C328.488 105.705 329.051 105.588 329.5 105.354C329.949 105.113 330.288 104.79 330.516 104.387C330.743 103.983 330.857 103.537 330.857 103.049C330.857 102.502 330.75 102.023 330.535 101.613C330.32 101.203 329.982 100.887 329.52 100.666C329.064 100.438 328.475 100.324 327.752 100.324H324.93V113H323.045V98.7812ZM331.355 113L327.898 106.555L329.861 106.545L333.367 112.883V113H331.355ZM339.842 98.7812V113H337.986V98.7812H339.842ZM344.412 98.7812V100.324H333.426V98.7812H344.412ZM348.543 98.7812V113H346.658V98.7812H348.543ZM353.855 98.7812V113H351.971V98.7812H353.855ZM359.812 105.178V106.721H353.445V105.178H359.812ZM360.779 98.7812V100.324H353.445V98.7812H360.779ZM365.047 98.7812V113H363.162V98.7812H365.047ZM377.059 108.479H378.934C378.836 109.377 378.579 110.181 378.162 110.891C377.745 111.6 377.156 112.163 376.395 112.58C375.633 112.99 374.682 113.195 373.543 113.195C372.71 113.195 371.951 113.039 371.268 112.727C370.59 112.414 370.008 111.971 369.52 111.398C369.031 110.819 368.654 110.126 368.387 109.318C368.126 108.505 367.996 107.6 367.996 106.604V105.188C367.996 104.191 368.126 103.29 368.387 102.482C368.654 101.669 369.035 100.972 369.529 100.393C370.031 99.8132 370.633 99.3672 371.336 99.0547C372.039 98.7422 372.83 98.5859 373.709 98.5859C374.783 98.5859 375.691 98.7878 376.434 99.1914C377.176 99.5951 377.752 100.155 378.162 100.871C378.579 101.581 378.836 102.404 378.934 103.342H377.059C376.967 102.678 376.798 102.108 376.551 101.633C376.303 101.151 375.952 100.78 375.496 100.52C375.04 100.259 374.445 100.129 373.709 100.129C373.077 100.129 372.521 100.249 372.039 100.49C371.564 100.731 371.163 101.073 370.838 101.516C370.519 101.958 370.278 102.489 370.115 103.107C369.952 103.726 369.871 104.413 369.871 105.168V106.604C369.871 107.3 369.943 107.954 370.086 108.566C370.236 109.178 370.46 109.715 370.76 110.178C371.059 110.64 371.44 111.005 371.902 111.271C372.365 111.532 372.911 111.662 373.543 111.662C374.344 111.662 374.982 111.535 375.457 111.281C375.932 111.027 376.29 110.663 376.531 110.188C376.779 109.712 376.954 109.143 377.059 108.479ZM386.766 100.041L382.059 113H380.135L385.555 98.7812H386.795L386.766 100.041ZM390.711 113L385.994 100.041L385.965 98.7812H387.205L392.645 113H390.711ZM390.467 107.736V109.279H382.479V107.736H390.467ZM398.533 98.7812V113H396.678V98.7812H398.533ZM403.104 98.7812V100.324H392.117V98.7812H403.104ZM414.246 111.467V113H406.717V111.467H414.246ZM407.098 98.7812V113H405.213V98.7812H407.098ZM413.25 104.895V106.428H406.717V104.895H413.25ZM414.148 98.7812V100.324H406.717V98.7812H414.148Z" fill="black"/>
</svg>
