<svg width="750" height="400" viewBox="0 0 750 400" fill="none" xmlns="http://www.w3.org/2000/svg">
<rect width="750" height="400" fill="#FFFFFE"/>
<rect y="0.461426" width="138.932" height="399.539" fill="black"/>
<rect y="0.461426" width="138.932" height="201.457" fill="#6DD16B"/>
<rect x="635.793" y="129.889" width="114.207" height="23.6347" fill="black"/>
<rect x="619.309" y="117.509" width="114.207" height="23.6347" fill="#6DD16B"/>
<line x1="166.335" y1="0.461426" x2="166.335" y2="213.174" stroke="#6DD16B" stroke-width="3"/>
<line x1="156.916" y1="0.461426" x2="156.916" y2="213.174" stroke="#6DD16B" stroke-width="3"/>
<line x1="147.497" y1="0.461426" x2="147.497" y2="201.919" stroke="#6DD16B" stroke-width="3"/>
<line x1="166.335" y1="201.919" x2="166.335" y2="400" stroke="black" stroke-width="3"/>
<line x1="156.916" y1="201.919" x2="156.916" y2="400" stroke="black" stroke-width="3"/>
<line x1="147.497" y1="201.919" x2="147.497" y2="400" stroke="black" stroke-width="3"/>
<path d="M228.189 197.097H225.53V196.023H228.189C228.704 196.023 229.121 195.941 229.44 195.777C229.759 195.613 229.992 195.385 230.138 195.094C230.288 194.802 230.363 194.469 230.363 194.096C230.363 193.754 230.288 193.433 230.138 193.132C229.992 192.831 229.759 192.59 229.44 192.407C229.121 192.22 228.704 192.127 228.189 192.127H225.838V201H224.519V191.047H228.189C228.941 191.047 229.577 191.177 230.097 191.437C230.616 191.696 231.01 192.056 231.279 192.517C231.548 192.972 231.683 193.494 231.683 194.082C231.683 194.72 231.548 195.265 231.279 195.716C231.01 196.167 230.616 196.511 230.097 196.748C229.577 196.98 228.941 197.097 228.189 197.097ZM234.424 194.766V201H233.159V193.604H234.39L234.424 194.766ZM236.734 193.562L236.728 194.738C236.623 194.715 236.522 194.702 236.427 194.697C236.336 194.688 236.231 194.684 236.112 194.684C235.821 194.684 235.563 194.729 235.34 194.82C235.117 194.911 234.927 195.039 234.772 195.203C234.618 195.367 234.494 195.563 234.403 195.791C234.317 196.014 234.26 196.26 234.232 196.529L233.877 196.734C233.877 196.288 233.92 195.868 234.007 195.477C234.098 195.085 234.237 194.738 234.424 194.438C234.611 194.132 234.848 193.895 235.135 193.727C235.426 193.553 235.773 193.467 236.174 193.467C236.265 193.467 236.37 193.478 236.488 193.501C236.607 193.519 236.689 193.54 236.734 193.562ZM240.836 201.137C240.321 201.137 239.854 201.05 239.435 200.877C239.02 200.699 238.662 200.451 238.361 200.132C238.065 199.813 237.837 199.435 237.678 198.997C237.518 198.56 237.438 198.081 237.438 197.562V197.274C237.438 196.673 237.527 196.137 237.705 195.668C237.883 195.194 238.124 194.793 238.43 194.465C238.735 194.137 239.081 193.888 239.469 193.72C239.856 193.551 240.257 193.467 240.672 193.467C241.201 193.467 241.656 193.558 242.039 193.74C242.426 193.923 242.743 194.178 242.989 194.506C243.235 194.829 243.418 195.212 243.536 195.654C243.655 196.092 243.714 196.57 243.714 197.09V197.657H238.19V196.625H242.449V196.529C242.431 196.201 242.363 195.882 242.244 195.572C242.13 195.262 241.948 195.007 241.697 194.807C241.447 194.606 241.105 194.506 240.672 194.506C240.385 194.506 240.12 194.567 239.879 194.69C239.637 194.809 239.43 194.987 239.257 195.224C239.084 195.461 238.949 195.75 238.854 196.092C238.758 196.434 238.71 196.828 238.71 197.274V197.562C238.71 197.912 238.758 198.243 238.854 198.553C238.954 198.858 239.097 199.127 239.284 199.359C239.476 199.592 239.706 199.774 239.975 199.906C240.248 200.038 240.558 200.104 240.904 200.104C241.351 200.104 241.729 200.013 242.039 199.831C242.349 199.649 242.62 199.405 242.853 199.1L243.618 199.708C243.459 199.95 243.256 200.18 243.01 200.398C242.764 200.617 242.461 200.795 242.101 200.932C241.745 201.068 241.324 201.137 240.836 201.137ZM249.497 199.038C249.497 198.856 249.456 198.687 249.374 198.532C249.297 198.373 249.135 198.229 248.889 198.102C248.647 197.969 248.283 197.855 247.795 197.76C247.385 197.673 247.013 197.571 246.681 197.452C246.353 197.334 246.072 197.19 245.84 197.021C245.612 196.853 245.437 196.655 245.313 196.427C245.19 196.199 245.129 195.932 245.129 195.627C245.129 195.335 245.193 195.06 245.32 194.8C245.452 194.54 245.637 194.31 245.874 194.109C246.116 193.909 246.405 193.752 246.742 193.638C247.079 193.524 247.455 193.467 247.87 193.467C248.463 193.467 248.968 193.572 249.388 193.781C249.807 193.991 250.128 194.271 250.352 194.622C250.575 194.968 250.687 195.354 250.687 195.777H249.422C249.422 195.572 249.36 195.374 249.237 195.183C249.119 194.987 248.943 194.825 248.711 194.697C248.483 194.57 248.203 194.506 247.87 194.506C247.519 194.506 247.234 194.561 247.016 194.67C246.801 194.775 246.644 194.909 246.544 195.073C246.448 195.237 246.4 195.41 246.4 195.593C246.4 195.729 246.423 195.853 246.469 195.962C246.519 196.067 246.605 196.165 246.729 196.256C246.852 196.342 247.025 196.424 247.248 196.502C247.471 196.579 247.756 196.657 248.103 196.734C248.709 196.871 249.208 197.035 249.6 197.227C249.992 197.418 250.283 197.653 250.475 197.931C250.666 198.209 250.762 198.546 250.762 198.942C250.762 199.266 250.693 199.562 250.557 199.831C250.424 200.1 250.231 200.332 249.976 200.528C249.725 200.72 249.424 200.87 249.073 200.979C248.727 201.084 248.337 201.137 247.904 201.137C247.253 201.137 246.701 201.021 246.25 200.788C245.799 200.556 245.457 200.255 245.225 199.886C244.992 199.517 244.876 199.127 244.876 198.717H246.147C246.166 199.063 246.266 199.339 246.448 199.544C246.631 199.744 246.854 199.888 247.118 199.975C247.382 200.057 247.645 200.098 247.904 200.098C248.251 200.098 248.54 200.052 248.772 199.961C249.009 199.87 249.189 199.744 249.312 199.585C249.436 199.425 249.497 199.243 249.497 199.038ZM255.492 201.137C254.977 201.137 254.51 201.05 254.091 200.877C253.676 200.699 253.318 200.451 253.018 200.132C252.721 199.813 252.493 199.435 252.334 198.997C252.174 198.56 252.095 198.081 252.095 197.562V197.274C252.095 196.673 252.184 196.137 252.361 195.668C252.539 195.194 252.781 194.793 253.086 194.465C253.391 194.137 253.738 193.888 254.125 193.72C254.512 193.551 254.913 193.467 255.328 193.467C255.857 193.467 256.312 193.558 256.695 193.74C257.083 193.923 257.399 194.178 257.646 194.506C257.892 194.829 258.074 195.212 258.192 195.654C258.311 196.092 258.37 196.57 258.37 197.09V197.657H252.847V196.625H257.105V196.529C257.087 196.201 257.019 195.882 256.9 195.572C256.786 195.262 256.604 195.007 256.354 194.807C256.103 194.606 255.761 194.506 255.328 194.506C255.041 194.506 254.777 194.567 254.535 194.69C254.294 194.809 254.086 194.987 253.913 195.224C253.74 195.461 253.605 195.75 253.51 196.092C253.414 196.434 253.366 196.828 253.366 197.274V197.562C253.366 197.912 253.414 198.243 253.51 198.553C253.61 198.858 253.754 199.127 253.94 199.359C254.132 199.592 254.362 199.774 254.631 199.906C254.904 200.038 255.214 200.104 255.561 200.104C256.007 200.104 256.385 200.013 256.695 199.831C257.005 199.649 257.276 199.405 257.509 199.1L258.274 199.708C258.115 199.95 257.912 200.18 257.666 200.398C257.42 200.617 257.117 200.795 256.757 200.932C256.401 201.068 255.98 201.137 255.492 201.137ZM261.111 195.183V201H259.847V193.604H261.043L261.111 195.183ZM260.811 197.021L260.284 197.001C260.289 196.495 260.364 196.028 260.51 195.6C260.656 195.167 260.861 194.791 261.125 194.472C261.389 194.153 261.704 193.907 262.068 193.733C262.438 193.556 262.845 193.467 263.292 193.467C263.657 193.467 263.985 193.517 264.276 193.617C264.568 193.713 264.816 193.868 265.021 194.082C265.231 194.296 265.391 194.574 265.5 194.916C265.609 195.253 265.664 195.666 265.664 196.153V201H264.393V196.14C264.393 195.752 264.336 195.442 264.222 195.21C264.108 194.973 263.941 194.802 263.723 194.697C263.504 194.588 263.235 194.533 262.916 194.533C262.602 194.533 262.314 194.599 262.055 194.731C261.799 194.864 261.578 195.046 261.392 195.278C261.209 195.511 261.066 195.777 260.961 196.078C260.861 196.374 260.811 196.689 260.811 197.021ZM270.682 193.604V194.574H266.683V193.604H270.682ZM268.036 191.806H269.301V199.168C269.301 199.419 269.34 199.608 269.417 199.735C269.494 199.863 269.595 199.947 269.718 199.988C269.841 200.029 269.973 200.05 270.114 200.05C270.219 200.05 270.328 200.041 270.442 200.022C270.561 200 270.65 199.981 270.709 199.968L270.716 201C270.616 201.032 270.483 201.062 270.319 201.089C270.16 201.121 269.966 201.137 269.738 201.137C269.428 201.137 269.144 201.075 268.884 200.952C268.624 200.829 268.417 200.624 268.262 200.337C268.111 200.045 268.036 199.653 268.036 199.161V191.806ZM275.234 201.137C274.719 201.137 274.252 201.05 273.833 200.877C273.418 200.699 273.061 200.451 272.76 200.132C272.464 199.813 272.236 199.435 272.076 198.997C271.917 198.56 271.837 198.081 271.837 197.562V197.274C271.837 196.673 271.926 196.137 272.104 195.668C272.281 195.194 272.523 194.793 272.828 194.465C273.133 194.137 273.48 193.888 273.867 193.72C274.255 193.551 274.656 193.467 275.07 193.467C275.599 193.467 276.055 193.558 276.438 193.74C276.825 193.923 277.142 194.178 277.388 194.506C277.634 194.829 277.816 195.212 277.935 195.654C278.053 196.092 278.112 196.57 278.112 197.09V197.657H272.589V196.625H276.848V196.529C276.829 196.201 276.761 195.882 276.643 195.572C276.529 195.262 276.346 195.007 276.096 194.807C275.845 194.606 275.503 194.506 275.07 194.506C274.783 194.506 274.519 194.567 274.277 194.69C274.036 194.809 273.828 194.987 273.655 195.224C273.482 195.461 273.348 195.75 273.252 196.092C273.156 196.434 273.108 196.828 273.108 197.274V197.562C273.108 197.912 273.156 198.243 273.252 198.553C273.352 198.858 273.496 199.127 273.683 199.359C273.874 199.592 274.104 199.774 274.373 199.906C274.646 200.038 274.956 200.104 275.303 200.104C275.749 200.104 276.128 200.013 276.438 199.831C276.747 199.649 277.019 199.405 277.251 199.1L278.017 199.708C277.857 199.95 277.654 200.18 277.408 200.398C277.162 200.617 276.859 200.795 276.499 200.932C276.144 201.068 275.722 201.137 275.234 201.137ZM284.251 199.564V190.5H285.522V201H284.36L284.251 199.564ZM279.274 197.384V197.24C279.274 196.675 279.343 196.162 279.479 195.702C279.621 195.237 279.819 194.839 280.074 194.506C280.334 194.173 280.642 193.918 280.997 193.74C281.357 193.558 281.758 193.467 282.2 193.467C282.665 193.467 283.071 193.549 283.417 193.713C283.768 193.872 284.064 194.107 284.306 194.417C284.552 194.722 284.745 195.091 284.887 195.524C285.028 195.957 285.126 196.447 285.181 196.994V197.623C285.131 198.165 285.033 198.653 284.887 199.086C284.745 199.519 284.552 199.888 284.306 200.193C284.064 200.499 283.768 200.733 283.417 200.897C283.066 201.057 282.656 201.137 282.187 201.137C281.754 201.137 281.357 201.043 280.997 200.856C280.642 200.67 280.334 200.408 280.074 200.07C279.819 199.733 279.621 199.337 279.479 198.881C279.343 198.421 279.274 197.922 279.274 197.384ZM280.546 197.24V197.384C280.546 197.753 280.582 198.099 280.655 198.423C280.733 198.746 280.851 199.031 281.011 199.277C281.17 199.523 281.373 199.717 281.619 199.858C281.865 199.995 282.159 200.063 282.501 200.063C282.92 200.063 283.264 199.975 283.533 199.797C283.807 199.619 284.025 199.384 284.189 199.093C284.354 198.801 284.481 198.484 284.572 198.143V196.495C284.518 196.244 284.438 196.003 284.333 195.771C284.233 195.534 284.101 195.324 283.937 195.142C283.777 194.955 283.579 194.807 283.342 194.697C283.109 194.588 282.834 194.533 282.515 194.533C282.168 194.533 281.87 194.606 281.619 194.752C281.373 194.893 281.17 195.089 281.011 195.34C280.851 195.586 280.733 195.873 280.655 196.201C280.582 196.525 280.546 196.871 280.546 197.24ZM294.061 193.604V194.574H290.062V193.604H294.061ZM291.415 191.806H292.68V199.168C292.68 199.419 292.718 199.608 292.796 199.735C292.873 199.863 292.974 199.947 293.097 199.988C293.22 200.029 293.352 200.05 293.493 200.05C293.598 200.05 293.707 200.041 293.821 200.022C293.94 200 294.029 199.981 294.088 199.968L294.095 201C293.994 201.032 293.862 201.062 293.698 201.089C293.539 201.121 293.345 201.137 293.117 201.137C292.807 201.137 292.522 201.075 292.263 200.952C292.003 200.829 291.796 200.624 291.641 200.337C291.49 200.045 291.415 199.653 291.415 199.161V191.806ZM295.072 197.384V197.227C295.072 196.693 295.15 196.199 295.305 195.743C295.46 195.283 295.683 194.884 295.975 194.547C296.266 194.205 296.619 193.941 297.034 193.754C297.449 193.562 297.914 193.467 298.429 193.467C298.948 193.467 299.415 193.562 299.83 193.754C300.249 193.941 300.605 194.205 300.896 194.547C301.193 194.884 301.418 195.283 301.573 195.743C301.728 196.199 301.806 196.693 301.806 197.227V197.384C301.806 197.917 301.728 198.411 301.573 198.867C301.418 199.323 301.193 199.722 300.896 200.063C300.605 200.401 300.252 200.665 299.837 200.856C299.427 201.043 298.962 201.137 298.442 201.137C297.923 201.137 297.456 201.043 297.041 200.856C296.626 200.665 296.271 200.401 295.975 200.063C295.683 199.722 295.46 199.323 295.305 198.867C295.15 198.411 295.072 197.917 295.072 197.384ZM296.337 197.227V197.384C296.337 197.753 296.38 198.102 296.467 198.43C296.553 198.753 296.683 199.04 296.856 199.291C297.034 199.542 297.255 199.74 297.52 199.886C297.784 200.027 298.091 200.098 298.442 200.098C298.789 200.098 299.092 200.027 299.352 199.886C299.616 199.74 299.835 199.542 300.008 199.291C300.181 199.04 300.311 198.753 300.397 198.43C300.489 198.102 300.534 197.753 300.534 197.384V197.227C300.534 196.862 300.489 196.518 300.397 196.194C300.311 195.866 300.179 195.577 300.001 195.326C299.828 195.071 299.609 194.87 299.345 194.725C299.085 194.579 298.78 194.506 298.429 194.506C298.082 194.506 297.777 194.579 297.513 194.725C297.253 194.87 297.034 195.071 296.856 195.326C296.683 195.577 296.553 195.866 296.467 196.194C296.38 196.518 296.337 196.862 296.337 197.227ZM306.81 200.33C306.81 200.116 306.876 199.936 307.008 199.79C307.145 199.64 307.34 199.564 307.596 199.564C307.851 199.564 308.045 199.64 308.177 199.79C308.313 199.936 308.382 200.116 308.382 200.33C308.382 200.54 308.313 200.717 308.177 200.863C308.045 201.009 307.851 201.082 307.596 201.082C307.34 201.082 307.145 201.009 307.008 200.863C306.876 200.717 306.81 200.54 306.81 200.33ZM306.816 194.294C306.816 194.08 306.882 193.9 307.015 193.754C307.151 193.604 307.347 193.528 307.603 193.528C307.858 193.528 308.051 193.604 308.184 193.754C308.32 193.9 308.389 194.08 308.389 194.294C308.389 194.504 308.32 194.681 308.184 194.827C308.051 194.973 307.858 195.046 307.603 195.046C307.347 195.046 307.151 194.973 307.015 194.827C306.882 194.681 306.816 194.504 306.816 194.294ZM315.587 201V202.039H309.318V201H315.587ZM321.903 201V202.039H315.635V201H321.903ZM328.22 201V202.039H321.951V201H328.22ZM334.536 201V202.039H328.268V201H334.536ZM340.853 201V202.039H334.584V201H340.853ZM347.169 201V202.039H340.9V201H347.169ZM353.485 201V202.039H347.217V201H353.485ZM359.802 201V202.039H353.533V201H359.802ZM366.118 201V202.039H359.85V201H366.118ZM372.435 201V202.039H366.166V201H372.435ZM378.751 201V202.039H372.482V201H378.751ZM385.067 201V202.039H378.799V201H385.067ZM391.384 201V202.039H385.115V201H391.384ZM397.7 201V202.039H391.432V201H397.7ZM404.017 201V202.039H397.748V201H404.017ZM410.333 201V202.039H404.064V201H410.333ZM416.649 201V202.039H410.381V201H416.649ZM422.966 201V202.039H416.697V201H422.966ZM429.282 201V202.039H423.014V201H429.282ZM435.599 201V202.039H429.33V201H435.599ZM441.915 201V202.039H435.646V201H441.915ZM448.231 201V202.039H441.963V201H448.231ZM454.548 201V202.039H448.279V201H454.548ZM460.864 201V202.039H454.596V201H460.864ZM467.181 201V202.039H460.912V201H467.181ZM473.497 201V202.039H467.229V201H473.497ZM479.813 201V202.039H473.545V201H479.813ZM486.13 201V202.039H479.861V201H486.13ZM492.446 201V202.039H486.178V201H492.446ZM498.763 201V202.039H492.494V201H498.763ZM505.079 201V202.039H498.811V201H505.079ZM511.396 201V202.039H505.127V201H511.396ZM517.712 201V202.039H511.443V201H517.712ZM524.028 201V202.039H517.76V201H524.028ZM530.345 201V202.039H524.076V201H530.345ZM536.661 201V202.039H530.393V201H536.661ZM542.978 201V202.039H536.709V201H542.978ZM549.294 201V202.039H543.025V201H549.294ZM555.61 201V202.039H549.342V201H555.61ZM561.927 201V202.039H555.658V201H561.927ZM568.243 201V202.039H561.975V201H568.243ZM574.56 201V202.039H568.291V201H574.56ZM580.876 201V202.039H574.607V201H580.876ZM587.192 201V202.039H580.924V201H587.192ZM593.509 201V202.039H587.24V201H593.509ZM599.825 201V202.039H593.557V201H599.825ZM606.142 201V202.039H599.873V201H606.142ZM612.458 201V202.039H606.189V201H612.458ZM208.475 223.047V233H207.155V223.047H208.475ZM212.645 227.524V228.604H208.188V227.524H212.645ZM213.321 223.047V224.127H208.188V223.047H213.321ZM214.217 229.384V229.227C214.217 228.693 214.294 228.199 214.449 227.743C214.604 227.283 214.827 226.884 215.119 226.547C215.411 226.205 215.764 225.941 216.179 225.754C216.593 225.562 217.058 225.467 217.573 225.467C218.093 225.467 218.56 225.562 218.975 225.754C219.394 225.941 219.749 226.205 220.041 226.547C220.337 226.884 220.563 227.283 220.718 227.743C220.873 228.199 220.95 228.693 220.95 229.227V229.384C220.95 229.917 220.873 230.411 220.718 230.867C220.563 231.323 220.337 231.722 220.041 232.063C219.749 232.401 219.396 232.665 218.981 232.856C218.571 233.043 218.106 233.137 217.587 233.137C217.067 233.137 216.6 233.043 216.186 232.856C215.771 232.665 215.415 232.401 215.119 232.063C214.827 231.722 214.604 231.323 214.449 230.867C214.294 230.411 214.217 229.917 214.217 229.384ZM215.481 229.227V229.384C215.481 229.753 215.525 230.102 215.611 230.43C215.698 230.753 215.828 231.04 216.001 231.291C216.179 231.542 216.4 231.74 216.664 231.886C216.928 232.027 217.236 232.098 217.587 232.098C217.933 232.098 218.236 232.027 218.496 231.886C218.76 231.74 218.979 231.542 219.152 231.291C219.326 231.04 219.455 230.753 219.542 230.43C219.633 230.102 219.679 229.753 219.679 229.384V229.227C219.679 228.862 219.633 228.518 219.542 228.194C219.455 227.866 219.323 227.577 219.146 227.326C218.972 227.071 218.754 226.87 218.489 226.725C218.229 226.579 217.924 226.506 217.573 226.506C217.227 226.506 216.922 226.579 216.657 226.725C216.397 226.87 216.179 227.071 216.001 227.326C215.828 227.577 215.698 227.866 215.611 228.194C215.525 228.518 215.481 228.862 215.481 229.227ZM223.801 226.766V233H222.536V225.604H223.767L223.801 226.766ZM226.111 225.562L226.104 226.738C226 226.715 225.899 226.702 225.804 226.697C225.713 226.688 225.608 226.684 225.489 226.684C225.198 226.684 224.94 226.729 224.717 226.82C224.493 226.911 224.304 227.039 224.149 227.203C223.994 227.367 223.871 227.563 223.78 227.791C223.694 228.014 223.637 228.26 223.609 228.529L223.254 228.734C223.254 228.288 223.297 227.868 223.384 227.477C223.475 227.085 223.614 226.738 223.801 226.438C223.988 226.132 224.225 225.895 224.512 225.727C224.803 225.553 225.15 225.467 225.551 225.467C225.642 225.467 225.747 225.478 225.865 225.501C225.984 225.519 226.066 225.54 226.111 225.562ZM232.018 227.025V235.844H230.746V225.604H231.908L232.018 227.025ZM237.001 229.24V229.384C237.001 229.922 236.937 230.421 236.81 230.881C236.682 231.337 236.495 231.733 236.249 232.07C236.007 232.408 235.709 232.67 235.354 232.856C234.998 233.043 234.59 233.137 234.13 233.137C233.66 233.137 233.246 233.059 232.886 232.904C232.526 232.749 232.22 232.524 231.97 232.228C231.719 231.931 231.519 231.576 231.368 231.161C231.222 230.746 231.122 230.279 231.067 229.76V228.994C231.122 228.447 231.225 227.957 231.375 227.524C231.525 227.091 231.724 226.722 231.97 226.417C232.22 226.107 232.523 225.872 232.879 225.713C233.234 225.549 233.645 225.467 234.109 225.467C234.574 225.467 234.987 225.558 235.347 225.74C235.707 225.918 236.01 226.173 236.256 226.506C236.502 226.839 236.687 227.237 236.81 227.702C236.937 228.162 237.001 228.675 237.001 229.24ZM235.729 229.384V229.24C235.729 228.871 235.691 228.525 235.613 228.201C235.536 227.873 235.415 227.586 235.251 227.34C235.091 227.089 234.886 226.893 234.636 226.752C234.385 226.606 234.087 226.533 233.74 226.533C233.421 226.533 233.143 226.588 232.906 226.697C232.674 226.807 232.476 226.955 232.312 227.142C232.147 227.324 232.013 227.534 231.908 227.771C231.808 228.003 231.733 228.244 231.683 228.495V230.266C231.774 230.585 231.901 230.885 232.065 231.168C232.229 231.446 232.448 231.672 232.722 231.845C232.995 232.013 233.339 232.098 233.754 232.098C234.096 232.098 234.39 232.027 234.636 231.886C234.886 231.74 235.091 231.542 235.251 231.291C235.415 231.04 235.536 230.753 235.613 230.43C235.691 230.102 235.729 229.753 235.729 229.384ZM242.976 231.735V227.928C242.976 227.636 242.916 227.383 242.798 227.169C242.684 226.95 242.511 226.782 242.278 226.663C242.046 226.545 241.759 226.485 241.417 226.485C241.098 226.485 240.818 226.54 240.576 226.649C240.339 226.759 240.152 226.902 240.016 227.08C239.883 227.258 239.817 227.449 239.817 227.654H238.553C238.553 227.39 238.621 227.128 238.758 226.868C238.895 226.608 239.09 226.374 239.346 226.164C239.605 225.95 239.915 225.781 240.275 225.658C240.64 225.531 241.046 225.467 241.492 225.467C242.03 225.467 242.504 225.558 242.914 225.74C243.329 225.923 243.652 226.198 243.885 226.567C244.122 226.932 244.24 227.39 244.24 227.941V231.387C244.24 231.633 244.261 231.895 244.302 232.173C244.347 232.451 244.413 232.69 244.5 232.891V233H243.181C243.117 232.854 243.067 232.66 243.03 232.419C242.994 232.173 242.976 231.945 242.976 231.735ZM243.194 228.516L243.208 229.404H241.93C241.57 229.404 241.248 229.434 240.966 229.493C240.683 229.548 240.446 229.632 240.255 229.746C240.063 229.86 239.918 230.004 239.817 230.177C239.717 230.345 239.667 230.544 239.667 230.771C239.667 231.004 239.719 231.216 239.824 231.407C239.929 231.599 240.086 231.751 240.296 231.865C240.51 231.975 240.772 232.029 241.082 232.029C241.469 232.029 241.811 231.947 242.107 231.783C242.404 231.619 242.638 231.419 242.812 231.182C242.989 230.945 243.085 230.715 243.099 230.491L243.639 231.1C243.607 231.291 243.52 231.503 243.379 231.735C243.238 231.968 243.049 232.191 242.812 232.405C242.579 232.615 242.301 232.79 241.978 232.932C241.659 233.068 241.299 233.137 240.897 233.137C240.396 233.137 239.956 233.039 239.578 232.843C239.204 232.647 238.913 232.385 238.703 232.057C238.498 231.724 238.396 231.353 238.396 230.942C238.396 230.546 238.473 230.197 238.628 229.896C238.783 229.591 239.006 229.338 239.298 229.138C239.59 228.933 239.94 228.778 240.351 228.673C240.761 228.568 241.219 228.516 241.725 228.516H243.194ZM247.494 226.766V233H246.229V225.604H247.46L247.494 226.766ZM249.805 225.562L249.798 226.738C249.693 226.715 249.593 226.702 249.497 226.697C249.406 226.688 249.301 226.684 249.183 226.684C248.891 226.684 248.633 226.729 248.41 226.82C248.187 226.911 247.998 227.039 247.843 227.203C247.688 227.367 247.565 227.563 247.474 227.791C247.387 228.014 247.33 228.26 247.303 228.529L246.947 228.734C246.947 228.288 246.991 227.868 247.077 227.477C247.168 227.085 247.307 226.738 247.494 226.438C247.681 226.132 247.918 225.895 248.205 225.727C248.497 225.553 248.843 225.467 249.244 225.467C249.335 225.467 249.44 225.478 249.559 225.501C249.677 225.519 249.759 225.54 249.805 225.562ZM254.412 225.604V226.574H250.413V225.604H254.412ZM251.767 223.806H253.031V231.168C253.031 231.419 253.07 231.608 253.147 231.735C253.225 231.863 253.325 231.947 253.448 231.988C253.571 232.029 253.703 232.05 253.845 232.05C253.95 232.05 254.059 232.041 254.173 232.022C254.291 232 254.38 231.981 254.439 231.968L254.446 233C254.346 233.032 254.214 233.062 254.05 233.089C253.89 233.121 253.697 233.137 253.469 233.137C253.159 233.137 252.874 233.075 252.614 232.952C252.354 232.829 252.147 232.624 251.992 232.337C251.842 232.045 251.767 231.653 251.767 231.161V223.806ZM257.27 225.604V233H255.998V225.604H257.27ZM255.902 223.642C255.902 223.437 255.964 223.263 256.087 223.122C256.215 222.981 256.401 222.91 256.647 222.91C256.889 222.91 257.074 222.981 257.201 223.122C257.333 223.263 257.399 223.437 257.399 223.642C257.399 223.838 257.333 224.006 257.201 224.147C257.074 224.284 256.889 224.353 256.647 224.353C256.401 224.353 256.215 224.284 256.087 224.147C255.964 224.006 255.902 223.838 255.902 223.642ZM262.26 232.098C262.561 232.098 262.839 232.036 263.094 231.913C263.349 231.79 263.559 231.621 263.723 231.407C263.887 231.188 263.98 230.94 264.003 230.662H265.206C265.183 231.1 265.035 231.507 264.762 231.886C264.493 232.259 264.14 232.562 263.702 232.795C263.265 233.023 262.784 233.137 262.26 233.137C261.704 233.137 261.218 233.039 260.804 232.843C260.394 232.647 260.052 232.378 259.778 232.036C259.509 231.694 259.307 231.302 259.17 230.86C259.038 230.414 258.972 229.942 258.972 229.445V229.158C258.972 228.661 259.038 228.192 259.17 227.75C259.307 227.303 259.509 226.909 259.778 226.567C260.052 226.226 260.394 225.957 260.804 225.761C261.218 225.565 261.704 225.467 262.26 225.467C262.839 225.467 263.344 225.585 263.777 225.822C264.21 226.055 264.55 226.374 264.796 226.779C265.047 227.18 265.183 227.636 265.206 228.146H264.003C263.98 227.841 263.894 227.565 263.743 227.319C263.597 227.073 263.397 226.877 263.142 226.731C262.891 226.581 262.597 226.506 262.26 226.506C261.872 226.506 261.547 226.583 261.282 226.738C261.022 226.889 260.815 227.094 260.66 227.354C260.51 227.609 260.4 227.894 260.332 228.208C260.268 228.518 260.236 228.835 260.236 229.158V229.445C260.236 229.769 260.268 230.088 260.332 230.402C260.396 230.717 260.503 231.002 260.653 231.257C260.808 231.512 261.016 231.717 261.275 231.872C261.54 232.022 261.868 232.098 262.26 232.098ZM268.002 225.604V233H266.73V225.604H268.002ZM266.635 223.642C266.635 223.437 266.696 223.263 266.819 223.122C266.947 222.981 267.134 222.91 267.38 222.91C267.621 222.91 267.806 222.981 267.934 223.122C268.066 223.263 268.132 223.437 268.132 223.642C268.132 223.838 268.066 224.006 267.934 224.147C267.806 224.284 267.621 224.353 267.38 224.353C267.134 224.353 266.947 224.284 266.819 224.147C266.696 224.006 266.635 223.838 266.635 223.642ZM271.297 227.025V235.844H270.025V225.604H271.188L271.297 227.025ZM276.28 229.24V229.384C276.28 229.922 276.216 230.421 276.089 230.881C275.961 231.337 275.774 231.733 275.528 232.07C275.287 232.408 274.988 232.67 274.633 232.856C274.277 233.043 273.869 233.137 273.409 233.137C272.94 233.137 272.525 233.059 272.165 232.904C271.805 232.749 271.5 232.524 271.249 232.228C270.998 231.931 270.798 231.576 270.647 231.161C270.502 230.746 270.401 230.279 270.347 229.76V228.994C270.401 228.447 270.504 227.957 270.654 227.524C270.805 227.091 271.003 226.722 271.249 226.417C271.5 226.107 271.803 225.872 272.158 225.713C272.514 225.549 272.924 225.467 273.389 225.467C273.854 225.467 274.266 225.558 274.626 225.74C274.986 225.918 275.289 226.173 275.535 226.506C275.781 226.839 275.966 227.237 276.089 227.702C276.216 228.162 276.28 228.675 276.28 229.24ZM275.009 229.384V229.24C275.009 228.871 274.97 228.525 274.893 228.201C274.815 227.873 274.694 227.586 274.53 227.34C274.371 227.089 274.166 226.893 273.915 226.752C273.664 226.606 273.366 226.533 273.02 226.533C272.701 226.533 272.423 226.588 272.186 226.697C271.953 226.807 271.755 226.955 271.591 227.142C271.427 227.324 271.292 227.534 271.188 227.771C271.087 228.003 271.012 228.244 270.962 228.495V230.266C271.053 230.585 271.181 230.885 271.345 231.168C271.509 231.446 271.728 231.672 272.001 231.845C272.274 232.013 272.618 232.098 273.033 232.098C273.375 232.098 273.669 232.027 273.915 231.886C274.166 231.74 274.371 231.542 274.53 231.291C274.694 231.04 274.815 230.753 274.893 230.43C274.97 230.102 275.009 229.753 275.009 229.384ZM282.255 231.735V227.928C282.255 227.636 282.196 227.383 282.077 227.169C281.963 226.95 281.79 226.782 281.558 226.663C281.325 226.545 281.038 226.485 280.696 226.485C280.377 226.485 280.097 226.54 279.855 226.649C279.618 226.759 279.432 226.902 279.295 227.08C279.163 227.258 279.097 227.449 279.097 227.654H277.832C277.832 227.39 277.9 227.128 278.037 226.868C278.174 226.608 278.37 226.374 278.625 226.164C278.885 225.95 279.195 225.781 279.555 225.658C279.919 225.531 280.325 225.467 280.771 225.467C281.309 225.467 281.783 225.558 282.193 225.74C282.608 225.923 282.932 226.198 283.164 226.567C283.401 226.932 283.52 227.39 283.52 227.941V231.387C283.52 231.633 283.54 231.895 283.581 232.173C283.627 232.451 283.693 232.69 283.779 232.891V233H282.46C282.396 232.854 282.346 232.66 282.31 232.419C282.273 232.173 282.255 231.945 282.255 231.735ZM282.474 228.516L282.487 229.404H281.209C280.849 229.404 280.528 229.434 280.245 229.493C279.963 229.548 279.726 229.632 279.534 229.746C279.343 229.86 279.197 230.004 279.097 230.177C278.996 230.345 278.946 230.544 278.946 230.771C278.946 231.004 278.999 231.216 279.104 231.407C279.208 231.599 279.366 231.751 279.575 231.865C279.789 231.975 280.051 232.029 280.361 232.029C280.749 232.029 281.09 231.947 281.387 231.783C281.683 231.619 281.918 231.419 282.091 231.182C282.269 230.945 282.364 230.715 282.378 230.491L282.918 231.1C282.886 231.291 282.799 231.503 282.658 231.735C282.517 231.968 282.328 232.191 282.091 232.405C281.858 232.615 281.58 232.79 281.257 232.932C280.938 233.068 280.578 233.137 280.177 233.137C279.675 233.137 279.236 233.039 278.857 232.843C278.484 232.647 278.192 232.385 277.982 232.057C277.777 231.724 277.675 231.353 277.675 230.942C277.675 230.546 277.752 230.197 277.907 229.896C278.062 229.591 278.285 229.338 278.577 229.138C278.869 228.933 279.22 228.778 279.63 228.673C280.04 228.568 280.498 228.516 281.004 228.516H282.474ZM288.605 225.604V226.574H284.606V225.604H288.605ZM285.96 223.806H287.225V231.168C287.225 231.419 287.263 231.608 287.341 231.735C287.418 231.863 287.519 231.947 287.642 231.988C287.765 232.029 287.897 232.05 288.038 232.05C288.143 232.05 288.252 232.041 288.366 232.022C288.485 232 288.574 231.981 288.633 231.968L288.64 233C288.539 233.032 288.407 233.062 288.243 233.089C288.084 233.121 287.89 233.137 287.662 233.137C287.352 233.137 287.067 233.075 286.808 232.952C286.548 232.829 286.34 232.624 286.186 232.337C286.035 232.045 285.96 231.653 285.96 231.161V223.806ZM291.463 225.604V233H290.191V225.604H291.463ZM290.096 223.642C290.096 223.437 290.157 223.263 290.28 223.122C290.408 222.981 290.595 222.91 290.841 222.91C291.082 222.91 291.267 222.981 291.395 223.122C291.527 223.263 291.593 223.437 291.593 223.642C291.593 223.838 291.527 224.006 291.395 224.147C291.267 224.284 291.082 224.353 290.841 224.353C290.595 224.353 290.408 224.284 290.28 224.147C290.157 224.006 290.096 223.838 290.096 223.642ZM293.158 229.384V229.227C293.158 228.693 293.236 228.199 293.391 227.743C293.546 227.283 293.769 226.884 294.061 226.547C294.352 226.205 294.705 225.941 295.12 225.754C295.535 225.562 296 225.467 296.515 225.467C297.034 225.467 297.501 225.562 297.916 225.754C298.335 225.941 298.691 226.205 298.982 226.547C299.279 226.884 299.504 227.283 299.659 227.743C299.814 228.199 299.892 228.693 299.892 229.227V229.384C299.892 229.917 299.814 230.411 299.659 230.867C299.504 231.323 299.279 231.722 298.982 232.063C298.691 232.401 298.338 232.665 297.923 232.856C297.513 233.043 297.048 233.137 296.528 233.137C296.009 233.137 295.542 233.043 295.127 232.856C294.712 232.665 294.357 232.401 294.061 232.063C293.769 231.722 293.546 231.323 293.391 230.867C293.236 230.411 293.158 229.917 293.158 229.384ZM294.423 229.227V229.384C294.423 229.753 294.466 230.102 294.553 230.43C294.639 230.753 294.769 231.04 294.942 231.291C295.12 231.542 295.341 231.74 295.605 231.886C295.87 232.027 296.177 232.098 296.528 232.098C296.875 232.098 297.178 232.027 297.438 231.886C297.702 231.74 297.921 231.542 298.094 231.291C298.267 231.04 298.397 230.753 298.483 230.43C298.575 230.102 298.62 229.753 298.62 229.384V229.227C298.62 228.862 298.575 228.518 298.483 228.194C298.397 227.866 298.265 227.577 298.087 227.326C297.914 227.071 297.695 226.87 297.431 226.725C297.171 226.579 296.866 226.506 296.515 226.506C296.168 226.506 295.863 226.579 295.599 226.725C295.339 226.87 295.12 227.071 294.942 227.326C294.769 227.577 294.639 227.866 294.553 228.194C294.466 228.518 294.423 228.862 294.423 229.227ZM302.742 227.183V233H301.478V225.604H302.674L302.742 227.183ZM302.441 229.021L301.915 229.001C301.92 228.495 301.995 228.028 302.141 227.6C302.286 227.167 302.492 226.791 302.756 226.472C303.02 226.153 303.335 225.907 303.699 225.733C304.068 225.556 304.476 225.467 304.923 225.467C305.287 225.467 305.616 225.517 305.907 225.617C306.199 225.713 306.447 225.868 306.652 226.082C306.862 226.296 307.021 226.574 307.131 226.916C307.24 227.253 307.295 227.666 307.295 228.153V233H306.023V228.14C306.023 227.752 305.966 227.442 305.853 227.21C305.739 226.973 305.572 226.802 305.354 226.697C305.135 226.588 304.866 226.533 304.547 226.533C304.232 226.533 303.945 226.599 303.686 226.731C303.43 226.864 303.209 227.046 303.022 227.278C302.84 227.511 302.697 227.777 302.592 228.078C302.492 228.374 302.441 228.689 302.441 229.021ZM314.062 225.604V233H312.791V225.604H314.062ZM312.695 223.642C312.695 223.437 312.757 223.263 312.88 223.122C313.007 222.981 313.194 222.91 313.44 222.91C313.682 222.91 313.867 222.981 313.994 223.122C314.126 223.263 314.192 223.437 314.192 223.642C314.192 223.838 314.126 224.006 313.994 224.147C313.867 224.284 313.682 224.353 313.44 224.353C313.194 224.353 313.007 224.284 312.88 224.147C312.757 224.006 312.695 223.838 312.695 223.642ZM317.357 227.183V233H316.093V225.604H317.289L317.357 227.183ZM317.057 229.021L316.53 229.001C316.535 228.495 316.61 228.028 316.756 227.6C316.902 227.167 317.107 226.791 317.371 226.472C317.635 226.153 317.95 225.907 318.314 225.733C318.684 225.556 319.091 225.467 319.538 225.467C319.903 225.467 320.231 225.517 320.522 225.617C320.814 225.713 321.062 225.868 321.268 226.082C321.477 226.296 321.637 226.574 321.746 226.916C321.855 227.253 321.91 227.666 321.91 228.153V233H320.639V228.14C320.639 227.752 320.582 227.442 320.468 227.21C320.354 226.973 320.188 226.802 319.969 226.697C319.75 226.588 319.481 226.533 319.162 226.533C318.848 226.533 318.561 226.599 318.301 226.731C318.046 226.864 317.825 227.046 317.638 227.278C317.455 227.511 317.312 227.777 317.207 228.078C317.107 228.374 317.057 228.689 317.057 229.021ZM329.163 233V234.039H322.895V233H329.163ZM335.479 233V234.039H329.211V233H335.479ZM341.796 233V234.039H335.527V233H341.796ZM348.112 233V234.039H341.844V233H348.112ZM354.429 233V234.039H348.16V233H354.429ZM360.745 233V234.039H354.477V233H360.745ZM367.062 233V234.039H360.793V233H367.062ZM373.378 233V234.039H367.109V233H373.378ZM379.694 233V234.039H373.426V233H379.694ZM386.011 233V234.039H379.742V233H386.011ZM392.327 233V234.039H386.059V233H392.327ZM398.644 233V234.039H392.375V233H398.644ZM404.96 233V234.039H398.691V233H404.96ZM411.276 233V234.039H405.008V233H411.276ZM417.593 233V234.039H411.324V233H417.593ZM423.909 233V234.039H417.641V233H423.909ZM430.226 233V234.039H423.957V233H430.226ZM436.542 233V234.039H430.273V233H436.542ZM442.858 233V234.039H436.59V233H442.858ZM449.175 233V234.039H442.906V233H449.175ZM455.491 233V234.039H449.223V233H455.491ZM461.808 233V234.039H455.539V233H461.808ZM466.258 222.5H467.529V231.564L467.42 233H466.258V222.5ZM472.526 229.24V229.384C472.526 229.922 472.463 230.421 472.335 230.881C472.207 231.337 472.021 231.733 471.774 232.07C471.528 232.408 471.228 232.67 470.872 232.856C470.517 233.043 470.109 233.137 469.648 233.137C469.179 233.137 468.767 233.057 468.411 232.897C468.06 232.733 467.764 232.499 467.522 232.193C467.281 231.888 467.087 231.519 466.941 231.086C466.8 230.653 466.702 230.165 466.647 229.623V228.994C466.702 228.447 466.8 227.957 466.941 227.524C467.087 227.091 467.281 226.722 467.522 226.417C467.764 226.107 468.06 225.872 468.411 225.713C468.762 225.549 469.17 225.467 469.635 225.467C470.1 225.467 470.512 225.558 470.872 225.74C471.232 225.918 471.533 226.173 471.774 226.506C472.021 226.839 472.207 227.237 472.335 227.702C472.463 228.162 472.526 228.675 472.526 229.24ZM471.255 229.384V229.24C471.255 228.871 471.221 228.525 471.152 228.201C471.084 227.873 470.975 227.586 470.824 227.34C470.674 227.089 470.476 226.893 470.229 226.752C469.983 226.606 469.68 226.533 469.32 226.533C469.001 226.533 468.723 226.588 468.486 226.697C468.254 226.807 468.056 226.955 467.892 227.142C467.728 227.324 467.593 227.534 467.488 227.771C467.388 228.003 467.313 228.244 467.263 228.495V230.143C467.336 230.462 467.454 230.769 467.618 231.065C467.787 231.357 468.01 231.596 468.288 231.783C468.571 231.97 468.919 232.063 469.334 232.063C469.676 232.063 469.967 231.995 470.209 231.858C470.455 231.717 470.653 231.523 470.804 231.277C470.959 231.031 471.073 230.746 471.146 230.423C471.218 230.099 471.255 229.753 471.255 229.384ZM476.122 232.234L478.18 225.604H479.533L476.566 234.142C476.498 234.324 476.407 234.52 476.293 234.729C476.184 234.944 476.042 235.146 475.869 235.338C475.696 235.529 475.486 235.684 475.24 235.803C474.999 235.926 474.709 235.987 474.372 235.987C474.272 235.987 474.144 235.974 473.989 235.946C473.834 235.919 473.725 235.896 473.661 235.878L473.654 234.853C473.691 234.857 473.748 234.862 473.825 234.866C473.907 234.875 473.964 234.88 473.996 234.88C474.283 234.88 474.527 234.841 474.728 234.764C474.928 234.691 475.097 234.565 475.233 234.388C475.375 234.215 475.495 233.975 475.596 233.67L476.122 232.234ZM474.611 225.604L476.532 231.346L476.86 232.679L475.951 233.144L473.23 225.604H474.611ZM489.479 233V234.039H483.211V233H489.479ZM495.796 233V234.039H489.527V233H495.796ZM502.112 233V234.039H495.844V233H502.112ZM508.429 233V234.039H502.16V233H508.429ZM514.745 233V234.039H508.477V233H514.745ZM521.062 233V234.039H514.793V233H521.062ZM527.378 233V234.039H521.109V233H527.378ZM533.694 233V234.039H527.426V233H533.694ZM540.011 233V234.039H533.742V233H540.011ZM546.327 233V234.039H540.059V233H546.327ZM552.644 233V234.039H546.375V233H552.644ZM558.96 233V234.039H552.691V233H558.96ZM565.276 233V234.039H559.008V233H565.276ZM571.593 233V234.039H565.324V233H571.593ZM577.909 233V234.039H571.641V233H577.909ZM584.226 233V234.039H577.957V233H584.226ZM590.542 233V234.039H584.273V233H590.542ZM596.858 233V234.039H590.59V233H596.858ZM603.175 233V234.039H596.906V233H603.175ZM609.491 233V234.039H603.223V233H609.491ZM615.808 233V234.039H609.539V233H615.808ZM622.124 233V234.039H615.855V233H622.124ZM628.44 233V234.039H622.172V233H628.44ZM634.757 233V234.039H628.488V233H634.757ZM641.073 233V234.039H634.805V233H641.073ZM647.39 233V234.039H641.121V233H647.39ZM653.706 233V234.039H647.438V233H653.706ZM660.022 233V234.039H653.754V233H660.022ZM209.849 297H207.771L207.784 295.927H209.849C210.56 295.927 211.152 295.779 211.626 295.482C212.1 295.182 212.455 294.762 212.692 294.225C212.934 293.682 213.055 293.049 213.055 292.324V291.716C213.055 291.146 212.986 290.64 212.85 290.198C212.713 289.752 212.512 289.376 212.248 289.07C211.984 288.76 211.66 288.526 211.277 288.366C210.899 288.207 210.464 288.127 209.972 288.127H207.729V287.047H209.972C210.623 287.047 211.218 287.156 211.756 287.375C212.294 287.589 212.756 287.901 213.144 288.312C213.535 288.717 213.836 289.209 214.046 289.788C214.256 290.362 214.36 291.009 214.36 291.729V292.324C214.36 293.044 214.256 293.694 214.046 294.272C213.836 294.847 213.533 295.337 213.137 295.742C212.745 296.148 212.271 296.46 211.715 296.679C211.163 296.893 210.541 297 209.849 297ZM208.475 287.047V297H207.155V287.047H208.475ZM220.513 295.735V291.928C220.513 291.636 220.453 291.383 220.335 291.169C220.221 290.95 220.048 290.782 219.815 290.663C219.583 290.545 219.296 290.485 218.954 290.485C218.635 290.485 218.355 290.54 218.113 290.649C217.876 290.759 217.689 290.902 217.553 291.08C217.421 291.258 217.354 291.449 217.354 291.654H216.09C216.09 291.39 216.158 291.128 216.295 290.868C216.432 290.608 216.628 290.374 216.883 290.164C217.143 289.95 217.452 289.781 217.812 289.658C218.177 289.531 218.583 289.467 219.029 289.467C219.567 289.467 220.041 289.558 220.451 289.74C220.866 289.923 221.189 290.198 221.422 290.567C221.659 290.932 221.777 291.39 221.777 291.941V295.387C221.777 295.633 221.798 295.895 221.839 296.173C221.884 296.451 221.951 296.69 222.037 296.891V297H220.718C220.654 296.854 220.604 296.66 220.567 296.419C220.531 296.173 220.513 295.945 220.513 295.735ZM220.731 292.516L220.745 293.404H219.467C219.107 293.404 218.785 293.434 218.503 293.493C218.22 293.548 217.983 293.632 217.792 293.746C217.601 293.86 217.455 294.004 217.354 294.177C217.254 294.345 217.204 294.544 217.204 294.771C217.204 295.004 217.257 295.216 217.361 295.407C217.466 295.599 217.623 295.751 217.833 295.865C218.047 295.975 218.309 296.029 218.619 296.029C219.007 296.029 219.348 295.947 219.645 295.783C219.941 295.619 220.175 295.419 220.349 295.182C220.526 294.945 220.622 294.715 220.636 294.491L221.176 295.1C221.144 295.291 221.057 295.503 220.916 295.735C220.775 295.968 220.586 296.191 220.349 296.405C220.116 296.615 219.838 296.79 219.515 296.932C219.196 297.068 218.836 297.137 218.435 297.137C217.933 297.137 217.493 297.039 217.115 296.843C216.742 296.647 216.45 296.385 216.24 296.057C216.035 295.724 215.933 295.353 215.933 294.942C215.933 294.546 216.01 294.197 216.165 293.896C216.32 293.591 216.543 293.338 216.835 293.138C217.127 292.933 217.478 292.778 217.888 292.673C218.298 292.568 218.756 292.516 219.262 292.516H220.731ZM226.863 289.604V290.574H222.864V289.604H226.863ZM224.218 287.806H225.482V295.168C225.482 295.419 225.521 295.608 225.599 295.735C225.676 295.863 225.776 295.947 225.899 295.988C226.022 296.029 226.155 296.05 226.296 296.05C226.401 296.05 226.51 296.041 226.624 296.022C226.743 296 226.831 295.981 226.891 295.968L226.897 297C226.797 297.032 226.665 297.062 226.501 297.089C226.341 297.121 226.148 297.137 225.92 297.137C225.61 297.137 225.325 297.075 225.065 296.952C224.806 296.829 224.598 296.624 224.443 296.337C224.293 296.045 224.218 295.653 224.218 295.161V287.806ZM231.416 297.137C230.901 297.137 230.434 297.05 230.015 296.877C229.6 296.699 229.242 296.451 228.941 296.132C228.645 295.813 228.417 295.435 228.258 294.997C228.098 294.56 228.019 294.081 228.019 293.562V293.274C228.019 292.673 228.107 292.137 228.285 291.668C228.463 291.194 228.704 290.793 229.01 290.465C229.315 290.137 229.661 289.888 230.049 289.72C230.436 289.551 230.837 289.467 231.252 289.467C231.781 289.467 232.236 289.558 232.619 289.74C233.007 289.923 233.323 290.178 233.569 290.506C233.815 290.829 233.998 291.212 234.116 291.654C234.235 292.092 234.294 292.57 234.294 293.09V293.657H228.771V292.625H233.029V292.529C233.011 292.201 232.943 291.882 232.824 291.572C232.71 291.262 232.528 291.007 232.277 290.807C232.027 290.606 231.685 290.506 231.252 290.506C230.965 290.506 230.701 290.567 230.459 290.69C230.217 290.809 230.01 290.987 229.837 291.224C229.664 291.461 229.529 291.75 229.434 292.092C229.338 292.434 229.29 292.828 229.29 293.274V293.562C229.29 293.912 229.338 294.243 229.434 294.553C229.534 294.858 229.677 295.127 229.864 295.359C230.056 295.592 230.286 295.774 230.555 295.906C230.828 296.038 231.138 296.104 231.484 296.104C231.931 296.104 232.309 296.013 232.619 295.831C232.929 295.649 233.2 295.405 233.433 295.1L234.198 295.708C234.039 295.95 233.836 296.18 233.59 296.398C233.344 296.617 233.041 296.795 232.681 296.932C232.325 297.068 231.904 297.137 231.416 297.137ZM248.048 297V298.039H241.779V297H248.048ZM254.364 297V298.039H248.096V297H254.364ZM260.681 297V298.039H254.412V297H260.681ZM266.997 297V298.039H260.729V297H266.997ZM273.313 297V298.039H267.045V297H273.313ZM279.63 297V298.039H273.361V297H279.63ZM285.946 297V298.039H279.678V297H285.946ZM292.263 297V298.039H285.994V297H292.263ZM298.579 297V298.039H292.311V297H298.579ZM304.896 297V298.039H298.627V297H304.896ZM311.212 297V298.039H304.943V297H311.212ZM317.528 297V298.039H311.26V297H317.528ZM350.669 287.047V297H349.343L344.332 289.323V297H343.013V287.047H344.332L349.363 294.744V287.047H350.669ZM357.341 295.291V289.604H358.612V297H357.402L357.341 295.291ZM357.58 293.732L358.106 293.719C358.106 294.211 358.054 294.667 357.949 295.086C357.849 295.501 357.685 295.861 357.457 296.166C357.229 296.471 356.931 296.711 356.562 296.884C356.192 297.052 355.743 297.137 355.215 297.137C354.855 297.137 354.524 297.084 354.224 296.979C353.927 296.875 353.672 296.713 353.458 296.494C353.244 296.275 353.077 295.991 352.959 295.64C352.845 295.289 352.788 294.867 352.788 294.375V289.604H354.053V294.389C354.053 294.721 354.089 294.997 354.162 295.216C354.24 295.43 354.342 295.601 354.47 295.729C354.602 295.852 354.748 295.938 354.907 295.988C355.071 296.038 355.24 296.063 355.413 296.063C355.951 296.063 356.377 295.961 356.691 295.756C357.006 295.546 357.231 295.266 357.368 294.915C357.509 294.56 357.58 294.165 357.58 293.732ZM361.798 291.073V297H360.526V289.604H361.729L361.798 291.073ZM361.538 293.021L360.95 293.001C360.955 292.495 361.021 292.028 361.148 291.6C361.276 291.167 361.465 290.791 361.716 290.472C361.966 290.153 362.279 289.907 362.652 289.733C363.026 289.556 363.459 289.467 363.951 289.467C364.298 289.467 364.617 289.517 364.908 289.617C365.2 289.713 365.453 289.866 365.667 290.075C365.881 290.285 366.048 290.554 366.166 290.882C366.285 291.21 366.344 291.606 366.344 292.071V297H365.079V292.133C365.079 291.745 365.013 291.436 364.881 291.203C364.753 290.971 364.571 290.802 364.334 290.697C364.097 290.588 363.819 290.533 363.5 290.533C363.126 290.533 362.814 290.599 362.563 290.731C362.313 290.864 362.112 291.046 361.962 291.278C361.812 291.511 361.702 291.777 361.634 292.078C361.57 292.374 361.538 292.689 361.538 293.021ZM366.33 292.324L365.482 292.584C365.487 292.178 365.553 291.789 365.681 291.415C365.813 291.041 366.002 290.709 366.248 290.417C366.499 290.125 366.806 289.895 367.171 289.727C367.535 289.553 367.952 289.467 368.422 289.467C368.818 289.467 369.169 289.519 369.475 289.624C369.785 289.729 370.044 289.891 370.254 290.109C370.468 290.324 370.63 290.599 370.739 290.937C370.849 291.274 370.903 291.675 370.903 292.14V297H369.632V292.126C369.632 291.711 369.566 291.39 369.434 291.162C369.306 290.93 369.124 290.768 368.887 290.677C368.654 290.581 368.376 290.533 368.053 290.533C367.775 290.533 367.529 290.581 367.314 290.677C367.1 290.772 366.92 290.905 366.774 291.073C366.629 291.237 366.517 291.426 366.439 291.641C366.367 291.855 366.33 292.083 366.33 292.324ZM372.838 296.33C372.838 296.116 372.904 295.936 373.036 295.79C373.173 295.64 373.369 295.564 373.624 295.564C373.879 295.564 374.073 295.64 374.205 295.79C374.342 295.936 374.41 296.116 374.41 296.33C374.41 296.54 374.342 296.717 374.205 296.863C374.073 297.009 373.879 297.082 373.624 297.082C373.369 297.082 373.173 297.009 373.036 296.863C372.904 296.717 372.838 296.54 372.838 296.33ZM381.246 286.5V297H379.981V286.5H381.246ZM380.945 293.021L380.419 293.001C380.424 292.495 380.499 292.028 380.645 291.6C380.79 291.167 380.995 290.791 381.26 290.472C381.524 290.153 381.839 289.907 382.203 289.733C382.572 289.556 382.98 289.467 383.427 289.467C383.791 289.467 384.119 289.517 384.411 289.617C384.703 289.713 384.951 289.868 385.156 290.082C385.366 290.296 385.525 290.574 385.635 290.916C385.744 291.253 385.799 291.666 385.799 292.153V297H384.527V292.14C384.527 291.752 384.47 291.442 384.356 291.21C384.243 290.973 384.076 290.802 383.857 290.697C383.639 290.588 383.37 290.533 383.051 290.533C382.736 290.533 382.449 290.599 382.189 290.731C381.934 290.864 381.713 291.046 381.526 291.278C381.344 291.511 381.201 291.777 381.096 292.078C380.995 292.374 380.945 292.689 380.945 293.021ZM387.713 296.33C387.713 296.116 387.779 295.936 387.911 295.79C388.048 295.64 388.244 295.564 388.499 295.564C388.754 295.564 388.948 295.64 389.08 295.79C389.217 295.936 389.285 296.116 389.285 296.33C389.285 296.54 389.217 296.717 389.08 296.863C388.948 297.009 388.754 297.082 388.499 297.082C388.244 297.082 388.048 297.009 387.911 296.863C387.779 296.717 387.713 296.54 387.713 296.33ZM400.188 297V298.039H393.92V297H400.188ZM406.505 297V298.039H400.236V297H406.505ZM412.821 297V298.039H406.553V297H412.821ZM419.138 297V298.039H412.869V297H419.138ZM425.454 297V298.039H419.186V297H425.454ZM431.771 297V298.039H425.502V297H431.771ZM438.087 297V298.039H431.818V297H438.087ZM444.403 297V298.039H438.135V297H444.403ZM450.72 297V298.039H444.451V297H450.72ZM457.036 297V298.039H450.768V297H457.036ZM463.353 297V298.039H457.084V297H463.353ZM469.669 297V298.039H463.4V297H469.669ZM475.985 297V298.039H469.717V297H475.985Z" fill="black"/>
<path d="M318.234 108.479H320.109C320.012 109.377 319.755 110.181 319.338 110.891C318.921 111.6 318.332 112.163 317.57 112.58C316.809 112.99 315.858 113.195 314.719 113.195C313.885 113.195 313.127 113.039 312.443 112.727C311.766 112.414 311.184 111.971 310.695 111.398C310.207 110.819 309.829 110.126 309.562 109.318C309.302 108.505 309.172 107.6 309.172 106.604V105.188C309.172 104.191 309.302 103.29 309.562 102.482C309.829 101.669 310.21 100.972 310.705 100.393C311.206 99.8132 311.809 99.3672 312.512 99.0547C313.215 98.7422 314.006 98.5859 314.885 98.5859C315.959 98.5859 316.867 98.7878 317.609 99.1914C318.352 99.5951 318.928 100.155 319.338 100.871C319.755 101.581 320.012 102.404 320.109 103.342H318.234C318.143 102.678 317.974 102.108 317.727 101.633C317.479 101.151 317.128 100.78 316.672 100.52C316.216 100.259 315.62 100.129 314.885 100.129C314.253 100.129 313.697 100.249 313.215 100.49C312.74 100.731 312.339 101.073 312.014 101.516C311.695 101.958 311.454 102.489 311.291 103.107C311.128 103.726 311.047 104.413 311.047 105.168V106.604C311.047 107.3 311.118 107.954 311.262 108.566C311.411 109.178 311.636 109.715 311.936 110.178C312.235 110.64 312.616 111.005 313.078 111.271C313.54 111.532 314.087 111.662 314.719 111.662C315.52 111.662 316.158 111.535 316.633 111.281C317.108 111.027 317.466 110.663 317.707 110.188C317.954 109.712 318.13 109.143 318.234 108.479ZM331.711 111.467V113H324.182V111.467H331.711ZM324.562 98.7812V113H322.678V98.7812H324.562ZM330.715 104.895V106.428H324.182V104.895H330.715ZM331.613 98.7812V100.324H324.182V98.7812H331.613ZM334.045 98.7812H338.752C339.82 98.7812 340.721 98.944 341.457 99.2695C342.199 99.5951 342.762 100.077 343.146 100.715C343.537 101.346 343.732 102.124 343.732 103.049C343.732 103.7 343.599 104.296 343.332 104.836C343.072 105.37 342.694 105.826 342.199 106.203C341.711 106.574 341.125 106.851 340.441 107.033L339.914 107.238H335.49L335.471 105.705H338.811C339.488 105.705 340.051 105.588 340.5 105.354C340.949 105.113 341.288 104.79 341.516 104.387C341.743 103.983 341.857 103.537 341.857 103.049C341.857 102.502 341.75 102.023 341.535 101.613C341.32 101.203 340.982 100.887 340.52 100.666C340.064 100.438 339.475 100.324 338.752 100.324H335.93V113H334.045V98.7812ZM342.355 113L338.898 106.555L340.861 106.545L344.367 112.883V113H342.355ZM350.842 98.7812V113H348.986V98.7812H350.842ZM355.412 98.7812V100.324H344.426V98.7812H355.412ZM359.543 98.7812V113H357.658V98.7812H359.543ZM364.855 98.7812V113H362.971V98.7812H364.855ZM370.812 105.178V106.721H364.445V105.178H370.812ZM371.779 98.7812V100.324H364.445V98.7812H371.779ZM376.047 98.7812V113H374.162V98.7812H376.047ZM388.059 108.479H389.934C389.836 109.377 389.579 110.181 389.162 110.891C388.745 111.6 388.156 112.163 387.395 112.58C386.633 112.99 385.682 113.195 384.543 113.195C383.71 113.195 382.951 113.039 382.268 112.727C381.59 112.414 381.008 111.971 380.52 111.398C380.031 110.819 379.654 110.126 379.387 109.318C379.126 108.505 378.996 107.6 378.996 106.604V105.188C378.996 104.191 379.126 103.29 379.387 102.482C379.654 101.669 380.035 100.972 380.529 100.393C381.031 99.8132 381.633 99.3672 382.336 99.0547C383.039 98.7422 383.83 98.5859 384.709 98.5859C385.783 98.5859 386.691 98.7878 387.434 99.1914C388.176 99.5951 388.752 100.155 389.162 100.871C389.579 101.581 389.836 102.404 389.934 103.342H388.059C387.967 102.678 387.798 102.108 387.551 101.633C387.303 101.151 386.952 100.78 386.496 100.52C386.04 100.259 385.445 100.129 384.709 100.129C384.077 100.129 383.521 100.249 383.039 100.49C382.564 100.731 382.163 101.073 381.838 101.516C381.519 101.958 381.278 102.489 381.115 103.107C380.952 103.726 380.871 104.413 380.871 105.168V106.604C380.871 107.3 380.943 107.954 381.086 108.566C381.236 109.178 381.46 109.715 381.76 110.178C382.059 110.64 382.44 111.005 382.902 111.271C383.365 111.532 383.911 111.662 384.543 111.662C385.344 111.662 385.982 111.535 386.457 111.281C386.932 111.027 387.29 110.663 387.531 110.188C387.779 109.712 387.954 109.143 388.059 108.479ZM397.766 100.041L393.059 113H391.135L396.555 98.7812H397.795L397.766 100.041ZM401.711 113L396.994 100.041L396.965 98.7812H398.205L403.645 113H401.711ZM401.467 107.736V109.279H393.479V107.736H401.467ZM409.533 98.7812V113H407.678V98.7812H409.533ZM414.104 98.7812V100.324H403.117V98.7812H414.104ZM425.246 111.467V113H417.717V111.467H425.246ZM418.098 98.7812V113H416.213V98.7812H418.098ZM424.25 104.895V106.428H417.717V104.895H424.25ZM425.148 98.7812V100.324H417.717V98.7812H425.148Z" fill="black"/>
</svg>
